Kreon-Regular.ufo
<glyph name="exclam" format="1">
  <advance width="268"/>
  <unicode hex="0021"/>
  <outline>
    <contour>
      <point x="74" y="56" type="curve" smooth="yes" name="hr00"/>
      <point x="74" y="22"/>
      <point x="100" y="-4"/>
      <point x="134" y="-4" type="curve" smooth="yes"/>
      <point x="165" y="-4"/>
      <point x="193" y="23"/>
      <point x="193" y="56" type="curve" smooth="yes"/>
      <point x="193" y="87"/>
      <point x="165" y="114"/>
      <point x="134" y="114" type="curve" smooth="yes"/>
      <point x="100" y="114"/>
      <point x="74" y="88"/>
    </contour>
    <contour>
      <point x="98" y="237" type="line" name="hr01"/>
      <point x="167" y="237" type="line"/>
      <point x="204" y="652" type="line"/>
      <point x="183" y="690" type="line"/>
      <point x="66" y="677" type="line"/>
    </contour>
  </outline>
</glyph>
<glyph name="quotedbl" format="1">
  <advance width="323"/>
  <unicode hex="0022"/>
  <outline>
    <contour>
      <point x="62" y="467" type="line" name="hr00"/>
      <point x="117" y="467" type="line"/>
      <point x="146" y="669" type="line"/>
      <point x="129" y="699" type="line"/>
      <point x="36" y="689" type="line"/>
    </contour>
    <contour>
      <point x="203" y="467" type="line"/>
      <point x="258" y="467" type="line"/>
      <point x="287" y="669" type="line"/>
      <point x="270" y="699" type="line"/>
      <point x="177" y="689" type="line"/>
    </contour>
  </outline>
</glyph>
<glyph name="numbersign" format="1">
  <advance width="646"/>
  <unicode hex="0023"/>
  <outline>
    <contour>
      <point x="83" y="431" type="line" name="hr00"/>
      <point x="221" y="431" type="line"/>
      <point x="179" y="317" type="line"/>
      <point x="42" y="317" type="line"/>
      <point x="29" y="294" type="line"/>
      <point x="42" y="242" type="line"/>
      <point x="151" y="242" type="line"/>
      <point x="85" y="61" type="line"/>
      <point x="96" y="48" type="line"/>
      <point x="162" y="48" type="line"/>
      <point x="233" y="242" type="line"/>
      <point x="335" y="242" type="line"/>
      <point x="269" y="61" type="line"/>
      <point x="280" y="48" type="line"/>
      <point x="346" y="48" type="line"/>
      <point x="416" y="242" type="line"/>
      <point x="572" y="242" type="line"/>
      <point x="572" y="309" type="line" smooth="yes"/>
      <point x="572" y="313"/>
      <point x="570" y="317"/>
      <point x="566" y="317" type="curve" smooth="yes"/>
      <point x="444" y="317" type="line"/>
      <point x="485" y="431" type="line"/>
      <point x="613" y="431" type="line"/>
      <point x="613" y="498" type="line" smooth="yes"/>
      <point x="613" y="502"/>
      <point x="611" y="506"/>
      <point x="607" y="506" type="curve" smooth="yes"/>
      <point x="513" y="506" type="line"/>
      <point x="575" y="677" type="line"/>
      <point x="564" y="691" type="line"/>
      <point x="498" y="691" type="line"/>
      <point x="431" y="506" type="line"/>
      <point x="330" y="506" type="line"/>
      <point x="394" y="677" type="line"/>
      <point x="383" y="691" type="line"/>
      <point x="317" y="691" type="line"/>
      <point x="248" y="506" type="line"/>
      <point x="83" y="506" type="line"/>
      <point x="70" y="483" type="line"/>
    </contour>
    <contour>
      <point x="303" y="431" type="line"/>
      <point x="403" y="431" type="line"/>
      <point x="362" y="317" type="line"/>
      <point x="261" y="317" type="line"/>
    </contour>
  </outline>
</glyph>
<glyph name="dollar" format="1">
  <advance width="482"/>
  <unicode hex="0024"/>
  <outline>
    <contour>
      <point x="288" y="-192" type="line" name="hr00"/>
      <point x="288" y="2" type="line"/>
      <point x="377" y="21"/>
      <point x="452" y="79"/>
      <point x="452" y="195" type="curve" smooth="yes"/>
      <point x="452" y="275"/>
      <point x="411" y="336"/>
      <point x="290" y="390" type="curve" smooth="yes"/>
      <point x="221" y="421"/>
      <point x="138" y="447"/>
      <point x="138" y="522" type="curve" smooth="yes"/>
      <point x="138" y="579"/>
      <point x="185" y="607"/>
      <point x="251" y="607" type="curve" smooth="yes"/>
      <point x="277" y="607"/>
      <point x="302" y="604"/>
      <point x="322" y="597" type="curve"/>
      <point x="366" y="489" type="line"/>
      <point x="435" y="489" type="line"/>
      <point x="421" y="661" type="line"/>
      <point x="380" y="675"/>
      <point x="336" y="686"/>
      <point x="288" y="690" type="curve"/>
      <point x="288" y="874" type="line"/>
      <point x="198" y="874" type="line"/>
      <point x="198" y="686" type="line"/>
      <point x="104" y="668"/>
      <point x="33" y="604"/>
      <point x="33" y="513" type="curve" smooth="yes"/>
      <point x="33" y="365"/>
      <point x="160" y="340"/>
      <point x="266" y="288" type="curve" smooth="yes"/>
      <point x="326" y="258"/>
      <point x="348" y="227"/>
      <point x="348" y="182" type="curve" smooth="yes"/>
      <point x="348" y="111"/>
      <point x="285" y="80"/>
      <point x="219" y="80" type="curve" smooth="yes"/>
      <point x="186" y="80"/>
      <point x="154" y="88"/>
      <point x="133" y="96" type="curve"/>
      <point x="115" y="203" type="line"/>
      <point x="43" y="203" type="line"/>
      <point x="43" y="34" type="line"/>
      <point x="85" y="13"/>
      <point x="140" y="0"/>
      <point x="198" y="-3" type="curve"/>
      <point x="198" y="-192" type="line"/>
    </contour>
  </outline>
</glyph>
<glyph name="percent" format="1">
  <advance width="719"/>
  <unicode hex="0025"/>
  <outline>
    <contour>
      <point x="31" y="518" type="curve" smooth="yes" name="hr00"/>
      <point x="31" y="436"/>
      <point x="72" y="342"/>
      <point x="172" y="342" type="curve" smooth="yes"/>
      <point x="258" y="342"/>
      <point x="313" y="419"/>
      <point x="313" y="518" type="curve" smooth="yes"/>
      <point x="313" y="608"/>
      <point x="266" y="690"/>
      <point x="172" y="690" type="curve" smooth="yes"/>
      <point x="75" y="690"/>
      <point x="31" y="596"/>
    </contour>
    <contour>
      <point x="105" y="518" type="curve" smooth="yes"/>
      <point x="105" y="576"/>
      <point x="130" y="625"/>
      <point x="172" y="625" type="curve" smooth="yes"/>
      <point x="213" y="625"/>
      <point x="238" y="577"/>
      <point x="238" y="518" type="curve" smooth="yes"/>
      <point x="238" y="457"/>
      <point x="212" y="408"/>
      <point x="172" y="408" type="curve" smooth="yes"/>
      <point x="132" y="408"/>
      <point x="105" y="456"/>
    </contour>
    <contour>
      <point x="408" y="170" type="curve" smooth="yes"/>
      <point x="408" y="89"/>
      <point x="449" y="-4"/>
      <point x="548" y="-4" type="curve" smooth="yes"/>
      <point x="635" y="-4"/>
      <point x="689" y="72"/>
      <point x="689" y="170" type="curve" smooth="yes"/>
      <point x="689" y="260"/>
      <point x="643" y="343"/>
      <point x="548" y="343" type="curve" smooth="yes" name="hr01"/>
      <point x="452" y="343"/>
      <point x="408" y="250"/>
    </contour>
    <contour>
      <point x="483" y="170" type="curve" smooth="yes"/>
      <point x="483" y="230"/>
      <point x="506" y="278"/>
      <point x="548" y="278" type="curve" smooth="yes"/>
      <point x="589" y="278"/>
      <point x="614" y="231"/>
      <point x="614" y="170" type="curve" smooth="yes"/>
      <point x="614" y="109"/>
      <point x="589" y="61"/>
      <point x="548" y="61" type="curve" smooth="yes"/>
      <point x="509" y="61"/>
      <point x="483" y="108"/>
    </contour>
    <contour>
      <point x="181" y="0" type="line" name="hr02"/>
      <point x="619" y="677" type="line"/>
      <point x="617" y="681"/>
      <point x="616" y="687"/>
      <point x="615" y="691" type="curve"/>
      <point x="531" y="691" type="line"/>
      <point x="88" y="13" type="line"/>
      <point x="94" y="0" type="line"/>
    </contour>
  </outline>
</glyph>
<glyph name="ampersand" format="1">
  <advance width="672"/>
  <unicode hex="0026"/>
  <outline>
    <contour>
      <point x="578" y="-3" type="curve" smooth="yes" name="hr00"/>
      <point x="624" y="-3"/>
      <point x="658" y="14"/>
      <point x="675" y="29" type="curve"/>
      <point x="633" y="121" type="line"/>
      <point x="586" y="89"/>
      <point x="580" y="85"/>
      <point x="573" y="81" type="curve"/>
      <point x="559" y="85"/>
      <point x="529" y="113"/>
      <point x="496" y="148" type="curve"/>
      <point x="504" y="161" type="line" smooth="yes"/>
      <point x="545" y="232"/>
      <point x="565" y="324"/>
      <point x="576" y="378" type="curve" smooth="yes"/>
      <point x="577" y="384" type="line"/>
      <point x="566" y="398" type="line"/>
      <point x="410" y="398" type="line"/>
      <point x="426" y="328" type="line"/>
      <point x="471" y="328" type="line"/>
      <point x="463" y="290"/>
      <point x="450" y="253"/>
      <point x="433" y="218" type="curve"/>
      <point x="381" y="280" type="line" smooth="yes"/>
      <point x="346" y="320"/>
      <point x="317" y="358"/>
      <point x="292" y="392" type="curve"/>
      <point x="359" y="447"/>
      <point x="420" y="516"/>
      <point x="420" y="591" type="curve" smooth="yes"/>
      <point x="420" y="672"/>
      <point x="362" y="731"/>
      <point x="272" y="731" type="curve" smooth="yes"/>
      <point x="172" y="731"/>
      <point x="104" y="658"/>
      <point x="104" y="563" type="curve" smooth="yes"/>
      <point x="104" y="516"/>
      <point x="126" y="461"/>
      <point x="158" y="407" type="curve"/>
      <point x="93" y="356"/>
      <point x="32" y="289"/>
      <point x="32" y="201" type="curve" smooth="yes" name="hr01"/>
      <point x="32" y="88"/>
      <point x="122" y="-4"/>
      <point x="253" y="-4" type="curve" smooth="yes"/>
      <point x="334" y="-4"/>
      <point x="390" y="26"/>
      <point x="431" y="64" type="curve"/>
      <point x="477" y="24"/>
      <point x="525" y="-3"/>
    </contour>
    <contour>
      <point x="254" y="82" type="curve" smooth="yes" name="hr03"/>
      <point x="187" y="82"/>
      <point x="136" y="132"/>
      <point x="136" y="203" type="curve" smooth="yes"/>
      <point x="136" y="257"/>
      <point x="162" y="297"/>
      <point x="203" y="337" type="curve"/>
      <point x="220" y="313"/>
      <point x="238" y="290"/>
      <point x="254" y="270" type="curve" smooth="yes"/>
      <point x="289" y="225"/>
      <point x="327" y="174"/>
      <point x="367" y="128" type="curve"/>
      <point x="336" y="99"/>
      <point x="298" y="82"/>
    </contour>
    <contour>
      <point x="199" y="583" type="curve" smooth="yes" name="hr04"/>
      <point x="199" y="620"/>
      <point x="220" y="656"/>
      <point x="264" y="656" type="curve" smooth="yes"/>
      <point x="298" y="656"/>
      <point x="325" y="634"/>
      <point x="325" y="591" type="curve" smooth="yes"/>
      <point x="325" y="549"/>
      <point x="294" y="499"/>
      <point x="247" y="457" type="curve"/>
      <point x="215" y="509"/>
      <point x="199" y="551"/>
    </contour>
  </outline>
</glyph>
<glyph name="quotesingle" format="1">
  <advance width="182"/>
  <unicode hex="0027"/>
  <outline>
    <contour>
      <point x="62" y="457" type="line" name="hr00"/>
      <point x="117" y="457" type="line"/>
      <point x="146" y="659" type="line"/>
      <point x="129" y="689" type="line"/>
      <point x="36" y="679" type="line"/>
    </contour>
  </outline>
</glyph>
<glyph name="parenleft" format="1">
  <advance width="276"/>
  <unicode hex="0028"/>
  <outline>
    <contour>
      <point x="160" y="-162" type="line" name="hr00"/>
      <point x="244" y="-162" type="line"/>
      <point x="210" y="-77"/>
      <point x="146" y="86"/>
      <point x="146" y="291" type="curve" smooth="yes"/>
      <point x="146" y="490"/>
      <point x="198" y="651"/>
      <point x="244" y="742" type="curve"/>
      <point x="160" y="742" type="line"/>
      <point x="116" y="663"/>
      <point x="51" y="505"/>
      <point x="51" y="290" type="curve" smooth="yes"/>
      <point x="51" y="90"/>
      <point x="117" y="-71"/>
      <point x="153" y="-147" type="curve" smooth="yes"/>
    </contour>
  </outline>
</glyph>
<glyph name="parenright" format="1">
  <advance width="276"/>
  <unicode hex="0029"/>
  <outline>
    <contour>
      <point x="123" y="-147" type="line" smooth="yes" name="hr00"/>
      <point x="159" y="-71"/>
      <point x="225" y="90"/>
      <point x="225" y="290" type="curve" smooth="yes"/>
      <point x="225" y="505"/>
      <point x="160" y="663"/>
      <point x="116" y="742" type="curve"/>
      <point x="32" y="742" type="line"/>
      <point x="78" y="651"/>
      <point x="130" y="490"/>
      <point x="130" y="291" type="curve" smooth="yes"/>
      <point x="130" y="86"/>
      <point x="66" y="-77"/>
      <point x="32" y="-162" type="curve"/>
      <point x="116" y="-162" type="line"/>
    </contour>
  </outline>
</glyph>
<glyph name="asterisk" format="1">
  <advance width="362"/>
  <unicode hex="002A"/>
  <outline>
    <contour>
      <point x="216" y="713" type="line" name="hr00"/>
      <point x="200" y="730" type="line"/>
      <point x="144" y="718" type="line"/>
      <point x="167" y="597" type="line"/>
      <point x="75" y="672" type="line"/>
      <point x="51" y="666" type="line"/>
      <point x="35" y="610" type="line"/>
      <point x="154" y="572" type="line"/>
      <point x="41" y="530" type="line"/>
      <point x="35" y="507" type="line"/>
      <point x="75" y="464" type="line"/>
      <point x="166" y="547" type="line"/>
      <point x="146" y="431" type="line"/>
      <point x="162" y="414" type="line"/>
      <point x="218" y="426" type="line"/>
      <point x="195" y="547" type="line"/>
      <point x="287" y="472" type="line"/>
      <point x="311" y="478" type="line"/>
      <point x="327" y="534" type="line"/>
      <point x="208" y="572" type="line"/>
      <point x="321" y="614" type="line"/>
      <point x="327" y="637" type="line"/>
      <point x="287" y="680" type="line"/>
      <point x="196" y="597" type="line"/>
    </contour>
    <contour>
      <point x="164" y="571" type="line"/>
      <point x="171" y="586" type="line"/>
      <point x="189" y="586" type="line"/>
      <point x="197" y="572" type="line"/>
      <point x="190" y="558" type="line"/>
      <point x="173" y="558" type="line"/>
    </contour>
  </outline>
</glyph>
<glyph name="comma" format="1">
  <advance width="214"/>
  <unicode hex="002C"/>
  <outline>
    <contour>
      <point x="22" y="-117" type="line" name="hr00"/>
      <point x="74" y="-147" type="line"/>
      <point x="111" y="-110"/>
      <point x="162" y="-31"/>
      <point x="162" y="57" type="curve" smooth="yes"/>
      <point x="162" y="88"/>
      <point x="153" y="123"/>
      <point x="151" y="133" type="curve"/>
      <point x="46" y="114" type="line"/>
      <point x="72" y="-1" type="line"/>
      <point x="22" y="-103" type="line"/>
    </contour>
  </outline>
</glyph>
<glyph name="period" format="1">
  <advance width="208"/>
  <unicode hex="002E"/>
  <outline>
    <contour>
      <point x="45" y="56" type="curve" smooth="yes" name="hr00"/>
      <point x="45" y="22"/>
      <point x="71" y="-4"/>
      <point x="105" y="-4" type="curve" smooth="yes"/>
      <point x="137" y="-4"/>
      <point x="164" y="23"/>
      <point x="164" y="56" type="curve" smooth="yes"/>
      <point x="164" y="87"/>
      <point x="136" y="114"/>
      <point x="105" y="114" type="curve" smooth="yes"/>
      <point x="71" y="114"/>
      <point x="45" y="88"/>
    </contour>
  </outline>
</glyph>
<glyph name="zero" format="1">
  <advance width="583"/>
  <unicode hex="0030"/>
  <outline>
    <contour>
      <point x="46" y="343" type="curve" smooth="yes" name="hr00"/>
      <point x="46" y="171"/>
      <point x="102" y="-4"/>
      <point x="291" y="-4" type="curve" smooth="yes"/>
      <point x="480" y="-4"/>
      <point x="537" y="171"/>
      <point x="537" y="343" type="curve" smooth="yes"/>
      <point x="537" y="516"/>
      <point x="480" y="690"/>
      <point x="291" y="690" type="curve" smooth="yes"/>
      <point x="102" y="690"/>
      <point x="46" y="516"/>
    </contour>
    <contour>
      <point x="151" y="343" type="curve" smooth="yes"/>
      <point x="151" y="488"/>
      <point x="191" y="604"/>
      <point x="291" y="604" type="curve" smooth="yes"/>
      <point x="391" y="604"/>
      <point x="432" y="488"/>
      <point x="432" y="343" type="curve" smooth="yes"/>
      <point x="432" y="198"/>
      <point x="391" y="82"/>
      <point x="291" y="82" type="curve" smooth="yes"/>
      <point x="192" y="82"/>
      <point x="151" y="198"/>
    </contour>
  </outline>
</glyph>
<glyph name="one" format="1">
  <advance width="362"/>
  <unicode hex="0031"/>
  <outline>
    <contour>
      <point x="41" y="66" type="line" name="hr00"/>
      <point x="52" y="0" type="line"/>
      <point x="347" y="0" type="line"/>
      <point x="347" y="67" type="line"/>
      <point x="254" y="79" type="line"/>
      <point x="254" y="684" type="line"/>
      <point x="234" y="693" type="line"/>
      <point x="25" y="628" type="line"/>
      <point x="40" y="556" type="line"/>
      <point x="154" y="579" type="line"/>
      <point x="154" y="83" type="line"/>
    </contour>
  </outline>
</glyph>
<glyph name="two" format="1">
  <advance width="518"/>
  <unicode hex="0032"/>
  <outline>
    <contour>
      <point x="52" y="0" type="line" name="hr00"/>
      <point x="459" y="0" type="line"/>
      <point x="480" y="193" type="line"/>
      <point x="414" y="193" type="line"/>
      <point x="375" y="86" type="line" name="hr01"/>
      <point x="174" y="86" type="line"/>
      <point x="252" y="173"/>
      <point x="452" y="366"/>
      <point x="452" y="510" type="curve" smooth="yes"/>
      <point x="452" y="640"/>
      <point x="351" y="690"/>
      <point x="244" y="690" type="curve" smooth="yes"/>
      <point x="149" y="690"/>
      <point x="69" y="639"/>
      <point x="22" y="554" type="curve"/>
      <point x="134" y="494" type="line"/>
      <point x="161" y="578" type="line"/>
      <point x="177" y="588"/>
      <point x="204" y="604"/>
      <point x="245" y="604" type="curve" smooth="yes"/>
      <point x="292" y="604"/>
      <point x="347" y="576"/>
      <point x="347" y="507" type="curve" smooth="yes"/>
      <point x="347" y="500" type="line"/>
      <point x="340" y="374"/>
      <point x="120" y="157"/>
      <point x="40" y="69" type="curve"/>
    </contour>
  </outline>
</glyph>
<glyph name="three" format="1">
  <advance width="523"/>
  <unicode hex="0033"/>
  <outline>
    <contour>
      <point x="85" y="144" type="curve" name="hr00"/>
      <point x="32" y="64" type="line"/>
      <point x="77" y="27"/>
      <point x="148" y="-4"/>
      <point x="244" y="-4" type="curve" smooth="yes"/>
      <point x="356" y="-4"/>
      <point x="475" y="57"/>
      <point x="475" y="195" type="curve" smooth="yes"/>
      <point x="475" y="287"/>
      <point x="403" y="338"/>
      <point x="355" y="355" type="curve"/>
      <point x="423" y="379"/>
      <point x="467" y="438"/>
      <point x="467" y="513" type="curve" smooth="yes"/>
      <point x="467" y="632"/>
      <point x="365" y="690"/>
      <point x="267" y="690" type="curve" smooth="yes"/>
      <point x="156" y="690"/>
      <point x="73" y="641"/>
      <point x="27" y="556" type="curve"/>
      <point x="128" y="498" type="line"/>
      <point x="165" y="580" type="line"/>
      <point x="183" y="591"/>
      <point x="213" y="605"/>
      <point x="251" y="605" type="curve" smooth="yes"/>
      <point x="311" y="605"/>
      <point x="362" y="577"/>
      <point x="362" y="507" type="curve" smooth="yes"/>
      <point x="362" y="405"/>
      <point x="276" y="391"/>
      <point x="154" y="391" type="curve"/>
      <point x="154" y="305" type="line"/>
      <point x="205" y="305" type="line" smooth="yes"/>
      <point x="294" y="305"/>
      <point x="370" y="270"/>
      <point x="370" y="189" type="curve" smooth="yes"/>
      <point x="370" y="129"/>
      <point x="328" y="82"/>
      <point x="241" y="82" type="curve" smooth="yes"/>
      <point x="179" y="82"/>
      <point x="129" y="107"/>
    </contour>
  </outline>
</glyph>
<glyph name="four" format="1">
  <advance width="518"/>
  <unicode hex="0034"/>
  <outline>
    <contour>
      <point x="480" y="197" type="line" name="hr00"/>
      <point x="480" y="283" type="line"/>
      <point x="398" y="283" type="line"/>
      <point x="398" y="691" type="line"/>
      <point x="290" y="691" type="line"/>
      <point x="2" y="272" type="line"/>
      <point x="35" y="197" type="line"/>
      <point x="299" y="197" type="line"/>
      <point x="299" y="85" type="line"/>
      <point x="161" y="69" type="line"/>
      <point x="161" y="1" type="line"/>
      <point x="479" y="1" type="line"/>
      <point x="479" y="69" type="line"/>
      <point x="398" y="82" type="line"/>
      <point x="398" y="197" type="line"/>
    </contour>
    <contour>
      <point x="100" y="283" type="line"/>
      <point x="299" y="568" type="line"/>
      <point x="299" y="283" type="line"/>
    </contour>
  </outline>
</glyph>
<glyph name="five" format="1">
  <advance width="502"/>
  <unicode hex="0035"/>
  <outline>
    <contour>
      <point x="111" y="690" type="line" name="hr00"/>
      <point x="79" y="658" type="line"/>
      <point x="79" y="369" type="line"/>
      <point x="97" y="372"/>
      <point x="147" y="375"/>
      <point x="176" y="375" type="curve" smooth="yes"/>
      <point x="274" y="375"/>
      <point x="364" y="344"/>
      <point x="364" y="228" type="curve" smooth="yes"/>
      <point x="364" y="143"/>
      <point x="302" y="82"/>
      <point x="215" y="82" type="curve" smooth="yes"/>
      <point x="154" y="82"/>
      <point x="105" y="107"/>
      <point x="68" y="142" type="curve"/>
      <point x="19" y="65" type="line"/>
      <point x="61" y="27"/>
      <point x="128" y="-4"/>
      <point x="209" y="-4" type="curve" smooth="yes"/>
      <point x="347" y="-4"/>
      <point x="469" y="94"/>
      <point x="469" y="235" type="curve" smooth="yes"/>
      <point x="469" y="386"/>
      <point x="349" y="454"/>
      <point x="235" y="459" type="curve" smooth="yes"/>
      <point x="208" y="460"/>
      <point x="184" y="460"/>
      <point x="174" y="460" type="curve"/>
      <point x="174" y="604" type="line"/>
      <point x="430" y="604" type="line"/>
      <point x="430" y="690" type="line"/>
    </contour>
  </outline>
</glyph>
<glyph name="six" format="1">
  <advance width="557"/>
  <unicode hex="0036"/>
  <outline>
    <contour>
      <point x="315" y="696" type="curve" name="hr00"/>
      <point x="144" y="695"/>
      <point x="43" y="534"/>
      <point x="43" y="339" type="curve" smooth="yes"/>
      <point x="43" y="178"/>
      <point x="111" y="-4"/>
      <point x="299" y="-4" type="curve" smooth="yes"/>
      <point x="431" y="-4"/>
      <point x="518" y="101"/>
      <point x="518" y="220" type="curve" smooth="yes"/>
      <point x="518" y="357"/>
      <point x="425" y="437"/>
      <point x="301" y="437" type="curve" smooth="yes"/>
      <point x="232" y="437"/>
      <point x="180" y="406"/>
      <point x="149" y="372" type="curve"/>
      <point x="158" y="504"/>
      <point x="224" y="610"/>
      <point x="318" y="610" type="curve" smooth="yes"/>
      <point x="337" y="610"/>
      <point x="346" y="608"/>
      <point x="361" y="603" type="curve"/>
      <point x="362" y="603"/>
      <point x="363" y="602"/>
      <point x="364" y="602" type="curve" name="hr01"/>
      <point x="414" y="531" type="line"/>
      <point x="509" y="598" type="line"/>
      <point x="486" y="634"/>
      <point x="425" y="696"/>
    </contour>
    <contour>
      <point x="294" y="352" type="curve" smooth="yes"/>
      <point x="361" y="352"/>
      <point x="413" y="295"/>
      <point x="413" y="217" type="curve" smooth="yes"/>
      <point x="413" y="147"/>
      <point x="376" y="82"/>
      <point x="294" y="82" type="curve" smooth="yes"/>
      <point x="222" y="82"/>
      <point x="183" y="140"/>
      <point x="164" y="210" type="curve"/>
      <point x="167" y="291"/>
      <point x="219" y="352"/>
    </contour>
  </outline>
</glyph>
<glyph name="seven" format="1">
  <advance width="444"/>
  <unicode hex="0037"/>
  <outline>
    <contour>
      <point x="115" y="604" type="line" name="hr00"/>
      <point x="341" y="604" type="line"/>
      <point x="122" y="27" type="line"/>
      <point x="127" y="0" type="line"/>
      <point x="230" y="0" type="line"/>
      <point x="439" y="664" type="line"/>
      <point x="421" y="690" type="line"/>
      <point x="27" y="690" type="line"/>
      <point x="27" y="483" type="line" name="hr01"/>
      <point x="90" y="483" type="line"/>
    </contour>
  </outline>
</glyph>
<glyph name="eight" format="1">
  <advance width="532"/>
  <unicode hex="0038"/>
  <outline>
    <contour>
      <point x="72" y="526" type="curve" smooth="yes" name="hr00"/>
      <point x="72" y="626"/>
      <point x="174" y="696"/>
      <point x="268" y="696" type="curve" smooth="yes"/>
      <point x="364" y="696"/>
      <point x="463" y="634"/>
      <point x="463" y="528" type="curve" smooth="yes"/>
      <point x="463" y="456"/>
      <point x="417" y="414"/>
      <point x="366" y="380" type="curve"/>
      <point x="434" y="341"/>
      <point x="491" y="291"/>
      <point x="491" y="194" type="curve" smooth="yes"/>
      <point x="491" y="74"/>
      <point x="382" y="-5"/>
      <point x="267" y="-5" type="curve" smooth="yes" name="hr01"/>
      <point x="152" y="-5"/>
      <point x="41" y="59"/>
      <point x="41" y="184" type="curve" smooth="yes"/>
      <point x="41" y="270"/>
      <point x="96" y="334"/>
      <point x="163" y="370" type="curve"/>
      <point x="112" y="404"/>
      <point x="72" y="449"/>
    </contour>
    <contour>
      <point x="146" y="187" type="curve" smooth="yes"/>
      <point x="146" y="112"/>
      <point x="217" y="81"/>
      <point x="267" y="81" type="curve" smooth="yes" name="hr02"/>
      <point x="337" y="81"/>
      <point x="386" y="131"/>
      <point x="386" y="186" type="curve" smooth="yes"/>
      <point x="386" y="259"/>
      <point x="317" y="291"/>
      <point x="243" y="327" type="curve" name="hr03"/>
      <point x="188" y="296"/>
      <point x="146" y="253"/>
    </contour>
    <contour>
      <point x="358" y="532" type="curve" smooth="yes"/>
      <point x="358" y="572"/>
      <point x="321" y="610"/>
      <point x="267" y="610" type="curve" smooth="yes"/>
      <point x="215" y="610"/>
      <point x="177" y="575"/>
      <point x="177" y="533" type="curve" smooth="yes" name="hr04"/>
      <point x="177" y="471"/>
      <point x="231" y="447"/>
      <point x="284" y="422" type="curve"/>
      <point x="326" y="448"/>
      <point x="358" y="478"/>
    </contour>
  </outline>
</glyph>
<glyph name="nine" format="1">
  <advance width="543"/>
  <unicode hex="0039"/>
  <outline>
    <contour>
      <point x="243" y="82" type="curve" smooth="yes" name="hr00"/>
      <point x="194" y="82"/>
      <point x="149" y="99"/>
      <point x="98" y="143" type="curve"/>
      <point x="42" y="65" type="line"/>
      <point x="73" y="41"/>
      <point x="140" y="-4"/>
      <point x="249" y="-4" type="curve" smooth="yes"/>
      <point x="417" y="-4"/>
      <point x="498" y="159"/>
      <point x="498" y="338" type="curve" smooth="yes"/>
      <point x="498" y="509"/>
      <point x="444" y="694"/>
      <point x="268" y="694" type="curve" smooth="yes"/>
      <point x="120" y="694"/>
      <point x="43" y="584"/>
      <point x="43" y="458" type="curve" smooth="yes"/>
      <point x="43" y="320"/>
      <point x="135" y="245"/>
      <point x="255" y="245" type="curve" smooth="yes"/>
      <point x="293" y="245"/>
      <point x="351" y="262"/>
      <point x="391" y="300" type="curve"/>
      <point x="383" y="173"/>
      <point x="339" y="82"/>
    </contour>
    <contour>
      <point x="263" y="331" type="curve" smooth="yes"/>
      <point x="202" y="331"/>
      <point x="148" y="373"/>
      <point x="148" y="467" type="curve" smooth="yes"/>
      <point x="148" y="559"/>
      <point x="196" y="608"/>
      <point x="261" y="608" type="curve" smooth="yes"/>
      <point x="336" y="608"/>
      <point x="372" y="534"/>
      <point x="385" y="447" type="curve"/>
      <point x="380" y="373"/>
      <point x="316" y="331"/>
    </contour>
  </outline>
</glyph>
<glyph name="colon" format="1">
  <advance width="235"/>
  <unicode hex="003A"/>
  <outline>
    <contour>
      <point x="58" y="432" type="curve" smooth="yes" name="hr00"/>
      <point x="58" y="399"/>
      <point x="84" y="372"/>
      <point x="118" y="372" type="curve" smooth="yes"/>
      <point x="150" y="372"/>
      <point x="177" y="398"/>
      <point x="177" y="432" type="curve" smooth="yes"/>
      <point x="177" y="463"/>
      <point x="150" y="491"/>
      <point x="118" y="491" type="curve" smooth="yes"/>
      <point x="85" y="491"/>
      <point x="58" y="464"/>
    </contour>
    <contour>
      <point x="58" y="196" type="curve" smooth="yes"/>
      <point x="58" y="162"/>
      <point x="85" y="136"/>
      <point x="118" y="136" type="curve" smooth="yes"/>
      <point x="150" y="136"/>
      <point x="177" y="163"/>
      <point x="177" y="196" type="curve" smooth="yes"/>
      <point x="177" y="227"/>
      <point x="150" y="254"/>
      <point x="118" y="254" type="curve" smooth="yes"/>
      <point x="85" y="254"/>
      <point x="58" y="228"/>
    </contour>
  </outline>
</glyph>
<glyph name="semicolon" format="1">
  <advance width="244"/>
  <unicode hex="003B"/>
  <outline>
    <contour>
      <point x="57" y="332" type="curve" smooth="yes" name="hr00"/>
      <point x="57" y="299"/>
      <point x="83" y="272"/>
      <point x="117" y="272" type="curve" smooth="yes"/>
      <point x="149" y="272"/>
      <point x="176" y="298"/>
      <point x="176" y="332" type="curve" smooth="yes"/>
      <point x="176" y="363"/>
      <point x="149" y="391"/>
      <point x="117" y="391" type="curve" smooth="yes"/>
      <point x="84" y="391"/>
      <point x="57" y="364"/>
    </contour>
    <contour>
      <point x="44" y="-117" type="line"/>
      <point x="96" y="-147" type="line"/>
      <point x="133" y="-110"/>
      <point x="184" y="-31"/>
      <point x="184" y="57" type="curve" smooth="yes"/>
      <point x="184" y="88"/>
      <point x="175" y="123"/>
      <point x="173" y="133" type="curve"/>
      <point x="68" y="114" type="line"/>
      <point x="94" y="-1" type="line"/>
      <point x="44" y="-103" type="line"/>
    </contour>
  </outline>
</glyph>
<glyph name="less" format="1">
  <advance width="423"/>
  <unicode hex="003C"/>
  <outline>
    <contour>
      <point x="356" y="478" type="line" name="hr00"/>
      <point x="356" y="572" type="line"/>
      <point x="29" y="374" type="line"/>
      <point x="29" y="306" type="line"/>
      <point x="356" y="104" type="line"/>
      <point x="356" y="201" type="line"/>
      <point x="125" y="339" type="line"/>
    </contour>
  </outline>
</glyph>
<glyph name="equal" format="1">
  <advance width="451"/>
  <unicode hex="003D"/>
  <outline>
    <contour>
      <point x="61" y="308" type="line" name="hr00"/>
      <point x="61" y="232" type="line"/>
      <point x="390" y="232" type="line"/>
      <point x="390" y="308" type="line"/>
    </contour>
    <contour>
      <point x="61" y="434" type="line"/>
      <point x="61" y="358" type="line"/>
      <point x="390" y="358" type="line"/>
      <point x="390" y="434" type="line"/>
    </contour>
  </outline>
</glyph>
<glyph name="greater" format="1">
  <advance width="423"/>
  <unicode hex="003E"/>
  <outline>
    <contour>
      <point x="67" y="572" type="line" name="hr00"/>
      <point x="67" y="478" type="line"/>
      <point x="298" y="339" type="line"/>
      <point x="67" y="201" type="line"/>
      <point x="67" y="104" type="line"/>
      <point x="394" y="306" type="line"/>
      <point x="394" y="374" type="line"/>
    </contour>
  </outline>
</glyph>
<glyph name="question" format="1">
  <advance width="408"/>
  <unicode hex="003F"/>
  <outline>
    <contour>
      <point x="94" y="56" type="curve" smooth="yes" name="hr00"/>
      <point x="94" y="23"/>
      <point x="119" y="-4"/>
      <point x="154" y="-4" type="curve" smooth="yes"/>
      <point x="185" y="-4"/>
      <point x="213" y="23"/>
      <point x="213" y="56" type="curve" smooth="yes"/>
      <point x="213" y="87"/>
      <point x="185" y="114"/>
      <point x="154" y="114" type="curve" smooth="yes"/>
      <point x="120" y="114"/>
      <point x="94" y="88"/>
    </contour>
    <contour>
      <point x="111" y="236" type="line"/>
      <point x="137" y="236"/>
      <point x="163" y="237"/>
      <point x="190" y="237" type="curve"/>
      <point x="190" y="261"/>
      <point x="192" y="305"/>
      <point x="241" y="340" type="curve" smooth="yes"/>
      <point x="278" y="366" type="line" smooth="yes"/>
      <point x="330" y="403"/>
      <point x="379" y="454"/>
      <point x="379" y="540" type="curve" smooth="yes"/>
      <point x="379" y="619"/>
      <point x="323" y="691"/>
      <point x="201" y="691" type="curve" smooth="yes"/>
      <point x="146" y="691"/>
      <point x="97" y="676"/>
      <point x="56" y="661" type="curve"/>
      <point x="39" y="502" type="line"/>
      <point x="100" y="502" type="line"/>
      <point x="127" y="598" type="line"/>
      <point x="139" y="603"/>
      <point x="172" y="607"/>
      <point x="190" y="607" type="curve" smooth="yes" name="hr01"/>
      <point x="245" y="607"/>
      <point x="275" y="572"/>
      <point x="275" y="532" type="curve" smooth="yes"/>
      <point x="275" y="413"/>
      <point x="105" y="412"/>
      <point x="105" y="288" type="curve" smooth="yes"/>
      <point x="105" y="272"/>
      <point x="106" y="255"/>
      <point x="109" y="246" type="curve"/>
    </contour>
  </outline>
</glyph>
<glyph name="at" format="1">
  <advance width="831"/>
  <unicode hex="0040"/>
  <outline>
    <contour>
      <point x="604" y="48" type="curve" smooth="yes" name="hr00"/>
      <point x="722" y="48"/>
      <point x="797" y="168"/>
      <point x="797" y="299" type="curve" smooth="yes"/>
      <point x="797" y="503"/>
      <point x="637" y="653"/>
      <point x="427" y="653" type="curve" smooth="yes"/>
      <point x="217" y="653"/>
      <point x="31" y="510"/>
      <point x="31" y="270" type="curve" smooth="yes"/>
      <point x="31" y="17"/>
      <point x="200" y="-133"/>
      <point x="423" y="-133" type="curve" smooth="yes"/>
      <point x="463" y="-133"/>
      <point x="511" y="-129"/>
      <point x="545" y="-118" type="curve"/>
      <point x="573" y="-32" type="line"/>
      <point x="555" y="-28" type="line"/>
      <point x="522" y="-41"/>
      <point x="471" y="-47"/>
      <point x="432" y="-47" type="curve" smooth="yes"/>
      <point x="262" y="-47"/>
      <point x="126" y="56"/>
      <point x="126" y="268" type="curve" smooth="yes"/>
      <point x="126" y="443"/>
      <point x="253" y="568"/>
      <point x="428" y="568" type="curve" smooth="yes"/>
      <point x="598" y="568"/>
      <point x="703" y="456"/>
      <point x="703" y="300" type="curve" smooth="yes"/>
      <point x="703" y="199"/>
      <point x="655" y="131"/>
      <point x="614" y="131" type="curve" smooth="yes"/>
      <point x="599" y="131"/>
      <point x="587" y="136"/>
      <point x="587" y="164" type="curve" smooth="yes"/>
      <point x="587" y="450" type="line"/>
      <point x="560" y="459" type="line"/>
      <point x="524" y="445" type="line"/>
      <point x="496" y="458"/>
      <point x="462" y="467"/>
      <point x="425" y="467" type="curve" smooth="yes"/>
      <point x="347" y="467"/>
      <point x="218" y="423"/>
      <point x="218" y="254" type="curve" smooth="yes"/>
      <point x="218" y="115"/>
      <point x="312" y="48"/>
      <point x="411" y="48" type="curve" smooth="yes"/>
      <point x="457" y="48"/>
      <point x="497" y="64"/>
      <point x="519" y="79" type="curve"/>
      <point x="535" y="60"/>
      <point x="561" y="48"/>
    </contour>
    <contour>
      <point x="494" y="145" type="curve"/>
      <point x="478" y="132"/>
      <point x="456" y="122"/>
      <point x="427" y="122" type="curve" smooth="yes"/>
      <point x="371" y="122"/>
      <point x="314" y="157"/>
      <point x="314" y="258" type="curve" smooth="yes"/>
      <point x="314" y="354"/>
      <point x="368" y="394"/>
      <point x="430" y="394" type="curve" smooth="yes"/>
      <point x="455" y="394"/>
      <point x="477" y="387"/>
      <point x="493" y="379" type="curve"/>
      <point x="493" y="184" type="line" smooth="yes"/>
      <point x="493" y="171"/>
      <point x="493" y="158"/>
    </contour>
  </outline>
</glyph>
<glyph name="A" format="1">
  <advance width="608"/>
  <unicode hex="0041"/>
  <outline>
    <contour>
      <point x="12" y="0" type="line" name="hr00"/>
      <point x="228" y="0" type="line"/>
      <point x="228" y="60" type="line"/>
      <point x="142" y="80" type="line"/>
      <point x="188" y="228" type="line"/>
      <point x="402" y="228" type="line"/>
      <point x="450" y="80" type="line"/>
      <point x="362" y="59" type="line"/>
      <point x="362" y="0" type="line"/>
      <point x="597" y="0" type="line"/>
      <point x="608" y="62" type="line"/>
      <point x="562" y="80" type="line"/>
      <point x="349" y="691" type="line"/>
      <point x="253" y="691" type="line"/>
      <point x="51" y="80" type="line"/>
      <point x="-1" y="62" type="line"/>
    </contour>
    <contour>
      <point x="292" y="565" type="line"/>
      <point x="374" y="314" type="line"/>
      <point x="214" y="314" type="line"/>
    </contour>
  </outline>
</glyph>
<glyph name="B" format="1">
  <advance width="577"/>
  <unicode hex="0042"/>
  <outline>
    <contour>
      <point x="59" y="0" type="line" name="hr00"/>
      <point x="298" y="0" type="line" smooth="yes"/>
      <point x="411" y="0"/>
      <point x="538" y="40"/>
      <point x="538" y="197" type="curve" smooth="yes"/>
      <point x="538" y="287"/>
      <point x="473" y="341"/>
      <point x="407" y="354" type="curve"/>
      <point x="460" y="371"/>
      <point x="510" y="430"/>
      <point x="510" y="510" type="curve" smooth="yes" name="hr01"/>
      <point x="510" y="616"/>
      <point x="424" y="691"/>
      <point x="277" y="691" type="curve"/>
      <point x="46" y="691" type="line"/>
      <point x="46" y="616" type="line"/>
      <point x="110" y="610" type="line"/>
      <point x="110" y="84" type="line"/>
      <point x="49" y="70" type="line"/>
    </contour>
    <contour>
      <point x="405" y="500" type="curve" smooth="yes"/>
      <point x="405" y="424"/>
      <point x="356" y="390"/>
      <point x="254" y="390" type="curve"/>
      <point x="210" y="390" type="line"/>
      <point x="210" y="605" type="line"/>
      <point x="271" y="605" type="line" smooth="yes"/>
      <point x="353" y="605"/>
      <point x="405" y="573"/>
    </contour>
    <contour>
      <point x="210" y="304" type="line"/>
      <point x="286" y="304" type="line" smooth="yes"/>
      <point x="359" y="304"/>
      <point x="433" y="281"/>
      <point x="433" y="197" type="curve" smooth="yes" name="hr02"/>
      <point x="433" y="108"/>
      <point x="355" y="86"/>
      <point x="288" y="86" type="curve" smooth="yes"/>
      <point x="210" y="86" type="line"/>
    </contour>
  </outline>
</glyph>
<glyph name="C" format="1">
  <advance width="582"/>
  <unicode hex="0043"/>
  <outline>
    <contour>
      <point x="139" y="348" type="curve" name="hr00"/>
      <point x="140" y="485"/>
      <point x="227" y="605"/>
      <point x="375" y="605" type="curve" smooth="yes"/>
      <point x="402" y="605"/>
      <point x="421" y="602"/>
      <point x="432" y="598" type="curve"/>
      <point x="471" y="490" type="line" name="hr01"/>
      <point x="539" y="490" type="line"/>
      <point x="520" y="672" type="line"/>
      <point x="491" y="679"/>
      <point x="442" y="691"/>
      <point x="372" y="691" type="curve" smooth="yes"/>
      <point x="193" y="691"/>
      <point x="34" y="569"/>
      <point x="34" y="338" type="curve" smooth="yes"/>
      <point x="34" y="118"/>
      <point x="204" y="-4"/>
      <point x="377" y="-4" type="curve" smooth="yes"/>
      <point x="439" y="-4"/>
      <point x="508" y="8"/>
      <point x="554" y="41" type="curve"/>
      <point x="525" y="120" type="line"/>
      <point x="504" y="104"/>
      <point x="451" y="82"/>
      <point x="394" y="82" type="curve" smooth="yes"/>
      <point x="238" y="82"/>
      <point x="139" y="196"/>
    </contour>
  </outline>
</glyph>
<glyph name="D" format="1">
  <advance width="633"/>
  <unicode hex="0044"/>
  <outline>
    <contour>
      <point x="492" y="351" type="curve" smooth="yes" name="hr00"/>
      <point x="492" y="179"/>
      <point x="403" y="85"/>
      <point x="217" y="85" type="curve" smooth="yes"/>
      <point x="214" y="85"/>
      <point x="212" y="86"/>
      <point x="209" y="86" type="curve"/>
      <point x="209" y="605" type="line"/>
      <point x="217" y="605"/>
      <point x="225" y="606"/>
      <point x="233" y="606" type="curve" smooth="yes"/>
      <point x="387" y="606"/>
      <point x="492" y="513"/>
    </contour>
    <contour>
      <point x="49" y="71" type="line"/>
      <point x="59" y="0" type="line"/>
      <point x="243" y="0" type="line" smooth="yes"/>
      <point x="462" y="0"/>
      <point x="597" y="130"/>
      <point x="597" y="350" type="curve" smooth="yes"/>
      <point x="597" y="574"/>
      <point x="453" y="691"/>
      <point x="239" y="691" type="curve" smooth="yes"/>
      <point x="50" y="691" type="line"/>
      <point x="50" y="617" type="line"/>
      <point x="110" y="611" type="line"/>
      <point x="110" y="85" type="line"/>
    </contour>
  </outline>
</glyph>
<glyph name="E" format="1">
  <advance width="539"/>
  <unicode hex="0045"/>
  <outline>
    <contour>
      <point x="49" y="616" type="line" name="hr00"/>
      <point x="109" y="611" type="line"/>
      <point x="109" y="84" type="line"/>
      <point x="48" y="71" type="line"/>
      <point x="58" y="0" type="line"/>
      <point x="482" y="0" type="line"/>
      <point x="502" y="187" type="line" name="hr01"/>
      <point x="439" y="187" type="line"/>
      <point x="404" y="86" type="line" name="hr02"/>
      <point x="208" y="86" type="line"/>
      <point x="208" y="309" type="line"/>
      <point x="366" y="309" type="line"/>
      <point x="366" y="395" type="line"/>
      <point x="208" y="395" type="line"/>
      <point x="208" y="605" type="line"/>
      <point x="394" y="605" type="line"/>
      <point x="432" y="503" type="line" name="hr03"/>
      <point x="495" y="503" type="line"/>
      <point x="475" y="691" type="line"/>
      <point x="49" y="691" type="line"/>
    </contour>
  </outline>
</glyph>
<glyph name="F" format="1">
  <advance width="511"/>
  <unicode hex="0046"/>
  <outline>
    <contour>
      <point x="364" y="0" type="line" name="hr00"/>
      <point x="370" y="65" type="line"/>
      <point x="208" y="88" type="line"/>
      <point x="208" y="309" type="line"/>
      <point x="366" y="309" type="line"/>
      <point x="366" y="395" type="line"/>
      <point x="208" y="395" type="line"/>
      <point x="208" y="605" type="line"/>
      <point x="394" y="605" type="line"/>
      <point x="434" y="503" type="line" name="hr01"/>
      <point x="496" y="503" type="line"/>
      <point x="475" y="691" type="line"/>
      <point x="49" y="691" type="line"/>
      <point x="49" y="616" type="line"/>
      <point x="109" y="611" type="line"/>
      <point x="109" y="84" type="line"/>
      <point x="48" y="71" type="line"/>
      <point x="58" y="0" type="line"/>
    </contour>
  </outline>
</glyph>
<glyph name="G" format="1">
  <advance width="615"/>
  <unicode hex="0047"/>
  <outline>
    <contour>
      <point x="559" y="318" type="line" name="hr00"/>
      <point x="364" y="318" type="line"/>
      <point x="346" y="247" type="line"/>
      <point x="460" y="233" type="line"/>
      <point x="460" y="184"/>
      <point x="459" y="135"/>
      <point x="459" y="86" type="curve"/>
      <point x="446" y="84"/>
      <point x="427" y="82"/>
      <point x="405" y="82" type="curve" smooth="yes"/>
      <point x="241" y="82"/>
      <point x="138" y="185"/>
      <point x="138" y="340" type="curve" smooth="yes"/>
      <point x="138" y="492"/>
      <point x="238" y="605"/>
      <point x="378" y="605" type="curve" smooth="yes"/>
      <point x="407" y="605"/>
      <point x="427" y="602"/>
      <point x="443" y="600" type="curve"/>
      <point x="479" y="489" type="line" name="hr01"/>
      <point x="552" y="489" type="line"/>
      <point x="537" y="670" type="line"/>
      <point x="506" y="678"/>
      <point x="445" y="691"/>
      <point x="381" y="691" type="curve" smooth="yes"/>
      <point x="177" y="691"/>
      <point x="33" y="552"/>
      <point x="33" y="337" type="curve" smooth="yes"/>
      <point x="33" y="122"/>
      <point x="190" y="-4"/>
      <point x="394" y="-4" type="curve" smooth="yes"/>
      <point x="455" y="-4"/>
      <point x="516" y="3"/>
      <point x="559" y="14" type="curve"/>
    </contour>
  </outline>
</glyph>
<glyph name="H" format="1">
  <advance width="672"/>
  <unicode hex="0048"/>
  <outline>
    <contour>
      <point x="109" y="83" type="line" name="hr00"/>
      <point x="49" y="72" type="line"/>
      <point x="59" y="0" type="line"/>
      <point x="270" y="0" type="line"/>
      <point x="270" y="73" type="line"/>
      <point x="209" y="81" type="line"/>
      <point x="209" y="313" type="line"/>
      <point x="463" y="313" type="line"/>
      <point x="463" y="83" type="line"/>
      <point x="406" y="72" type="line"/>
      <point x="416" y="0" type="line"/>
      <point x="623" y="0" type="line"/>
      <point x="623" y="73" type="line"/>
      <point x="563" y="81" type="line"/>
      <point x="563" y="606" type="line"/>
      <point x="623" y="616" type="line"/>
      <point x="613" y="691" type="line"/>
      <point x="406" y="691" type="line"/>
      <point x="406" y="615" type="line"/>
      <point x="463" y="610" type="line"/>
      <point x="463" y="399" type="line"/>
      <point x="209" y="399" type="line"/>
      <point x="209" y="606" type="line"/>
      <point x="269" y="616" type="line"/>
      <point x="259" y="691" type="line"/>
      <point x="49" y="691" type="line"/>
      <point x="49" y="615" type="line"/>
      <point x="109" y="610" type="line"/>
    </contour>
  </outline>
</glyph>
<glyph name="I" format="1">
  <advance width="319"/>
  <unicode hex="0049"/>
  <outline>
    <contour>
      <point x="109" y="83" type="line" name="hr00"/>
      <point x="46" y="72" type="line"/>
      <point x="55" y="0" type="line"/>
      <point x="274" y="0" type="line"/>
      <point x="274" y="73" type="line"/>
      <point x="209" y="81" type="line"/>
      <point x="209" y="606" type="line"/>
      <point x="274" y="616" type="line"/>
      <point x="264" y="691" type="line"/>
      <point x="46" y="691" type="line"/>
      <point x="46" y="615" type="line"/>
      <point x="109" y="610" type="line"/>
    </contour>
  </outline>
</glyph>
<glyph name="J" format="1">
  <advance width="367"/>
  <unicode hex="004A"/>
  <outline>
    <contour>
      <point x="94" y="616" type="line" name="hr00"/>
      <point x="171" y="606" type="line"/>
      <point x="171" y="140" type="line" smooth="yes"/>
      <point x="171" y="85"/>
      <point x="146" y="85"/>
      <point x="134" y="85" type="curve" smooth="yes"/>
      <point x="107" y="85"/>
      <point x="78" y="110"/>
      <point x="61" y="126" type="curve"/>
      <point x="8" y="47" type="line"/>
      <point x="39" y="18"/>
      <point x="82" y="-4"/>
      <point x="131" y="-4" type="curve" smooth="yes"/>
      <point x="176" y="-4"/>
      <point x="271" y="12"/>
      <point x="271" y="149" type="curve" smooth="yes"/>
      <point x="271" y="610" type="line"/>
      <point x="333" y="615" type="line"/>
      <point x="333" y="691" type="line"/>
      <point x="104" y="691" type="line"/>
    </contour>
  </outline>
</glyph>
<glyph name="K" format="1">
  <advance width="613"/>
  <unicode hex="004B"/>
  <outline>
    <contour>
      <point x="540" y="81" type="line" name="hr00"/>
      <point x="367" y="380" type="line"/>
      <point x="559" y="611" type="line"/>
      <point x="592" y="618" type="line"/>
      <point x="592" y="691" type="line"/>
      <point x="371" y="691" type="line"/>
      <point x="371" y="619" type="line"/>
      <point x="442" y="608" type="line"/>
      <point x="209" y="324" type="line"/>
      <point x="209" y="606" type="line"/>
      <point x="269" y="617" type="line"/>
      <point x="260" y="691" type="line"/>
      <point x="46" y="691" type="line"/>
      <point x="46" y="614" type="line"/>
      <point x="109" y="610" type="line"/>
      <point x="109" y="83" type="line"/>
      <point x="46" y="72" type="line"/>
      <point x="55" y="0" type="line"/>
      <point x="270" y="0" type="line"/>
      <point x="270" y="73" type="line"/>
      <point x="209" y="81" type="line"/>
      <point x="209" y="190" type="line"/>
      <point x="298" y="297" type="line"/>
      <point x="456" y="0" type="line"/>
      <point x="595" y="0" type="line"/>
      <point x="595" y="71" type="line"/>
    </contour>
  </outline>
</glyph>
<glyph name="L" format="1">
  <advance width="511"/>
  <unicode hex="004C"/>
  <outline>
    <contour>
      <point x="49" y="616" type="line" name="hr00"/>
      <point x="109" y="611" type="line"/>
      <point x="109" y="82" type="line"/>
      <point x="48" y="71" type="line"/>
      <point x="58" y="0" type="line"/>
      <point x="482" y="0" type="line"/>
      <point x="502" y="187" type="line" name="hr01"/>
      <point x="439" y="187" type="line"/>
      <point x="404" y="86" type="line" name="hr02"/>
      <point x="208" y="86" type="line"/>
      <point x="208" y="606" type="line"/>
      <point x="273" y="617" type="line"/>
      <point x="264" y="691" type="line"/>
      <point x="49" y="691" type="line"/>
    </contour>
  </outline>
</glyph>
<glyph name="M" format="1">
  <advance width="854"/>
  <unicode hex="004D"/>
  <outline>
    <contour>
      <point x="264" y="691" type="line" name="hr00"/>
      <point x="58" y="691" type="line"/>
      <point x="58" y="614" type="line"/>
      <point x="108" y="609" type="line"/>
      <point x="108" y="84" type="line"/>
      <point x="45" y="71" type="line"/>
      <point x="57" y="0" type="line"/>
      <point x="250" y="0" type="line"/>
      <point x="250" y="71" type="line"/>
      <point x="191" y="82" type="line"/>
      <point x="191" y="604" type="line"/>
      <point x="362" y="15" type="line"/>
      <point x="477" y="15" type="line"/>
      <point x="654" y="599" type="line"/>
      <point x="654" y="85" type="line"/>
      <point x="596" y="72" type="line"/>
      <point x="604" y="0" type="line"/>
      <point x="798" y="0" type="line"/>
      <point x="802" y="70" type="line"/>
      <point x="789" y="73"/>
      <point x="779" y="76"/>
      <point x="747" y="81" type="curve"/>
      <point x="747" y="606" type="line"/>
      <point x="799" y="614" type="line"/>
      <point x="789" y="691" type="line"/>
      <point x="594" y="691" type="line"/>
      <point x="426" y="131" type="line"/>
    </contour>
  </outline>
</glyph>
<glyph name="N" format="1">
  <advance width="696"/>
  <unicode hex="004E"/>
  <outline>
    <contour>
      <point x="447" y="0" type="line" name="hr00"/>
      <point x="595" y="0" type="line"/>
      <point x="595" y="604" type="line"/>
      <point x="659" y="616" type="line"/>
      <point x="646" y="691" type="line"/>
      <point x="449" y="691" type="line"/>
      <point x="449" y="617" type="line"/>
      <point x="511" y="609" type="line"/>
      <point x="511" y="96" type="line"/>
      <point x="259" y="691" type="line"/>
      <point x="50" y="691" type="line"/>
      <point x="50" y="615" type="line"/>
      <point x="110" y="609" type="line"/>
      <point x="110" y="84" type="line"/>
      <point x="47" y="71" type="line"/>
      <point x="59" y="0" type="line"/>
      <point x="253" y="0" type="line"/>
      <point x="253" y="71" type="line"/>
      <point x="196" y="81" type="line"/>
      <point x="194" y="92"/>
      <point x="194" y="112"/>
      <point x="194" y="596" type="curve"/>
    </contour>
  </outline>
</glyph>
<glyph name="O" format="1">
  <advance width="651"/>
  <unicode hex="004F"/>
  <outline>
    <contour>
      <point x="148" y="342" type="curve" smooth="yes" name="hr00"/>
      <point x="148" y="479"/>
      <point x="205" y="606"/>
      <point x="325" y="606" type="curve" smooth="yes"/>
      <point x="446" y="606"/>
      <point x="504" y="479"/>
      <point x="504" y="342" type="curve" smooth="yes"/>
      <point x="504" y="206"/>
      <point x="446" y="82"/>
      <point x="325" y="82" type="curve" smooth="yes"/>
      <point x="205" y="82"/>
      <point x="148" y="206"/>
    </contour>
    <contour>
      <point x="325" y="-4" type="curve" smooth="yes"/>
      <point x="514" y="-4"/>
      <point x="609" y="157"/>
      <point x="609" y="344" type="curve" smooth="yes"/>
      <point x="609" y="530"/>
      <point x="514" y="692"/>
      <point x="325" y="692" type="curve" smooth="yes"/>
      <point x="136" y="692"/>
      <point x="43" y="530"/>
      <point x="43" y="344" type="curve" smooth="yes"/>
      <point x="43" y="157"/>
      <point x="136" y="-4"/>
    </contour>
  </outline>
</glyph>
<glyph name="P" format="1">
  <advance width="553"/>
  <unicode hex="0050"/>
  <outline>
    <contour>
      <point x="46" y="70" type="line" name="hr00"/>
      <point x="56" y="0" type="line"/>
      <point x="352" y="0" type="line"/>
      <point x="355" y="67" type="line"/>
      <point x="313" y="73"/>
      <point x="237" y="82"/>
      <point x="210" y="87" type="curve"/>
      <point x="210" y="244" type="line"/>
      <point x="256" y="244" type="line" smooth="yes"/>
      <point x="414" y="244"/>
      <point x="532" y="306"/>
      <point x="532" y="470" type="curve" smooth="yes"/>
      <point x="532" y="596"/>
      <point x="452" y="691"/>
      <point x="258" y="691" type="curve" smooth="yes"/>
      <point x="47" y="691" type="line"/>
      <point x="47" y="615" type="line"/>
      <point x="110" y="610" type="line"/>
      <point x="110" y="84" type="line"/>
    </contour>
    <contour>
      <point x="210" y="330" type="line"/>
      <point x="210" y="605" type="line"/>
      <point x="245" y="605" type="line" smooth="yes"/>
      <point x="363" y="605"/>
      <point x="427" y="561"/>
      <point x="427" y="471" type="curve" smooth="yes"/>
      <point x="427" y="397"/>
      <point x="382" y="330"/>
      <point x="252" y="330" type="curve" smooth="yes"/>
    </contour>
  </outline>
</glyph>
<glyph name="R" format="1">
  <advance width="584"/>
  <unicode hex="0052"/>
  <outline>
    <contour>
      <point x="46" y="70" type="line" name="hr00"/>
      <point x="56" y="0" type="line"/>
      <point x="289" y="0" type="line"/>
      <point x="289" y="69" type="line"/>
      <point x="210" y="83" type="line"/>
      <point x="210" y="253" type="line"/>
      <point x="256" y="253" type="line" smooth="yes"/>
      <point x="273" y="253"/>
      <point x="289" y="254"/>
      <point x="305" y="256" type="curve"/>
      <point x="417" y="0" type="line"/>
      <point x="556" y="0" type="line"/>
      <point x="556" y="69" type="line"/>
      <point x="499" y="81" type="line"/>
      <point x="402" y="280" type="line"/>
      <point x="481" y="313"/>
      <point x="532" y="378"/>
      <point x="532" y="470" type="curve" smooth="yes"/>
      <point x="532" y="596"/>
      <point x="452" y="691"/>
      <point x="258" y="691" type="curve" smooth="yes"/>
      <point x="47" y="691" type="line"/>
      <point x="47" y="615" type="line"/>
      <point x="110" y="610" type="line"/>
      <point x="110" y="84" type="line"/>
    </contour>
    <contour>
      <point x="210" y="339" type="line"/>
      <point x="210" y="605" type="line"/>
      <point x="245" y="605" type="line" smooth="yes"/>
      <point x="363" y="605"/>
      <point x="427" y="561"/>
      <point x="427" y="471" type="curve" smooth="yes"/>
      <point x="427" y="408"/>
      <point x="382" y="339"/>
      <point x="252" y="339" type="curve" smooth="yes"/>
    </contour>
  </outline>
</glyph>
<glyph name="S" format="1">
  <advance width="507"/>
  <unicode hex="0053"/>
  <outline>
    <contour>
      <point x="129" y="203" type="line" name="hr00"/>
      <point x="59" y="203" type="line"/>
      <point x="52" y="34" type="line"/>
      <point x="100" y="10"/>
      <point x="169" y="-4"/>
      <point x="236" y="-4" type="curve" smooth="yes"/>
      <point x="352" y="-4"/>
      <point x="466" y="52"/>
      <point x="466" y="195" type="curve" smooth="yes"/>
      <point x="466" y="275"/>
      <point x="425" y="336"/>
      <point x="304" y="390" type="curve" smooth="yes"/>
      <point x="235" y="421"/>
      <point x="152" y="447"/>
      <point x="152" y="522" type="curve" smooth="yes"/>
      <point x="152" y="579"/>
      <point x="199" y="607"/>
      <point x="265" y="607" type="curve" smooth="yes"/>
      <point x="291" y="607"/>
      <point x="316" y="604"/>
      <point x="336" y="597" type="curve"/>
      <point x="380" y="489" type="line" name="hr01"/>
      <point x="449" y="489" type="line"/>
      <point x="435" y="661" type="line"/>
      <point x="384" y="679"/>
      <point x="330" y="691"/>
      <point x="266" y="691" type="curve" smooth="yes"/>
      <point x="148" y="691"/>
      <point x="47" y="622"/>
      <point x="47" y="513" type="curve" smooth="yes"/>
      <point x="47" y="365"/>
      <point x="174" y="340"/>
      <point x="280" y="288" type="curve" smooth="yes"/>
      <point x="340" y="258"/>
      <point x="362" y="227"/>
      <point x="362" y="182" type="curve" smooth="yes"/>
      <point x="362" y="111"/>
      <point x="299" y="80"/>
      <point x="233" y="80" type="curve" smooth="yes" name="hr02"/>
      <point x="200" y="80"/>
      <point x="168" y="88"/>
      <point x="147" y="96" type="curve"/>
    </contour>
  </outline>
</glyph>
<glyph name="T" format="1">
  <advance width="580"/>
  <unicode hex="0054"/>
  <outline>
    <contour>
      <point x="138" y="0" type="line" name="hr00"/>
      <point x="446" y="0" type="line"/>
      <point x="455" y="66" type="line"/>
      <point x="339" y="86" type="line"/>
      <point x="339" y="605" type="line"/>
      <point x="464" y="605" type="line"/>
      <point x="506" y="506" type="line" name="hr01"/>
      <point x="567" y="506" type="line"/>
      <point x="545" y="691" type="line"/>
      <point x="35" y="691" type="line"/>
      <point x="14" y="506" type="line"/>
      <point x="75" y="506" type="line"/>
      <point x="116" y="605" type="line" name="hr02"/>
      <point x="239" y="605" type="line"/>
      <point x="239" y="86" type="line"/>
      <point x="125" y="66" type="line"/>
    </contour>
  </outline>
</glyph>
<glyph name="U" format="1">
  <advance width="647"/>
  <unicode hex="0055"/>
  <outline>
    <contour>
      <point x="411" y="618" type="line" name="hr00"/>
      <point x="472" y="609" type="line" name="hr01"/>
      <point x="472" y="234" type="line" smooth="yes"/>
      <point x="472" y="119"/>
      <point x="402" y="82"/>
      <point x="334" y="82" type="curve" smooth="yes"/>
      <point x="239" y="82"/>
      <point x="192" y="139"/>
      <point x="192" y="233" type="curve" smooth="yes"/>
      <point x="192" y="608" type="line"/>
      <point x="261" y="617" type="line"/>
      <point x="261" y="691" type="line"/>
      <point x="30" y="691" type="line"/>
      <point x="30" y="616" type="line"/>
      <point x="92" y="610" type="line"/>
      <point x="92" y="230" type="line" smooth="yes"/>
      <point x="92" y="83"/>
      <point x="178" y="-4"/>
      <point x="331" y="-4" type="curve" smooth="yes"/>
      <point x="446" y="-4"/>
      <point x="556" y="67"/>
      <point x="556" y="230" type="curve" smooth="yes"/>
      <point x="556" y="607" type="line"/>
      <point x="613" y="617" type="line" name="hr02"/>
      <point x="613" y="691" type="line"/>
      <point x="411" y="691" type="line"/>
    </contour>
  </outline>
</glyph>
<glyph name="V" format="1">
  <advance width="579"/>
  <unicode hex="0056"/>
  <outline>
    <contour>
      <point x="575" y="691" type="line" name="hr00"/>
      <point x="356" y="691" type="line"/>
      <point x="356" y="629" type="line"/>
      <point x="446" y="612" type="line"/>
      <point x="297" y="156" type="line"/>
      <point x="150" y="610" type="line"/>
      <point x="241" y="629" type="line"/>
      <point x="233" y="691" type="line"/>
      <point x="7" y="691" type="line"/>
      <point x="7" y="623" type="line"/>
      <point x="43" y="610" type="line"/>
      <point x="243" y="0" type="line"/>
      <point x="335" y="0" type="line"/>
      <point x="537" y="610" type="line"/>
      <point x="575" y="623" type="line"/>
    </contour>
  </outline>
</glyph>
<glyph name="W" format="1">
  <advance width="894"/>
  <unicode hex="0057"/>
  <outline>
    <contour>
      <point x="230" y="691" type="line" name="hr00"/>
      <point x="15" y="691" type="line"/>
      <point x="15" y="622" type="line"/>
      <point x="65" y="607" type="line"/>
      <point x="178" y="0" type="line"/>
      <point x="311" y="0" type="line"/>
      <point x="446" y="511" type="line"/>
      <point x="580" y="0" type="line"/>
      <point x="712" y="0" type="line"/>
      <point x="830" y="604" type="line"/>
      <point x="889" y="623" type="line"/>
      <point x="889" y="691" type="line"/>
      <point x="674" y="691" type="line"/>
      <point x="668" y="630" type="line"/>
      <point x="750" y="615" type="line"/>
      <point x="656" y="109" type="line"/>
      <point x="506" y="673" type="line" name="hr01"/>
      <point x="406" y="673" type="line"/>
      <point x="257" y="113" type="line"/>
      <point x="166" y="613" type="line" name="hr02"/>
      <point x="239" y="629" type="line"/>
    </contour>
  </outline>
</glyph>
<glyph name="X" format="1">
  <advance width="574"/>
  <unicode hex="0058"/>
  <outline>
    <contour>
      <point x="20" y="0" type="line" name="hr00"/>
      <point x="223" y="0" type="line"/>
      <point x="223" y="59" type="line"/>
      <point x="167" y="66" type="line"/>
      <point x="277" y="254" type="line"/>
      <point x="390" y="67" type="line"/>
      <point x="327" y="62" type="line"/>
      <point x="327" y="0" type="line"/>
      <point x="553" y="0" type="line"/>
      <point x="553" y="66" type="line"/>
      <point x="509" y="78" type="line"/>
      <point x="347" y="343" type="line"/>
      <point x="510" y="611" type="line"/>
      <point x="553" y="618" type="line"/>
      <point x="553" y="691" type="line"/>
      <point x="350" y="691" type="line" name="hr01"/>
      <point x="350" y="628" type="line"/>
      <point x="409" y="614" type="line"/>
      <point x="297" y="424" type="line"/>
      <point x="180" y="615" type="line"/>
      <point x="251" y="630" type="line"/>
      <point x="243" y="691" type="line"/>
      <point x="20" y="691" type="line"/>
      <point x="20" y="621" type="line"/>
      <point x="62" y="609" type="line"/>
      <point x="227" y="335" type="line"/>
      <point x="64" y="69" type="line"/>
      <point x="20" y="62" type="line"/>
    </contour>
  </outline>
</glyph>
<glyph name="Y" format="1">
  <advance width="563"/>
  <unicode hex="0059"/>
  <outline>
    <contour>
      <point x="556" y="691" type="line" name="hr00"/>
      <point x="361" y="691" type="line"/>
      <point x="361" y="625" type="line"/>
      <point x="418" y="614" type="line"/>
      <point x="296" y="363" type="line"/>
      <point x="160" y="613" type="line"/>
      <point x="224" y="625" type="line"/>
      <point x="217" y="691" type="line"/>
      <point x="4" y="691" type="line"/>
      <point x="4" y="616" type="line"/>
      <point x="44" y="607" type="line"/>
      <point x="234" y="252" type="line"/>
      <point x="234" y="83" type="line"/>
      <point x="119" y="63" type="line"/>
      <point x="129" y="0" type="line"/>
      <point x="439" y="0" type="line"/>
      <point x="449" y="63" type="line"/>
      <point x="333" y="83" type="line"/>
      <point x="333" y="246" type="line"/>
      <point x="513" y="606" type="line"/>
      <point x="556" y="616" type="line"/>
    </contour>
  </outline>
</glyph>
<glyph name="Z" format="1">
  <advance width="553"/>
  <unicode hex="005A"/>
  <outline>
    <contour>
      <point x="504" y="598" type="curve" name="hr00"/>
      <point x="492" y="691" type="line"/>
      <point x="50" y="691" type="line"/>
      <point x="50" y="498" type="line"/>
      <point x="113" y="498" type="line"/>
      <point x="133" y="605" type="line" name="hr01"/>
      <point x="392" y="605" type="line"/>
      <point x="37" y="77" type="line"/>
      <point x="53" y="0" type="line"/>
      <point x="507" y="0" type="line"/>
      <point x="507" y="192" type="line" name="hr02"/>
      <point x="443" y="192" type="line"/>
      <point x="424" y="86" type="line" name="hr03"/>
      <point x="169" y="86" type="line"/>
      <point x="269" y="237"/>
      <point x="419" y="467"/>
    </contour>
  </outline>
</glyph>
<glyph name="bracketleft" format="1">
  <advance width="321"/>
  <unicode hex="005B"/>
  <outline>
    <contour>
      <point x="86" y="702" type="line" name="hr00"/>
      <point x="78" y="690" type="line"/>
      <point x="78" y="-165" type="line"/>
      <point x="89" y="-179" type="line"/>
      <point x="318" y="-179" type="line" smooth="yes"/>
      <point x="322" y="-179"/>
      <point x="324" y="-176"/>
      <point x="324" y="-171" type="curve" smooth="yes" name="hr01"/>
      <point x="324" y="-105" type="line"/>
      <point x="173" y="-105" type="line" name="hr02"/>
      <point x="173" y="628" type="line"/>
      <point x="324" y="628" type="line" name="hr03"/>
      <point x="324" y="695" type="line" smooth="yes"/>
      <point x="324" y="699"/>
      <point x="322" y="702"/>
      <point x="318" y="702" type="curve" smooth="yes"/>
    </contour>
  </outline>
</glyph>
<glyph name="backslash" format="1">
  <advance width="460"/>
  <unicode hex="005C"/>
  <outline>
    <contour>
      <point x="21" y="679" type="line" name="hr00"/>
      <point x="350" y="0" type="line"/>
      <point x="431" y="0" type="line"/>
      <point x="439" y="13" type="line"/>
      <point x="110" y="691" type="line"/>
      <point x="21" y="691" type="line"/>
    </contour>
  </outline>
</glyph>
<glyph name="bracketright" format="1">
  <advance width="321"/>
  <unicode hex="005D"/>
  <outline>
    <contour>
      <point x="243" y="690" type="line" name="hr00"/>
      <point x="235" y="702" type="line"/>
      <point x="3" y="702" type="line" smooth="yes"/>
      <point x="-1" y="702"/>
      <point x="-3" y="699"/>
      <point x="-3" y="695" type="curve" smooth="yes"/>
      <point x="-3" y="628" type="line"/>
      <point x="148" y="628" type="line" name="hr01"/>
      <point x="148" y="-105" type="line"/>
      <point x="-3" y="-105" type="line" name="hr02"/>
      <point x="-3" y="-171" type="line" smooth="yes"/>
      <point x="-3" y="-176"/>
      <point x="-1" y="-179"/>
      <point x="3" y="-179" type="curve" smooth="yes"/>
      <point x="232" y="-179" type="line"/>
      <point x="243" y="-165" type="line"/>
    </contour>
  </outline>
</glyph>
<glyph name="asciicircum" format="1">
  <advance width="443"/>
  <unicode hex="005E"/>
  <outline>
    <contour>
      <point x="209" y="724" type="line" name="hr00"/>
      <point x="52" y="562" type="line"/>
      <point x="55" y="556" type="line"/>
      <point x="135" y="556" type="line"/>
      <point x="221" y="615" type="line"/>
      <point x="308" y="556" type="line"/>
      <point x="389" y="556" type="line"/>
      <point x="391" y="561" type="line"/>
      <point x="235" y="724" type="line"/>
    </contour>
  </outline>
</glyph>
<glyph name="underscore" format="1">
  <advance width="563"/>
  <unicode hex="005F"/>
  <outline>
    <contour>
      <point x="5" y="-75" type="line" name="hr00"/>
      <point x="558" y="-75" type="line"/>
      <point x="558" y="-7" type="line" smooth="yes"/>
      <point x="558" y="-2"/>
      <point x="556" y="0"/>
      <point x="552" y="0" type="curve" smooth="yes"/>
      <point x="19" y="0" type="line"/>
      <point x="5" y="-13" type="line"/>
    </contour>
  </outline>
</glyph>
<glyph name="grave" format="1">
  <advance width="302"/>
  <unicode hex="0060"/>
  <outline>
    <contour>
      <point x="213" y="500" type="line" name="hr00"/>
      <point x="250" y="537" type="line"/>
      <point x="143" y="695" type="line"/>
      <point x="112" y="703" type="line"/>
      <point x="52" y="632" type="line"/>
    </contour>
  </outline>
</glyph>
<glyph name="a" format="1">
  <advance width="460"/>
  <unicode hex="0061"/>
  <outline>
    <contour>
      <point x="383" y="345" type="line" smooth="yes" name="hr00"/>
      <point x="383" y="429"/>
      <point x="325" y="486"/>
      <point x="222" y="486" type="curve" smooth="yes"/>
      <point x="115" y="486"/>
      <point x="56" y="430"/>
      <point x="37" y="364" type="curve"/>
      <point x="142" y="333" type="line"/>
      <point x="162" y="398" type="line"/>
      <point x="175" y="410"/>
      <point x="198" y="414"/>
      <point x="217" y="414" type="curve" smooth="yes"/>
      <point x="269" y="414"/>
      <point x="293" y="387"/>
      <point x="293" y="361" type="curve" smooth="yes"/>
      <point x="293" y="290" type="line"/>
      <point x="160" y="287"/>
      <point x="36" y="258"/>
      <point x="36" y="129" type="curve" smooth="yes"/>
      <point x="36" y="52"/>
      <point x="96" y="-5"/>
      <point x="189" y="-5" type="curve" smooth="yes"/>
      <point x="239" y="-5"/>
      <point x="274" y="15"/>
      <point x="299" y="41" type="curve"/>
      <point x="308" y="13"/>
      <point x="330" y="-4"/>
      <point x="371" y="-4" type="curve" smooth="yes" name="hr01"/>
      <point x="405" y="-4"/>
      <point x="432" y="15"/>
      <point x="440" y="22" type="curve"/>
      <point x="418" y="75" type="line"/>
      <point x="413" y="72"/>
      <point x="405" y="68"/>
      <point x="397" y="68" type="curve" smooth="yes"/>
      <point x="390" y="68"/>
      <point x="383" y="73"/>
      <point x="383" y="89" type="curve" smooth="yes"/>
    </contour>
    <contour>
      <point x="202" y="69" type="curve" smooth="yes" name="hr02"/>
      <point x="176" y="69"/>
      <point x="131" y="81"/>
      <point x="131" y="134" type="curve" smooth="yes"/>
      <point x="131" y="212"/>
      <point x="234" y="216"/>
      <point x="293" y="217" type="curve"/>
      <point x="293" y="131" type="line"/>
      <point x="286" y="107"/>
      <point x="255" y="69"/>
    </contour>
  </outline>
</glyph>
<glyph name="b" format="1">
  <advance width="490"/>
  <unicode hex="0062"/>
  <outline>
    <contour>
      <point x="159" y="699" type="line" name="hr00"/>
      <point x="129" y="731" type="line"/>
      <point x="2" y="712" type="line"/>
      <point x="11" y="652" type="line"/>
      <point x="69" y="656" type="line"/>
      <point x="69" y="8" type="line"/>
      <point x="92" y="-6" type="line"/>
      <point x="103" y="-3"/>
      <point x="125" y="10"/>
      <point x="140" y="17" type="curve" smooth="yes"/>
      <point x="144" y="19" type="line"/>
      <point x="171" y="4"/>
      <point x="203" y="-4"/>
      <point x="240" y="-4" type="curve" smooth="yes" name="hr01"/>
      <point x="328" y="-4"/>
      <point x="454" y="46"/>
      <point x="454" y="247" type="curve" smooth="yes"/>
      <point x="454" y="392"/>
      <point x="373" y="486"/>
      <point x="258" y="486" type="curve" smooth="yes"/>
      <point x="216" y="486"/>
      <point x="182" y="473"/>
      <point x="159" y="459" type="curve"/>
    </contour>
    <contour>
      <point x="243" y="410" type="curve" smooth="yes"/>
      <point x="301" y="410"/>
      <point x="359" y="362"/>
      <point x="359" y="241" type="curve" smooth="yes"/>
      <point x="359" y="107"/>
      <point x="286" y="71"/>
      <point x="238" y="71" type="curve" smooth="yes"/>
      <point x="203" y="71"/>
      <point x="170" y="84"/>
      <point x="159" y="97" type="curve"/>
      <point x="159" y="377" type="line"/>
      <point x="175" y="395"/>
      <point x="207" y="410"/>
    </contour>
  </outline>
</glyph>
<glyph name="c" format="1">
  <advance width="432"/>
  <unicode hex="0063"/>
  <outline>
    <contour>
      <point x="317" y="348" type="line" name="hr00"/>
      <point x="416" y="395" type="line"/>
      <point x="402" y="425"/>
      <point x="348" y="486"/>
      <point x="251" y="486" type="curve" smooth="yes"/>
      <point x="150" y="486"/>
      <point x="36" y="424"/>
      <point x="36" y="233" type="curve" smooth="yes"/>
      <point x="36" y="70"/>
      <point x="142" y="-4"/>
      <point x="250" y="-4" type="curve" smooth="yes"/>
      <point x="314" y="-4"/>
      <point x="361" y="15"/>
      <point x="396" y="42" type="curve"/>
      <point x="390" y="59"/>
      <point x="380" y="93"/>
      <point x="374" y="112" type="curve"/>
      <point x="347" y="85"/>
      <point x="301" y="71"/>
      <point x="264" y="71" type="curve" smooth="yes"/>
      <point x="184" y="71"/>
      <point x="131" y="135"/>
      <point x="131" y="235" type="curve" smooth="yes"/>
      <point x="131" y="349"/>
      <point x="173" y="411"/>
      <point x="252" y="411" type="curve" smooth="yes"/>
      <point x="273" y="411"/>
      <point x="285" y="406"/>
      <point x="285" y="406" type="curve"/>
    </contour>
  </outline>
</glyph>
<glyph name="d" format="1">
  <advance width="502"/>
  <unicode hex="0064"/>
  <outline>
    <contour>
      <point x="420" y="89" type="curve" name="hr00"/>
      <point x="420" y="699" type="line"/>
      <point x="389" y="733" type="line"/>
      <point x="264" y="712" type="line"/>
      <point x="273" y="652" type="line"/>
      <point x="330" y="656" type="line"/>
      <point x="330" y="470" type="line"/>
      <point x="306" y="480"/>
      <point x="279" y="486"/>
      <point x="250" y="486" type="curve" smooth="yes"/>
      <point x="162" y="486"/>
      <point x="36" y="436"/>
      <point x="36" y="235" type="curve" smooth="yes"/>
      <point x="36" y="90"/>
      <point x="117" y="-4"/>
      <point x="232" y="-4" type="curve" smooth="yes"/>
      <point x="280" y="-4"/>
      <point x="318" y="13"/>
      <point x="341" y="29" type="curve"/>
      <point x="352" y="8"/>
      <point x="373" y="-4"/>
      <point x="408" y="-4" type="curve" smooth="yes"/>
      <point x="442" y="-4"/>
      <point x="469" y="15"/>
      <point x="477" y="22" type="curve"/>
      <point x="455" y="75" type="line"/>
      <point x="450" y="72"/>
      <point x="442" y="68"/>
      <point x="434" y="68" type="curve" smooth="yes"/>
      <point x="427" y="68"/>
      <point x="420" y="73"/>
    </contour>
    <contour>
      <point x="247" y="72" type="curve" smooth="yes"/>
      <point x="189" y="72"/>
      <point x="131" y="120"/>
      <point x="131" y="241" type="curve" smooth="yes"/>
      <point x="131" y="375"/>
      <point x="204" y="411"/>
      <point x="252" y="411" type="curve" smooth="yes"/>
      <point x="286" y="411"/>
      <point x="318" y="398"/>
      <point x="330" y="386" type="curve"/>
      <point x="330" y="104" type="line"/>
      <point x="313" y="86"/>
      <point x="282" y="72"/>
    </contour>
  </outline>
</glyph>
<glyph name="f" format="1">
  <advance width="337"/>
  <unicode hex="0066"/>
  <outline>
    <contour>
      <point x="31" y="411" type="line" name="hr00"/>
      <point x="99" y="411" type="line"/>
      <point x="99" y="66" type="line"/>
      <point x="42" y="54" type="line"/>
      <point x="54" y="0" type="line"/>
      <point x="304" y="0" type="line"/>
      <point x="304" y="54" type="line"/>
      <point x="190" y="71" type="line"/>
      <point x="190" y="411" type="line"/>
      <point x="308" y="411" type="line"/>
      <point x="308" y="480" type="line" smooth="yes"/>
      <point x="308" y="484"/>
      <point x="306" y="486"/>
      <point x="303" y="486" type="curve" smooth="yes"/>
      <point x="190" y="486" type="line"/>
      <point x="190" y="589" type="line" smooth="yes"/>
      <point x="190" y="633"/>
      <point x="203" y="655"/>
      <point x="230" y="655" type="curve" smooth="yes"/>
      <point x="237" y="655"/>
      <point x="241" y="654"/>
      <point x="244" y="653" type="curve"/>
      <point x="308" y="594" type="line"/>
      <point x="379" y="677" type="line"/>
      <point x="370" y="685"/>
      <point x="314" y="730"/>
      <point x="236" y="730" type="curve" smooth="yes"/>
      <point x="162" y="730"/>
      <point x="99" y="684"/>
      <point x="99" y="577" type="curve" smooth="yes"/>
      <point x="99" y="486" type="line"/>
      <point x="24" y="486" type="line"/>
      <point x="17" y="476" type="line"/>
    </contour>
  </outline>
</glyph>
<glyph name="g" format="1">
  <advance width="488"/>
  <unicode hex="0067"/>
  <outline>
    <contour>
      <point x="228" y="486" type="curve" smooth="yes" name="hr00"/>
      <point x="121" y="486"/>
      <point x="39" y="409"/>
      <point x="39" y="302" type="curve" smooth="yes"/>
      <point x="39" y="236"/>
      <point x="69" y="185"/>
      <point x="116" y="155" type="curve"/>
      <point x="95" y="134"/>
      <point x="77" y="105"/>
      <point x="77" y="72" type="curve" smooth="yes" name="hr01"/>
      <point x="77" y="43"/>
      <point x="84" y="23"/>
      <point x="101" y="9" type="curve"/>
      <point x="58" y="-13"/>
      <point x="18" y="-54"/>
      <point x="18" y="-126" type="curve" smooth="yes" name="hr02"/>
      <point x="18" y="-223"/>
      <point x="112" y="-275"/>
      <point x="225" y="-275" type="curve" smooth="yes"/>
      <point x="331" y="-275"/>
      <point x="434" y="-214"/>
      <point x="434" y="-94" type="curve" smooth="yes"/>
      <point x="434" y="-28"/>
      <point x="404" y="24"/>
      <point x="277" y="54" type="curve" smooth="yes"/>
      <point x="227" y="66"/>
      <point x="176" y="71"/>
      <point x="163" y="74" type="curve"/>
      <point x="159" y="91" type="line"/>
      <point x="184" y="130" type="line"/>
      <point x="198" y="127"/>
      <point x="212" y="126"/>
      <point x="228" y="126" type="curve" smooth="yes"/>
      <point x="323" y="126"/>
      <point x="418" y="184"/>
      <point x="418" y="303" type="curve" smooth="yes" name="hr03"/>
      <point x="418" y="338"/>
      <point x="409" y="369"/>
      <point x="394" y="395" type="curve"/>
      <point x="484" y="406" type="line"/>
      <point x="474" y="489" type="line"/>
      <point x="453" y="492" type="line"/>
      <point x="354" y="442" type="line"/>
      <point x="320" y="470"/>
      <point x="275" y="486"/>
    </contour>
    <contour>
      <point x="228" y="411" type="line" smooth="yes"/>
      <point x="279" y="411"/>
      <point x="323" y="374"/>
      <point x="323" y="306" type="curve" smooth="yes"/>
      <point x="323" y="238"/>
      <point x="282" y="201"/>
      <point x="228" y="201" type="curve" smooth="yes"/>
      <point x="180" y="201"/>
      <point x="134" y="231"/>
      <point x="134" y="306" type="curve" smooth="yes"/>
      <point x="134" y="365"/>
      <point x="170" y="408"/>
      <point x="224" y="411" type="curve"/>
    </contour>
    <contour>
      <point x="240" y="-39" type="curve" smooth="yes"/>
      <point x="324" y="-58"/>
      <point x="358" y="-68"/>
      <point x="358" y="-107" type="curve" smooth="yes" name="hr05"/>
      <point x="358" y="-154"/>
      <point x="299" y="-187"/>
      <point x="231" y="-187" type="curve" smooth="yes"/>
      <point x="163" y="-187"/>
      <point x="106" y="-159"/>
      <point x="106" y="-112" type="curve" smooth="yes"/>
      <point x="106" y="-71"/>
      <point x="131" y="-43"/>
      <point x="177" y="-24" type="curve"/>
      <point x="195" y="-29"/>
      <point x="216" y="-34"/>
    </contour>
  </outline>
</glyph>
<glyph name="h" format="1">
  <advance width="521"/>
  <unicode hex="0068"/>
  <outline>
    <contour>
      <point x="440" y="346" type="line" smooth="yes" name="hr00"/>
      <point x="440" y="447"/>
      <point x="376" y="486"/>
      <point x="292" y="486" type="curve" smooth="yes"/>
      <point x="240" y="486"/>
      <point x="198" y="467"/>
      <point x="174" y="450" type="curve"/>
      <point x="174" y="699" type="line"/>
      <point x="143" y="733" type="line"/>
      <point x="18" y="712" type="line"/>
      <point x="27" y="652" type="line"/>
      <point x="84" y="656" type="line"/>
      <point x="84" y="68" type="line"/>
      <point x="22" y="54" type="line"/>
      <point x="34" y="0" type="line"/>
      <point x="233" y="0" type="line"/>
      <point x="233" y="54" type="line"/>
      <point x="174" y="70" type="line"/>
      <point x="174" y="369" type="line"/>
      <point x="190" y="386"/>
      <point x="236" y="409"/>
      <point x="276" y="409" type="curve" smooth="yes"/>
      <point x="318" y="409"/>
      <point x="350" y="391"/>
      <point x="350" y="331" type="curve" smooth="yes"/>
      <point x="350" y="68" type="line"/>
      <point x="289" y="54" type="line"/>
      <point x="301" y="0" type="line"/>
      <point x="500" y="0" type="line"/>
      <point x="500" y="54" type="line"/>
      <point x="440" y="70" type="line"/>
    </contour>
  </outline>
</glyph>
<glyph name="i" format="1">
  <advance width="268"/>
  <unicode hex="0069"/>
  <outline>
    <contour>
      <point x="184" y="454" type="line" name="hr00"/>
      <point x="152" y="486" type="line"/>
      <point x="29" y="464" type="line"/>
      <point x="39" y="404" type="line"/>
      <point x="94" y="408" type="line"/>
      <point x="94" y="68" type="line"/>
      <point x="32" y="54" type="line"/>
      <point x="43" y="0" type="line"/>
      <point x="243" y="0" type="line"/>
      <point x="243" y="54" type="line"/>
      <point x="184" y="70" type="line"/>
    </contour>
    <contour>
      <point x="62" y="666" type="curve" smooth="yes" name="hr01"/>
      <point x="62" y="631"/>
      <point x="89" y="604"/>
      <point x="124" y="604" type="curve" smooth="yes"/>
      <point x="158" y="604"/>
      <point x="186" y="631"/>
      <point x="186" y="666" type="curve" smooth="yes"/>
      <point x="186" y="698"/>
      <point x="158" y="728"/>
      <point x="124" y="728" type="curve" smooth="yes"/>
      <point x="90" y="728"/>
      <point x="62" y="700"/>
    </contour>
  </outline>
</glyph>
<glyph name="j" format="1">
  <advance width="243"/>
  <unicode hex="006A"/>
  <outline>
    <contour>
      <point x="32" y="404" type="line" name="hr00"/>
      <point x="85" y="408" type="line"/>
      <point x="85" y="-135" type="line" smooth="yes"/>
      <point x="85" y="-180"/>
      <point x="70" y="-196"/>
      <point x="50" y="-196" type="curve" smooth="yes"/>
      <point x="27" y="-196"/>
      <point x="10" y="-180"/>
      <point x="1" y="-173" type="curve"/>
      <point x="-37" y="-246" type="line"/>
      <point x="-8" y="-264"/>
      <point x="24" y="-272"/>
      <point x="55" y="-272" type="curve" smooth="yes"/>
      <point x="128" y="-272"/>
      <point x="175" y="-229"/>
      <point x="175" y="-124" type="curve" smooth="yes"/>
      <point x="175" y="454" type="line"/>
      <point x="144" y="486" type="line"/>
      <point x="23" y="464" type="line"/>
    </contour>
    <contour>
      <point x="52" y="666" type="curve" smooth="yes" name="hr01"/>
      <point x="52" y="631"/>
      <point x="78" y="604"/>
      <point x="114" y="604" type="curve" smooth="yes"/>
      <point x="148" y="604"/>
      <point x="176" y="631"/>
      <point x="176" y="666" type="curve" smooth="yes"/>
      <point x="176" y="698"/>
      <point x="148" y="728"/>
      <point x="114" y="728" type="curve" smooth="yes"/>
      <point x="80" y="728"/>
      <point x="52" y="700"/>
    </contour>
  </outline>
</glyph>
<glyph name="k" format="1">
  <advance width="485"/>
  <unicode hex="006B"/>
  <outline>
    <contour>
      <point x="174" y="699" type="line" name="hr00"/>
      <point x="143" y="733" type="line"/>
      <point x="18" y="712" type="line"/>
      <point x="27" y="652" type="line"/>
      <point x="84" y="656" type="line"/>
      <point x="84" y="68" type="line"/>
      <point x="22" y="54" type="line"/>
      <point x="34" y="0" type="line"/>
      <point x="233" y="0" type="line"/>
      <point x="233" y="54" type="line"/>
      <point x="174" y="66" type="line"/>
      <point x="174" y="170" type="line"/>
      <point x="227" y="221" type="line"/>
      <point x="341" y="0" type="line"/>
      <point x="466" y="0" type="line"/>
      <point x="466" y="56" type="line"/>
      <point x="413" y="68" type="line"/>
      <point x="298" y="290" type="line"/>
      <point x="453" y="440" type="line"/>
      <point x="429" y="486" type="line"/>
      <point x="270" y="486" type="line"/>
      <point x="278" y="423" type="line"/>
      <point x="327" y="423" type="line"/>
      <point x="174" y="264" type="line"/>
    </contour>
  </outline>
</glyph>
<glyph name="l" format="1">
  <advance width="260"/>
  <unicode hex="006C"/>
  <outline>
    <contour>
      <point x="174" y="699" type="line" name="hr00"/>
      <point x="142" y="733" type="line"/>
      <point x="17" y="712" type="line"/>
      <point x="27" y="652" type="line"/>
      <point x="84" y="656" type="line"/>
      <point x="84" y="68" type="line"/>
      <point x="21" y="54" type="line"/>
      <point x="33" y="0" type="line"/>
      <point x="237" y="0" type="line"/>
      <point x="237" y="54" type="line"/>
      <point x="174" y="70" type="line"/>
    </contour>
  </outline>
</glyph>
<glyph name="m" format="1">
  <advance width="797"/>
  <unicode hex="006D"/>
  <outline>
    <contour>
      <point x="449" y="327" type="line" smooth="yes" name="hr00"/>
      <point x="449" y="331"/>
      <point x="448" y="365"/>
      <point x="448" y="373" type="curve"/>
      <point x="466" y="389"/>
      <point x="508" y="409"/>
      <point x="545" y="409" type="curve" smooth="yes"/>
      <point x="587" y="409"/>
      <point x="627" y="393"/>
      <point x="627" y="331" type="curve" smooth="yes"/>
      <point x="627" y="68" type="line"/>
      <point x="565" y="54" type="line"/>
      <point x="576" y="0" type="line"/>
      <point x="776" y="0" type="line"/>
      <point x="776" y="54" type="line"/>
      <point x="717" y="70" type="line"/>
      <point x="717" y="346" type="line" smooth="yes"/>
      <point x="717" y="447"/>
      <point x="649" y="486"/>
      <point x="567" y="486" type="curve" smooth="yes"/>
      <point x="509" y="486"/>
      <point x="462" y="468"/>
      <point x="421" y="438" type="curve"/>
      <point x="395" y="472"/>
      <point x="351" y="486"/>
      <point x="301" y="486" type="curve" smooth="yes"/>
      <point x="248" y="486"/>
      <point x="205" y="467"/>
      <point x="181" y="449" type="curve"/>
      <point x="152" y="486" type="line"/>
      <point x="125" y="482"/>
      <point x="63" y="470"/>
      <point x="29" y="464" type="curve"/>
      <point x="39" y="404" type="line"/>
      <point x="94" y="408" type="line"/>
      <point x="94" y="68" type="line"/>
      <point x="31" y="54" type="line"/>
      <point x="43" y="0" type="line"/>
      <point x="242" y="0" type="line"/>
      <point x="242" y="54" type="line"/>
      <point x="184" y="70" type="line"/>
      <point x="184" y="370" type="line"/>
      <point x="201" y="387"/>
      <point x="245" y="409"/>
      <point x="285" y="409" type="curve" smooth="yes"/>
      <point x="327" y="409"/>
      <point x="359" y="391"/>
      <point x="359" y="331" type="curve" smooth="yes"/>
      <point x="359" y="68" type="line"/>
      <point x="298" y="54" type="line"/>
      <point x="310" y="0" type="line"/>
      <point x="509" y="0" type="line"/>
      <point x="509" y="54" type="line"/>
      <point x="449" y="70" type="line"/>
    </contour>
  </outline>
</glyph>
<glyph name="n" format="1">
  <advance width="530"/>
  <unicode hex="006E"/>
  <outline>
    <contour>
      <point x="449" y="346" type="line" smooth="yes" name="hr00"/>
      <point x="449" y="447"/>
      <point x="385" y="486"/>
      <point x="301" y="486" type="curve" smooth="yes"/>
      <point x="248" y="486"/>
      <point x="205" y="467"/>
      <point x="181" y="449" type="curve"/>
      <point x="152" y="486" type="line"/>
      <point x="125" y="482"/>
      <point x="63" y="470"/>
      <point x="29" y="464" type="curve"/>
      <point x="39" y="404" type="line"/>
      <point x="94" y="408" type="line"/>
      <point x="94" y="68" type="line"/>
      <point x="31" y="54" type="line"/>
      <point x="43" y="0" type="line"/>
      <point x="242" y="0" type="line"/>
      <point x="242" y="54" type="line"/>
      <point x="184" y="70" type="line"/>
      <point x="184" y="370" type="line"/>
      <point x="201" y="387"/>
      <point x="245" y="409"/>
      <point x="285" y="409" type="curve" smooth="yes"/>
      <point x="327" y="409"/>
      <point x="359" y="391"/>
      <point x="359" y="331" type="curve" smooth="yes"/>
      <point x="359" y="68" type="line"/>
      <point x="298" y="54" type="line"/>
      <point x="310" y="0" type="line"/>
      <point x="509" y="0" type="line"/>
      <point x="509" y="54" type="line"/>
      <point x="449" y="71" type="line"/>
    </contour>
  </outline>
</glyph>
<glyph name="o" format="1">
  <advance width="495"/>
  <unicode hex="006F"/>
  <outline>
    <contour>
      <point x="131" y="237" type="curve" smooth="yes" name="hr00"/>
      <point x="131" y="338"/>
      <point x="171" y="411"/>
      <point x="248" y="411" type="curve" smooth="yes"/>
      <point x="319" y="411"/>
      <point x="365" y="344"/>
      <point x="365" y="237" type="curve" smooth="yes"/>
      <point x="365" y="124"/>
      <point x="316" y="71"/>
      <point x="248" y="71" type="curve" smooth="yes"/>
      <point x="178" y="71"/>
      <point x="131" y="127"/>
    </contour>
    <contour>
      <point x="36" y="243" type="curve" smooth="yes"/>
      <point x="36" y="94"/>
      <point x="124" y="-4"/>
      <point x="248" y="-4" type="curve" smooth="yes"/>
      <point x="361" y="-4"/>
      <point x="460" y="83"/>
      <point x="460" y="243" type="curve" smooth="yes"/>
      <point x="460" y="393"/>
      <point x="370" y="486"/>
      <point x="248" y="486" type="curve" smooth="yes"/>
      <point x="135" y="486"/>
      <point x="36" y="402"/>
    </contour>
  </outline>
</glyph>
<glyph name="p" format="1">
  <advance width="505"/>
  <unicode hex="0070"/>
  <outline>
    <contour>
      <point x="19" y="465" type="line" name="hr00"/>
      <point x="28" y="405" type="line"/>
      <point x="85" y="409" type="line"/>
      <point x="85" y="-206" type="line"/>
      <point x="23" y="-221" type="line"/>
      <point x="35" y="-274" type="line"/>
      <point x="297" y="-274" type="line"/>
      <point x="297" y="-221" type="line"/>
      <point x="175" y="-199" type="line"/>
      <point x="175" y="11" type="line"/>
      <point x="198" y="1"/>
      <point x="225" y="-4"/>
      <point x="255" y="-4" type="curve" smooth="yes"/>
      <point x="343" y="-4"/>
      <point x="469" y="46"/>
      <point x="469" y="247" type="curve" smooth="yes"/>
      <point x="469" y="392"/>
      <point x="388" y="486"/>
      <point x="273" y="486" type="curve" smooth="yes"/>
      <point x="229" y="486"/>
      <point x="194" y="472"/>
      <point x="171" y="457" type="curve"/>
      <point x="144" y="486" type="line"/>
    </contour>
    <contour>
      <point x="258" y="410" type="curve" smooth="yes"/>
      <point x="316" y="410"/>
      <point x="374" y="362"/>
      <point x="374" y="241" type="curve" smooth="yes"/>
      <point x="374" y="107"/>
      <point x="301" y="71"/>
      <point x="253" y="71" type="curve" smooth="yes"/>
      <point x="219" y="71"/>
      <point x="187" y="83"/>
      <point x="175" y="96" type="curve"/>
      <point x="175" y="378" type="line"/>
      <point x="192" y="395"/>
      <point x="223" y="410"/>
    </contour>
  </outline>
</glyph>
<glyph name="q" format="1">
  <advance width="489"/>
  <unicode hex="0071"/>
  <outline>
    <contour>
      <point x="420" y="468" type="line" name="hr00"/>
      <point x="397" y="487" type="line"/>
      <point x="340" y="466" type="line"/>
      <point x="314" y="479"/>
      <point x="284" y="486"/>
      <point x="250" y="486" type="curve" smooth="yes" name="hr01"/>
      <point x="162" y="486"/>
      <point x="36" y="436"/>
      <point x="36" y="235" type="curve" smooth="yes"/>
      <point x="36" y="90"/>
      <point x="117" y="-4"/>
      <point x="232" y="-4" type="curve" smooth="yes"/>
      <point x="273" y="-4"/>
      <point x="307" y="8"/>
      <point x="330" y="22" type="curve"/>
      <point x="330" y="-187" type="line"/>
      <point x="207" y="-211" type="line"/>
      <point x="218" y="-274" type="line"/>
      <point x="475" y="-274" type="line"/>
      <point x="475" y="-201" type="line"/>
      <point x="420" y="-182" type="line"/>
    </contour>
    <contour>
      <point x="247" y="72" type="curve" smooth="yes"/>
      <point x="189" y="72"/>
      <point x="131" y="120"/>
      <point x="131" y="241" type="curve" smooth="yes"/>
      <point x="131" y="375"/>
      <point x="204" y="411"/>
      <point x="252" y="411" type="curve" smooth="yes"/>
      <point x="286" y="411"/>
      <point x="318" y="398"/>
      <point x="330" y="386" type="curve"/>
      <point x="330" y="104" type="line"/>
      <point x="313" y="86"/>
      <point x="282" y="72"/>
    </contour>
  </outline>
</glyph>
<glyph name="r" format="1">
  <advance width="405"/>
  <unicode hex="0072"/>
  <outline>
    <contour>
      <point x="29" y="464" type="curve" name="hr00"/>
      <point x="38" y="405" type="line"/>
      <point x="93" y="405" type="line"/>
      <point x="93" y="68" type="line"/>
      <point x="31" y="54" type="line"/>
      <point x="43" y="0" type="line"/>
      <point x="313" y="0" type="line"/>
      <point x="313" y="54" type="line"/>
      <point x="200" y="78" type="line" smooth="yes"/>
      <point x="189" y="80"/>
      <point x="183" y="82"/>
      <point x="183" y="85" type="curve" smooth="yes"/>
      <point x="183" y="301" type="line"/>
      <point x="183" y="367"/>
      <point x="228" y="407"/>
      <point x="272" y="407" type="curve"/>
      <point x="303" y="359" type="line"/>
      <point x="402" y="409" type="line"/>
      <point x="382" y="451"/>
      <point x="340" y="485"/>
      <point x="282" y="485" type="curve" smooth="yes"/>
      <point x="245" y="485"/>
      <point x="205" y="469"/>
      <point x="178" y="439" type="curve"/>
      <point x="147" y="485" type="line"/>
      <point x="120" y="481"/>
      <point x="63" y="469"/>
    </contour>
  </outline>
</glyph>
<glyph name="s" format="1">
  <advance width="404"/>
  <unicode hex="0073"/>
  <outline>
    <contour>
      <point x="205" y="486" type="curve" smooth="yes" name="hr00"/>
      <point x="124" y="486"/>
      <point x="47" y="438"/>
      <point x="47" y="354" type="curve" smooth="yes"/>
      <point x="47" y="264"/>
      <point x="108" y="235"/>
      <point x="221" y="186" type="curve" smooth="yes"/>
      <point x="253" y="172"/>
      <point x="270" y="153"/>
      <point x="270" y="128" type="curve" smooth="yes"/>
      <point x="270" y="87"/>
      <point x="230" y="72"/>
      <point x="203" y="72" type="curve" smooth="yes"/>
      <point x="175" y="72"/>
      <point x="160" y="78"/>
      <point x="151" y="82" type="curve"/>
      <point x="127" y="140" type="line"/>
      <point x="24" y="101" type="line"/>
      <point x="43" y="44"/>
      <point x="119" y="-4"/>
      <point x="197" y="-4" type="curve" smooth="yes"/>
      <point x="276" y="-4"/>
      <point x="365" y="36"/>
      <point x="365" y="134" type="curve" smooth="yes"/>
      <point x="365" y="188"/>
      <point x="340" y="237"/>
      <point x="244" y="276" type="curve" smooth="yes"/>
      <point x="175" y="304"/>
      <point x="142" y="321"/>
      <point x="142" y="356" type="curve" smooth="yes"/>
      <point x="142" y="390"/>
      <point x="173" y="409"/>
      <point x="203" y="409" type="curve" smooth="yes"/>
      <point x="228" y="409"/>
      <point x="241" y="401"/>
      <point x="246" y="399" type="curve"/>
      <point x="269" y="348" type="line"/>
      <point x="371" y="387" type="line"/>
      <point x="348" y="434"/>
      <point x="293" y="486"/>
    </contour>
  </outline>
</glyph>
<glyph name="t" format="1">
  <advance width="325"/>
  <unicode hex="0074"/>
  <outline>
    <contour>
      <point x="18" y="411" type="line" name="hr00"/>
      <point x="100" y="411" type="line"/>
      <point x="100" y="107" type="line" smooth="yes"/>
      <point x="100" y="29"/>
      <point x="144" y="-4"/>
      <point x="207" y="-4" type="curve" smooth="yes"/>
      <point x="257" y="-4"/>
      <point x="294" y="18"/>
      <point x="313" y="35" type="curve"/>
      <point x="309" y="51"/>
      <point x="296" y="87"/>
      <point x="292" y="101" type="curve"/>
      <point x="280" y="91"/>
      <point x="247" y="73"/>
      <point x="224" y="73" type="curve" smooth="yes"/>
      <point x="197" y="73"/>
      <point x="185" y="82"/>
      <point x="185" y="124" type="curve" smooth="yes"/>
      <point x="185" y="411" type="line"/>
      <point x="294" y="411" type="line"/>
      <point x="294" y="480" type="line" smooth="yes"/>
      <point x="294" y="484"/>
      <point x="292" y="486"/>
      <point x="289" y="486" type="curve" smooth="yes"/>
      <point x="185" y="486" type="line"/>
      <point x="185" y="657" type="line"/>
      <point x="180" y="672" type="line"/>
      <point x="100" y="653" type="line"/>
      <point x="100" y="486" type="line"/>
      <point x="11" y="486" type="line"/>
      <point x="4" y="476" type="line"/>
    </contour>
  </outline>
</glyph>
<glyph name="v" format="1">
  <advance width="467"/>
  <unicode hex="0076"/>
  <outline>
    <contour>
      <point x="277" y="-5" type="line" name="hr00"/>
      <point x="198" y="-5" type="line"/>
      <point x="47" y="420" type="line"/>
      <point x="8" y="420" type="line" name="hr01"/>
      <point x="0" y="477" type="line"/>
      <point x="121" y="486" type="line"/>
      <point x="248" y="117" type="line" name="hr02"/>
      <point x="371" y="420" type="line"/>
      <point x="317" y="420" type="line" name="hr03"/>
      <point x="310" y="477" type="line"/>
      <point x="431" y="486" type="line"/>
      <point x="463" y="448" type="line"/>
    </contour>
  </outline>
</glyph>
<glyph name="w" format="1">
  <advance width="704"/>
  <unicode hex="0077"/>
  <outline>
    <contour>
      <point x="265" y="-3" type="line" name="hr00"/>
      <point x="357" y="354" type="line"/>
      <point x="452" y="-3" type="line"/>
      <point x="570" y="-3" type="line"/>
      <point x="679" y="452" type="line"/>
      <point x="657" y="487" type="line"/>
      <point x="546" y="478" type="line"/>
      <point x="553" y="416" type="line"/>
      <point x="598" y="416" type="line"/>
      <point x="521" y="104" type="line"/>
      <point x="419" y="475" type="line"/>
      <point x="310" y="475" type="line"/>
      <point x="216" y="105" type="line"/>
      <point x="138" y="488" type="line" name="hr01"/>
      <point x="5" y="478" type="line"/>
      <point x="12" y="416" type="line" name="hr02"/>
      <point x="56" y="416" type="line"/>
      <point x="146" y="-3" type="line"/>
    </contour>
  </outline>
</glyph>
<glyph name="x" format="1">
  <advance width="464"/>
  <unicode hex="0078"/>
  <outline>
    <contour>
      <point x="140" y="486" type="line" name="hr00"/>
      <point x="28" y="486" type="line"/>
      <point x="28" y="420" type="line"/>
      <point x="69" y="420" type="line"/>
      <point x="174" y="242" type="line"/>
      <point x="70" y="63" type="line"/>
      <point x="28" y="63" type="line"/>
      <point x="32" y="0" type="line"/>
      <point x="121" y="0" type="line"/>
      <point x="218" y="169" type="line"/>
      <point x="319" y="0" type="line"/>
      <point x="436" y="0" type="line"/>
      <point x="436" y="65" type="line"/>
      <point x="393" y="65" type="line"/>
      <point x="287" y="241" type="line"/>
      <point x="394" y="423" type="line"/>
      <point x="432" y="423" type="line"/>
      <point x="432" y="486" type="line"/>
      <point x="342" y="486" type="line"/>
      <point x="246" y="310" type="line"/>
    </contour>
  </outline>
</glyph>
<glyph name="y" format="1">
  <advance width="480"/>
  <unicode hex="0079"/>
  <outline>
    <contour>
      <point x="474" y="452" type="line" name="hr00"/>
      <point x="409" y="270"/>
      <point x="327" y="47"/>
      <point x="251" y="-145" type="curve" smooth="yes"/>
      <point x="226" y="-207"/>
      <point x="195" y="-275"/>
      <point x="114" y="-275" type="curve" smooth="yes" name="hr01"/>
      <point x="79" y="-275"/>
      <point x="49" y="-256"/>
      <point x="25" y="-235" type="curve"/>
      <point x="62" y="-166" type="line"/>
      <point x="74" y="-180"/>
      <point x="97" y="-200"/>
      <point x="121" y="-200" type="curve" smooth="yes" name="hr02"/>
      <point x="154" y="-200"/>
      <point x="174" y="-149"/>
      <point x="189" y="-108" type="curve" smooth="yes"/>
      <point x="211" y="-49" type="line" name="hr03"/>
      <point x="49" y="416" type="line"/>
      <point x="9" y="416" type="line"/>
      <point x="1" y="478" type="line"/>
      <point x="125" y="486" type="line"/>
      <point x="260" y="81" type="line"/>
      <point x="386" y="416" type="line"/>
      <point x="334" y="416" type="line"/>
      <point x="327" y="477" type="line" name="hr04"/>
      <point x="448" y="486" type="line"/>
    </contour>
  </outline>
</glyph>
<glyph name="z" format="1">
  <advance width="423"/>
  <unicode hex="007A"/>
  <outline>
    <contour>
      <point x="380" y="408" type="line" name="hr00"/>
      <point x="380" y="486" type="line"/>
      <point x="43" y="486" type="line"/>
      <point x="43" y="334" type="line"/>
      <point x="101" y="334" type="line"/>
      <point x="115" y="412" type="line"/>
      <point x="167" y="412"/>
      <point x="220" y="411"/>
      <point x="272" y="410" type="curve"/>
      <point x="43" y="77" type="line"/>
      <point x="43" y="0" type="line"/>
      <point x="380" y="0" type="line"/>
      <point x="380" y="157" type="line"/>
      <point x="323" y="157" type="line"/>
      <point x="309" y="75" type="line"/>
      <point x="150" y="75" type="line"/>
    </contour>
  </outline>
</glyph>
<glyph name="braceleft" format="1">
  <advance width="337"/>
  <unicode hex="007B"/>
  <outline>
    <contour>
      <point x="7" y="316" type="curve" name="hr00"/>
      <point x="7" y="233" type="line"/>
      <point x="66" y="233"/>
      <point x="118" y="199"/>
      <point x="118" y="135" type="curve" smooth="yes" name="hr01"/>
      <point x="118" y="110"/>
      <point x="116" y="69"/>
      <point x="116" y="38" type="curve" smooth="yes"/>
      <point x="116" y="-63"/>
      <point x="133" y="-162"/>
      <point x="265" y="-162" type="curve" smooth="yes"/>
      <point x="293" y="-162"/>
      <point x="321" y="-155"/>
      <point x="342" y="-151" type="curve"/>
      <point x="312" y="-55" type="line"/>
      <point x="241" y="-79" type="line"/>
      <point x="212" y="-65"/>
      <point x="210" y="-18"/>
      <point x="210" y="33" type="curve" smooth="yes"/>
      <point x="210" y="62"/>
      <point x="211" y="90"/>
      <point x="211" y="121" type="curve" smooth="yes"/>
      <point x="211" y="219"/>
      <point x="177" y="273"/>
      <point x="102" y="273" type="curve"/>
      <point x="182" y="276"/>
      <point x="211" y="339"/>
      <point x="211" y="426" type="curve" smooth="yes"/>
      <point x="211" y="454"/>
      <point x="210" y="477"/>
      <point x="210" y="526" type="curve" smooth="yes"/>
      <point x="210" y="570"/>
      <point x="217" y="611"/>
      <point x="241" y="624" type="curve"/>
      <point x="312" y="600" type="line"/>
      <point x="342" y="696" type="line"/>
      <point x="340" y="696"/>
      <point x="338" y="697"/>
      <point x="336" y="697" type="curve" name="hr02"/>
      <point x="316" y="701"/>
      <point x="290" y="706"/>
      <point x="265" y="706" type="curve" smooth="yes" name="hr03"/>
      <point x="135" y="706"/>
      <point x="116" y="627"/>
      <point x="116" y="509" type="curve" smooth="yes"/>
      <point x="116" y="486"/>
      <point x="118" y="441"/>
      <point x="118" y="426" type="curve" smooth="yes"/>
      <point x="118" y="354"/>
      <point x="71" y="316"/>
    </contour>
  </outline>
</glyph>
<glyph name="bar" format="1">
  <advance width="247"/>
  <unicode hex="007C"/>
  <outline>
    <contour>
      <point x="169" y="-214" type="line" name="hr00"/>
      <point x="169" y="694" type="line"/>
      <point x="78" y="694" type="line"/>
      <point x="78" y="-214" type="line"/>
    </contour>
  </outline>
</glyph>
<glyph name="braceright" format="1">
  <advance width="337"/>
  <unicode hex="007D"/>
  <outline>
    <contour>
      <point x="330" y="316" type="line" name="hr00"/>
      <point x="266" y="316"/>
      <point x="219" y="354"/>
      <point x="219" y="426" type="curve" smooth="yes"/>
      <point x="219" y="441"/>
      <point x="221" y="486"/>
      <point x="221" y="509" type="curve" smooth="yes" name="hr01"/>
      <point x="221" y="627"/>
      <point x="202" y="706"/>
      <point x="72" y="706" type="curve" smooth="yes"/>
      <point x="47" y="706"/>
      <point x="21" y="701"/>
      <point x="1" y="697" type="curve" name="hr02"/>
      <point x="-1" y="697"/>
      <point x="-3" y="696"/>
      <point x="-5" y="696" type="curve" name="hr03"/>
      <point x="25" y="600" type="line"/>
      <point x="96" y="624" type="line"/>
      <point x="120" y="611"/>
      <point x="127" y="570"/>
      <point x="127" y="526" type="curve" smooth="yes"/>
      <point x="127" y="477"/>
      <point x="126" y="454"/>
      <point x="126" y="426" type="curve" smooth="yes"/>
      <point x="126" y="339"/>
      <point x="155" y="276"/>
      <point x="235" y="276" type="curve"/>
      <point x="160" y="273"/>
      <point x="126" y="219"/>
      <point x="126" y="121" type="curve" smooth="yes"/>
      <point x="126" y="90"/>
      <point x="127" y="62"/>
      <point x="127" y="33" type="curve" smooth="yes"/>
      <point x="127" y="-18"/>
      <point x="125" y="-65"/>
      <point x="96" y="-79" type="curve"/>
      <point x="25" y="-55" type="line"/>
      <point x="-5" y="-151" type="line"/>
      <point x="16" y="-155"/>
      <point x="44" y="-162"/>
      <point x="72" y="-162" type="curve" smooth="yes"/>
      <point x="204" y="-162"/>
      <point x="221" y="-63"/>
      <point x="221" y="38" type="curve" smooth="yes"/>
      <point x="221" y="69"/>
      <point x="219" y="110"/>
      <point x="219" y="135" type="curve" smooth="yes" name="hr05"/>
      <point x="219" y="199"/>
      <point x="271" y="233"/>
      <point x="330" y="233" type="curve" name="hr04"/>
    </contour>
  </outline>
</glyph>
<glyph name="asciitilde" format="1">
  <advance width="410"/>
  <unicode hex="007E"/>
  <outline>
    <contour>
      <point x="277" y="630" type="line" name="hr00"/>
      <point x="246" y="630"/>
      <point x="200" y="675"/>
      <point x="143" y="675" type="curve" smooth="yes" name="hr01"/>
      <point x="82" y="675"/>
      <point x="45" y="632"/>
      <point x="26" y="592" type="curve"/>
      <point x="25" y="579" type="line"/>
      <point x="84" y="544" type="line"/>
      <point x="93" y="568"/>
      <point x="114" y="593"/>
      <point x="146" y="593" type="curve" smooth="yes"/>
      <point x="200" y="593"/>
      <point x="231" y="552"/>
      <point x="287" y="552" type="curve" smooth="yes" name="hr02"/>
      <point x="327" y="552"/>
      <point x="366" y="583"/>
      <point x="391" y="611" type="curve"/>
      <point x="332" y="679" type="line" name="hr03"/>
    </contour>
  </outline>
</glyph>
<glyph name="exclamdown" format="1">
  <advance width="254"/>
  <unicode hex="00A1"/>
  <outline>
    <contour>
      <point x="67" y="432" type="curve" smooth="yes" name="hr00"/>
      <point x="67" y="466"/>
      <point x="93" y="492"/>
      <point x="127" y="492" type="curve" smooth="yes"/>
      <point x="158" y="492"/>
      <point x="186" y="465"/>
      <point x="186" y="432" type="curve" smooth="yes"/>
      <point x="186" y="401"/>
      <point x="158" y="374"/>
      <point x="127" y="374" type="curve" smooth="yes"/>
      <point x="93" y="374"/>
      <point x="67" y="400"/>
    </contour>
    <contour>
      <point x="91" y="251" type="line"/>
      <point x="160" y="251" type="line"/>
      <point x="197" y="-164" type="line"/>
      <point x="176" y="-202" type="line" name="hr01"/>
      <point x="59" y="-189" type="line"/>
    </contour>
  </outline>
</glyph>
<glyph name="cent" format="1">
  <advance width="437"/>
  <unicode hex="00A2"/>
  <outline>
    <contour>
      <point x="290" y="-210" type="line" name="hr00"/>
      <point x="290" y="0" type="line"/>
      <point x="332" y="6"/>
      <point x="365" y="22"/>
      <point x="391" y="42" type="curve"/>
      <point x="385" y="59"/>
      <point x="375" y="93"/>
      <point x="369" y="112" type="curve"/>
      <point x="342" y="85"/>
      <point x="296" y="71"/>
      <point x="259" y="71" type="curve" smooth="yes"/>
      <point x="179" y="71"/>
      <point x="126" y="135"/>
      <point x="126" y="235" type="curve" smooth="yes"/>
      <point x="126" y="349"/>
      <point x="168" y="411"/>
      <point x="247" y="411" type="curve" smooth="yes"/>
      <point x="268" y="411"/>
      <point x="280" y="406"/>
      <point x="280" y="406" type="curve"/>
      <point x="312" y="348" type="line"/>
      <point x="411" y="395" type="line"/>
      <point x="399" y="420"/>
      <point x="359" y="467"/>
      <point x="290" y="481" type="curve"/>
      <point x="290" y="686" type="line"/>
      <point x="200" y="686" type="line"/>
      <point x="200" y="481" type="line"/>
      <point x="113" y="464"/>
      <point x="31" y="395"/>
      <point x="31" y="233" type="curve" smooth="yes"/>
      <point x="31" y="93"/>
      <point x="109" y="18"/>
      <point x="200" y="0" type="curve"/>
      <point x="200" y="-210" type="line"/>
    </contour>
  </outline>
</glyph>
<glyph name="sterling" format="1">
  <advance width="527"/>
  <unicode hex="00A3"/>
  <outline>
    <contour>
      <point x="391" y="338" type="line" name="hr00"/>
      <point x="391" y="405" type="line" smooth="yes"/>
      <point x="391" y="411"/>
      <point x="389" y="413"/>
      <point x="384" y="413" type="curve" smooth="yes"/>
      <point x="244" y="413" type="line"/>
      <point x="244" y="465" type="line" smooth="yes"/>
      <point x="244" y="561"/>
      <point x="245" y="613"/>
      <point x="314" y="615" type="curve"/>
      <point x="394" y="547" type="line"/>
      <point x="465" y="638" type="line"/>
      <point x="445" y="653"/>
      <point x="387" y="690"/>
      <point x="312" y="690" type="curve" smooth="yes"/>
      <point x="220" y="690"/>
      <point x="148" y="644"/>
      <point x="148" y="507" type="curve" smooth="yes"/>
      <point x="148" y="478"/>
      <point x="150" y="446"/>
      <point x="150" y="413" type="curve"/>
      <point x="66" y="413" type="line"/>
      <point x="58" y="404" type="line"/>
      <point x="58" y="338" type="line"/>
      <point x="147" y="338" type="line"/>
      <point x="142" y="244"/>
      <point x="125" y="152"/>
      <point x="72" y="99" type="curve"/>
      <point x="44" y="75"/>
      <point x="30" y="43"/>
      <point x="30" y="16" type="curve" smooth="yes"/>
      <point x="30" y="5"/>
      <point x="32" y="-3"/>
      <point x="32" y="-3" type="curve"/>
      <point x="105" y="-3" type="line"/>
      <point x="112" y="18"/>
      <point x="132" y="41"/>
      <point x="178" y="41" type="curve" smooth="yes"/>
      <point x="229" y="41"/>
      <point x="300" y="-4"/>
      <point x="387" y="-4" type="curve" smooth="yes" name="hr01"/>
      <point x="425" y="-4"/>
      <point x="473" y="5"/>
      <point x="500" y="34" type="curve"/>
      <point x="461" y="140" type="line"/>
      <point x="385" y="89" type="line"/>
      <point x="356" y="90"/>
      <point x="280" y="131"/>
      <point x="201" y="136" type="curve"/>
      <point x="227" y="190"/>
      <point x="237" y="265"/>
      <point x="241" y="338" type="curve"/>
    </contour>
  </outline>
</glyph>
<glyph name="currency" format="1">
  <advance width="602"/>
  <unicode hex="00A4"/>
  <outline>
    <contour>
      <point x="80" y="346" type="curve" smooth="yes" name="hr00"/>
      <point x="80" y="300"/>
      <point x="94" y="257"/>
      <point x="118" y="222" type="curve"/>
      <point x="51" y="155" type="line"/>
      <point x="120" y="84" type="line"/>
      <point x="192" y="155" type="line"/>
      <point x="224" y="137"/>
      <point x="261" y="127"/>
      <point x="300" y="127" type="curve" smooth="yes"/>
      <point x="340" y="127"/>
      <point x="377" y="138"/>
      <point x="409" y="156" type="curve"/>
      <point x="482" y="84" type="line"/>
      <point x="552" y="155" type="line"/>
      <point x="482" y="223" type="line"/>
      <point x="506" y="258"/>
      <point x="520" y="300"/>
      <point x="520" y="346" type="curve" smooth="yes"/>
      <point x="520" y="393"/>
      <point x="505" y="436"/>
      <point x="480" y="472" type="curve"/>
      <point x="552" y="543" type="line"/>
      <point x="482" y="614" type="line"/>
      <point x="406" y="538" type="line"/>
      <point x="375" y="556"/>
      <point x="338" y="566"/>
      <point x="300" y="566" type="curve" smooth="yes"/>
      <point x="262" y="566"/>
      <point x="226" y="556"/>
      <point x="195" y="539" type="curve"/>
      <point x="120" y="614" type="line"/>
      <point x="51" y="543" type="line"/>
      <point x="120" y="473" type="line"/>
      <point x="95" y="437"/>
      <point x="80" y="393"/>
    </contour>
    <contour>
      <point x="175" y="346" type="curve" smooth="yes"/>
      <point x="175" y="419"/>
      <point x="227" y="473"/>
      <point x="300" y="473" type="curve" smooth="yes"/>
      <point x="373" y="473"/>
      <point x="425" y="419"/>
      <point x="425" y="346" type="curve" smooth="yes"/>
      <point x="425" y="273"/>
      <point x="373" y="219"/>
      <point x="300" y="219" type="curve" smooth="yes"/>
      <point x="227" y="219"/>
      <point x="175" y="273"/>
    </contour>
  </outline>
</glyph>
<glyph name="yen" format="1">
  <advance width="610"/>
  <unicode hex="00A5"/>
  <outline>
    <contour>
      <point x="139" y="211" type="line" name="hr00"/>
      <point x="139" y="134" type="line"/>
      <point x="258" y="134" type="line"/>
      <point x="258" y="83" type="line"/>
      <point x="147" y="63" type="line"/>
      <point x="156" y="0" type="line" name="hr01"/>
      <point x="464" y="0" type="line"/>
      <point x="472" y="63" type="line"/>
      <point x="358" y="83" type="line"/>
      <point x="358" y="134" type="line" name="hr02"/>
      <point x="468" y="134" type="line"/>
      <point x="468" y="211" type="line"/>
      <point x="358" y="211" type="line"/>
      <point x="358" y="232" type="line"/>
      <point x="468" y="232" type="line"/>
      <point x="468" y="309" type="line"/>
      <point x="359" y="309" type="line"/>
      <point x="547" y="608" type="line"/>
      <point x="585" y="618" type="line"/>
      <point x="585" y="691" type="line"/>
      <point x="395" y="691" type="line"/>
      <point x="395" y="627" type="line"/>
      <point x="454" y="616" type="line"/>
      <point x="317" y="395" type="line"/>
      <point x="178" y="615" type="line"/>
      <point x="239" y="628" type="line"/>
      <point x="232" y="691" type="line"/>
      <point x="25" y="691" type="line"/>
      <point x="25" y="618" type="line"/>
      <point x="65" y="609" type="line"/>
      <point x="251" y="309" type="line"/>
      <point x="139" y="309" type="line"/>
      <point x="139" y="232" type="line"/>
      <point x="258" y="232" type="line"/>
      <point x="258" y="211" type="line"/>
    </contour>
  </outline>
</glyph>
<glyph name="brokenbar" format="1">
  <advance width="258"/>
  <unicode hex="00A6"/>
  <outline>
    <contour>
      <point x="81" y="194" type="line" name="hr00"/>
      <point x="81" y="-186" type="line"/>
      <point x="177" y="-186" type="line"/>
      <point x="177" y="194" type="line"/>
    </contour>
    <contour>
      <point x="81" y="690" type="line"/>
      <point x="81" y="310" type="line"/>
      <point x="177" y="310" type="line"/>
      <point x="177" y="690" type="line"/>
    </contour>
  </outline>
</glyph>
<glyph name="section" format="1">
  <advance width="503"/>
  <unicode hex="00A7"/>
  <outline>
    <contour>
      <point x="459" y="241" type="curve" smooth="yes" name="hr00"/>
      <point x="459" y="309"/>
      <point x="423" y="358"/>
      <point x="313" y="411" type="curve" smooth="yes"/>
      <point x="249" y="442"/>
      <point x="156" y="468"/>
      <point x="156" y="535" type="curve" smooth="yes"/>
      <point x="156" y="579"/>
      <point x="200" y="612"/>
      <point x="261" y="612" type="curve" smooth="yes"/>
      <point x="292" y="612"/>
      <point x="316" y="608"/>
      <point x="334" y="602" type="curve"/>
      <point x="377" y="489" type="line" name="hr01"/>
      <point x="446" y="489" type="line"/>
      <point x="433" y="661" type="line"/>
      <point x="383" y="678"/>
      <point x="330" y="691"/>
      <point x="259" y="691" type="curve" smooth="yes"/>
      <point x="139" y="691"/>
      <point x="52" y="619"/>
      <point x="52" y="523" type="curve" smooth="yes"/>
      <point x="52" y="472"/>
      <point x="75" y="435"/>
      <point x="109" y="406" type="curve"/>
      <point x="77" y="377"/>
      <point x="54" y="338"/>
      <point x="54" y="291" type="curve" smooth="yes"/>
      <point x="54" y="114"/>
      <point x="347" y="127"/>
      <point x="347" y="3" type="curve" smooth="yes"/>
      <point x="347" y="-58"/>
      <point x="290" y="-82"/>
      <point x="229" y="-82" type="curve" smooth="yes"/>
      <point x="193" y="-82"/>
      <point x="160" y="-75"/>
      <point x="138" y="-68" type="curve"/>
      <point x="124" y="45" type="line" name="hr02"/>
      <point x="56" y="45" type="line"/>
      <point x="48" y="-124" type="line"/>
      <point x="102" y="-145"/>
      <point x="152" y="-161"/>
      <point x="225" y="-161" type="curve" smooth="yes"/>
      <point x="341" y="-161"/>
      <point x="451" y="-108"/>
      <point x="451" y="17" type="curve" smooth="yes"/>
      <point x="451" y="62"/>
      <point x="434" y="96"/>
      <point x="405" y="124" type="curve"/>
      <point x="435" y="154"/>
      <point x="459" y="195"/>
    </contour>
    <contour>
      <point x="354" y="232" type="curve" smooth="yes"/>
      <point x="354" y="213"/>
      <point x="343" y="193"/>
      <point x="331" y="177" type="curve"/>
      <point x="312" y="188"/>
      <point x="291" y="198"/>
      <point x="269" y="208" type="curve" smooth="yes"/>
      <point x="202" y="239"/>
      <point x="158" y="262"/>
      <point x="158" y="306" type="curve" smooth="yes"/>
      <point x="158" y="327"/>
      <point x="169" y="345"/>
      <point x="183" y="360" type="curve"/>
      <point x="264" y="319"/>
      <point x="354" y="292"/>
    </contour>
  </outline>
</glyph>
<glyph name="dieresis" format="1">
  <advance width="386"/>
  <unicode hex="00A8"/>
  <outline>
    <contour>
      <point x="216" y="609" type="curve" smooth="yes" name="hr00"/>
      <point x="216" y="578"/>
      <point x="244" y="550"/>
      <point x="276" y="550" type="curve" smooth="yes"/>
      <point x="307" y="550"/>
      <point x="334" y="577"/>
      <point x="334" y="609" type="curve" smooth="yes"/>
      <point x="334" y="640"/>
      <point x="308" y="668"/>
      <point x="276" y="668" type="curve" smooth="yes"/>
      <point x="243" y="668"/>
      <point x="216" y="640"/>
    </contour>
    <contour>
      <point x="52" y="609" type="curve" smooth="yes"/>
      <point x="52" y="577"/>
      <point x="78" y="550"/>
      <point x="110" y="550" type="curve" smooth="yes"/>
      <point x="140" y="550"/>
      <point x="169" y="576"/>
      <point x="169" y="609" type="curve" smooth="yes"/>
      <point x="169" y="640"/>
      <point x="142" y="668"/>
      <point x="110" y="668" type="curve" smooth="yes"/>
      <point x="77" y="668"/>
      <point x="52" y="640"/>
    </contour>
  </outline>
</glyph>
<glyph name="copyright" format="1">
  <advance width="716"/>
  <unicode hex="00A9"/>
  <outline>
    <contour>
      <point x="445" y="281" type="line" name="hr00"/>
      <point x="428" y="271"/>
      <point x="398" y="259"/>
      <point x="370" y="259" type="curve" smooth="yes"/>
      <point x="304" y="259"/>
      <point x="260" y="307"/>
      <point x="260" y="370" type="curve" smooth="yes"/>
      <point x="260" y="447"/>
      <point x="306" y="484"/>
      <point x="373" y="484" type="curve" smooth="yes"/>
      <point x="380" y="484"/>
      <point x="386" y="483"/>
      <point x="391" y="483" type="curve"/>
      <point x="405" y="432" type="line"/>
      <point x="452" y="432" type="line"/>
      <point x="443" y="553" type="line"/>
      <point x="417" y="558" type="line"/>
      <point x="405" y="559"/>
      <point x="389" y="560"/>
      <point x="371" y="560" type="curve" smooth="yes"/>
      <point x="267" y="560"/>
      <point x="183" y="488"/>
      <point x="183" y="367" type="curve" smooth="yes"/>
      <point x="183" y="256"/>
      <point x="266" y="185"/>
      <point x="370" y="185" type="curve" smooth="yes"/>
      <point x="414" y="185"/>
      <point x="449" y="201"/>
      <point x="471" y="216" type="curve"/>
    </contour>
    <contour>
      <point x="120" y="374" type="curve" smooth="yes"/>
      <point x="120" y="506"/>
      <point x="226" y="612"/>
      <point x="358" y="612" type="curve" smooth="yes"/>
      <point x="490" y="612"/>
      <point x="596" y="506"/>
      <point x="596" y="374" type="curve" smooth="yes"/>
      <point x="596" y="242"/>
      <point x="490" y="136"/>
      <point x="358" y="136" type="curve" smooth="yes"/>
      <point x="226" y="136"/>
      <point x="120" y="242"/>
    </contour>
    <contour>
      <point x="32" y="374" type="curve" smooth="yes"/>
      <point x="32" y="193"/>
      <point x="177" y="48"/>
      <point x="358" y="48" type="curve" smooth="yes"/>
      <point x="538" y="48"/>
      <point x="684" y="193"/>
      <point x="684" y="374" type="curve" smooth="yes"/>
      <point x="684" y="554"/>
      <point x="538" y="700"/>
      <point x="358" y="700" type="curve" smooth="yes"/>
      <point x="177" y="700"/>
      <point x="32" y="554"/>
    </contour>
  </outline>
</glyph>
<glyph name="ordfeminine" format="1">
  <advance width="342"/>
  <unicode hex="00AA"/>
  <outline>
    <contour>
      <point x="275" y="541" type="curve" smooth="yes" name="hr00"/>
      <point x="275" y="633"/>
      <point x="275" y="710"/>
      <point x="155" y="710" type="curve" smooth="yes"/>
      <point x="107" y="710"/>
      <point x="52" y="687"/>
      <point x="39" y="632" type="curve"/>
      <point x="126" y="615" type="line"/>
      <point x="130" y="639" type="line"/>
      <point x="136" y="640"/>
      <point x="149" y="642"/>
      <point x="154" y="642" type="curve" smooth="yes"/>
      <point x="176" y="642"/>
      <point x="194" y="636"/>
      <point x="194" y="605" type="curve" smooth="yes"/>
      <point x="194" y="596" type="line"/>
      <point x="116" y="595"/>
      <point x="38" y="584"/>
      <point x="38" y="500" type="curve" smooth="yes"/>
      <point x="38" y="453"/>
      <point x="79" y="417"/>
      <point x="132" y="417" type="curve" smooth="yes"/>
      <point x="161" y="417"/>
      <point x="187" y="425"/>
      <point x="206" y="443" type="curve"/>
      <point x="215" y="429"/>
      <point x="231" y="419"/>
      <point x="255" y="419" type="curve" smooth="yes"/>
      <point x="280" y="419"/>
      <point x="301" y="433"/>
      <point x="311" y="441" type="curve"/>
      <point x="296" y="487" type="line"/>
      <point x="293" y="487"/>
      <point x="287" y="484"/>
      <point x="283" y="484" type="curve" smooth="yes"/>
      <point x="276" y="484"/>
      <point x="275" y="489"/>
    </contour>
    <contour>
      <point x="149" y="478" type="curve" smooth="yes"/>
      <point x="125" y="478"/>
      <point x="118" y="494"/>
      <point x="118" y="507" type="curve" smooth="yes"/>
      <point x="118" y="540"/>
      <point x="159" y="545"/>
      <point x="194" y="546" type="curve"/>
      <point x="194" y="503" type="line"/>
      <point x="187" y="488"/>
      <point x="170" y="478"/>
    </contour>
  </outline>
</glyph>
<glyph name="guillemotleft" format="1">
  <advance width="461"/>
  <unicode hex="00AB"/>
  <outline>
    <contour>
      <point x="219" y="123" type="line" name="hr00"/>
      <point x="273" y="176" type="line"/>
      <point x="112" y="338" type="line"/>
      <point x="273" y="499" type="line"/>
      <point x="219" y="553" type="line"/>
      <point x="6" y="339" type="line"/>
    </contour>
    <contour>
      <point x="368" y="144" type="line"/>
      <point x="422" y="197" type="line"/>
      <point x="282" y="338" type="line"/>
      <point x="422" y="478" type="line"/>
      <point x="368" y="532" type="line"/>
      <point x="176" y="339" type="line"/>
    </contour>
  </outline>
</glyph>
<glyph name="logicalnot" format="1">
  <advance width="588"/>
  <unicode hex="00AC"/>
  <outline>
    <contour>
      <point x="446" y="380" type="line" name="hr00"/>
      <point x="446" y="235" type="line" name="hr01"/>
      <point x="516" y="235" type="line" smooth="yes"/>
      <point x="520" y="235"/>
      <point x="524" y="237"/>
      <point x="524" y="242" type="curve" smooth="yes"/>
      <point x="524" y="444" type="line"/>
      <point x="513" y="455" type="line"/>
      <point x="60" y="455" type="line"/>
      <point x="49" y="444" type="line"/>
      <point x="49" y="380" type="line" name="hr02"/>
    </contour>
  </outline>
</glyph>
<glyph name="uni00AD" format="1">
  <advance width="403"/>
  <unicode hex="00AD"/>
  <outline>
    <contour>
      <point x="430" y="312" type="line" name="hr00"/>
      <point x="430" y="398" type="line"/>
      <point x="-28" y="398" type="line"/>
      <point x="-28" y="312" type="line"/>
    </contour>
  </outline>
</glyph>
<glyph name="registered" format="1">
  <advance width="716"/>
  <unicode hex="00AE"/>
  <outline>
    <contour>
      <point x="32" y="374" type="curve" smooth="yes" name="hr00"/>
      <point x="32" y="193"/>
      <point x="177" y="48"/>
      <point x="358" y="48" type="curve" smooth="yes"/>
      <point x="538" y="48"/>
      <point x="684" y="193"/>
      <point x="684" y="374" type="curve" smooth="yes"/>
      <point x="684" y="554"/>
      <point x="538" y="700"/>
      <point x="358" y="700" type="curve" smooth="yes"/>
      <point x="177" y="700"/>
      <point x="32" y="554"/>
    </contour>
    <contour>
      <point x="120" y="374" type="curve" smooth="yes"/>
      <point x="120" y="506"/>
      <point x="226" y="612"/>
      <point x="358" y="612" type="curve" smooth="yes"/>
      <point x="490" y="612"/>
      <point x="596" y="506"/>
      <point x="596" y="374" type="curve" smooth="yes"/>
      <point x="596" y="242"/>
      <point x="490" y="136"/>
      <point x="358" y="136" type="curve" smooth="yes"/>
      <point x="226" y="136"/>
      <point x="120" y="242"/>
    </contour>
    <contour>
      <point x="476" y="249" type="line"/>
      <point x="430" y="333" type="line"/>
      <point x="469" y="351"/>
      <point x="495" y="383"/>
      <point x="495" y="436" type="curve" smooth="yes"/>
      <point x="495" y="504"/>
      <point x="448" y="559"/>
      <point x="328" y="559" type="curve" smooth="yes"/>
      <point x="228" y="559" type="line"/>
      <point x="228" y="501" type="line"/>
      <point x="236" y="500"/>
      <point x="242" y="497"/>
      <point x="252" y="496" type="curve"/>
      <point x="252" y="249" type="line"/>
      <point x="229" y="241" type="line"/>
      <point x="233" y="193" type="line"/>
      <point x="367" y="193" type="line"/>
      <point x="367" y="239" type="line"/>
      <point x="321" y="250" type="line"/>
      <point x="321" y="314" type="line"/>
      <point x="335" y="314"/>
      <point x="348" y="314"/>
      <point x="362" y="316" type="curve"/>
      <point x="419" y="193" type="line"/>
      <point x="507" y="193" type="line"/>
      <point x="507" y="243" type="line"/>
    </contour>
    <contour>
      <point x="335" y="379" type="curve"/>
      <point x="321" y="379" type="line"/>
      <point x="321" y="492" type="line"/>
      <point x="339" y="492" type="line" smooth="yes"/>
      <point x="389" y="492"/>
      <point x="422" y="474"/>
      <point x="422" y="436" type="curve" smooth="yes"/>
      <point x="422" y="400"/>
      <point x="397" y="379"/>
    </contour>
  </outline>
</glyph>
<glyph name="macron" format="1">
  <advance width="442"/>
  <unicode hex="00AF"/>
  <outline>
    <contour>
      <point x="385" y="614" type="line" name="hr00"/>
      <point x="385" y="690" type="line"/>
      <point x="57" y="690" type="line"/>
      <point x="57" y="614" type="line"/>
    </contour>
  </outline>
</glyph>
<glyph name="degree" format="1">
  <advance width="305"/>
  <unicode hex="00B0"/>
  <outline>
    <contour>
      <point x="112" y="596" type="curve" smooth="yes" name="hr00"/>
      <point x="112" y="619"/>
      <point x="118" y="659"/>
      <point x="152" y="659" type="curve" smooth="yes"/>
      <point x="183" y="659"/>
      <point x="193" y="619"/>
      <point x="193" y="596" type="curve" smooth="yes"/>
      <point x="193" y="571"/>
      <point x="183" y="531"/>
      <point x="152" y="531" type="curve" smooth="yes"/>
      <point x="118" y="531"/>
      <point x="112" y="572"/>
    </contour>
    <contour>
      <point x="33" y="596" type="curve" smooth="yes"/>
      <point x="33" y="519"/>
      <point x="75" y="463"/>
      <point x="152" y="463" type="curve" smooth="yes"/>
      <point x="227" y="463"/>
      <point x="272" y="519"/>
      <point x="272" y="596" type="curve" smooth="yes"/>
      <point x="272" y="671"/>
      <point x="225" y="729"/>
      <point x="152" y="729" type="curve" smooth="yes"/>
      <point x="76" y="729"/>
      <point x="33" y="671"/>
    </contour>
  </outline>
</glyph>
<glyph name="plusminus" format="1">
  <advance width="455"/>
  <unicode hex="00B1"/>
  <outline>
    <contour>
      <point x="63" y="487" type="line" name="hr00"/>
      <point x="63" y="411" type="line"/>
      <point x="189" y="411" type="line"/>
      <point x="189" y="282" type="line"/>
      <point x="265" y="282" type="line"/>
      <point x="265" y="411" type="line"/>
      <point x="392" y="411" type="line"/>
      <point x="392" y="487" type="line"/>
      <point x="265" y="487" type="line"/>
      <point x="265" y="604" type="line"/>
      <point x="189" y="604" type="line"/>
      <point x="189" y="487" type="line"/>
    </contour>
    <contour>
      <point x="63" y="245" type="line"/>
      <point x="63" y="169" type="line"/>
      <point x="392" y="169" type="line"/>
      <point x="392" y="245" type="line"/>
    </contour>
  </outline>
</glyph>
<glyph name="twosuperior" format="1">
  <advance width="300"/>
  <unicode hex="00B2"/>
  <outline>
    <contour>
      <point x="56" y="418" type="line" name="hr00"/>
      <point x="247" y="418" type="line"/>
      <point x="258" y="510" type="line"/>
      <point x="216" y="510" type="line"/>
      <point x="201" y="476" type="line"/>
      <point x="149" y="476" type="line"/>
      <point x="176" y="500"/>
      <point x="251" y="544"/>
      <point x="251" y="621" type="curve" smooth="yes"/>
      <point x="251" y="679"/>
      <point x="199" y="709"/>
      <point x="152" y="709" type="curve" smooth="yes"/>
      <point x="103" y="709"/>
      <point x="53" y="684"/>
      <point x="35" y="628" type="curve"/>
      <point x="103" y="607" type="line"/>
      <point x="118" y="643" type="line"/>
      <point x="125" y="645"/>
      <point x="132" y="647"/>
      <point x="139" y="647" type="curve" smooth="yes"/>
      <point x="160" y="647"/>
      <point x="172" y="638"/>
      <point x="172" y="614" type="curve" smooth="yes"/>
      <point x="172" y="574"/>
      <point x="113" y="521"/>
      <point x="81" y="492" type="curve" smooth="yes"/>
      <point x="46" y="461" type="line"/>
    </contour>
  </outline>
</glyph>
<glyph name="threesuperior" format="1">
  <advance width="295"/>
  <unicode hex="00B3"/>
  <outline>
    <contour>
      <point x="66" y="509" type="curve" name="hr00"/>
      <point x="35" y="456" type="line"/>
      <point x="54" y="438"/>
      <point x="92" y="414"/>
      <point x="139" y="414" type="curve" smooth="yes"/>
      <point x="200" y="414"/>
      <point x="258" y="441"/>
      <point x="258" y="502" type="curve" smooth="yes"/>
      <point x="258" y="545"/>
      <point x="228" y="563"/>
      <point x="199" y="569" type="curve"/>
      <point x="228" y="575"/>
      <point x="248" y="596"/>
      <point x="248" y="632" type="curve" smooth="yes"/>
      <point x="248" y="681"/>
      <point x="192" y="709"/>
      <point x="152" y="709" type="curve" smooth="yes"/>
      <point x="97" y="709"/>
      <point x="57" y="684"/>
      <point x="38" y="635" type="curve"/>
      <point x="104" y="613" type="line"/>
      <point x="118" y="643" type="line" smooth="yes"/>
      <point x="121" y="648"/>
      <point x="135" y="648"/>
      <point x="141" y="648" type="curve" smooth="yes"/>
      <point x="161" y="648"/>
      <point x="170" y="634"/>
      <point x="170" y="624" type="curve" smooth="yes"/>
      <point x="170" y="605"/>
      <point x="157" y="589"/>
      <point x="109" y="589" type="curve"/>
      <point x="109" y="541" type="line"/>
      <point x="153" y="541"/>
      <point x="180" y="534"/>
      <point x="180" y="510" type="curve" smooth="yes"/>
      <point x="180" y="490"/>
      <point x="165" y="474"/>
      <point x="139" y="474" type="curve" smooth="yes" name="hr01"/>
      <point x="107" y="474"/>
      <point x="88" y="490"/>
    </contour>
  </outline>
</glyph>
<glyph name="acute" format="1">
  <advance width="313"/>
  <unicode hex="00B4"/>
  <outline>
    <contour>
      <point x="52" y="549" type="line" name="hr00"/>
      <point x="93" y="505" type="line"/>
      <point x="261" y="627" type="line"/>
      <point x="200" y="708" type="line"/>
      <point x="168" y="700" type="line"/>
    </contour>
  </outline>
</glyph>
<glyph name="mu" format="1">
  <advance width="536"/>
  <unicode hex="00B5"/>
  <unicode hex="03BC"/>
  <outline>
    <contour>
      <point x="306" y="405" type="line" name="hr00"/>
      <point x="355" y="405" type="line"/>
      <point x="355" y="120" type="line"/>
      <point x="338" y="87"/>
      <point x="289" y="72"/>
      <point x="268" y="72" type="curve" smooth="yes"/>
      <point x="245" y="72"/>
      <point x="190" y="78"/>
      <point x="183" y="147" type="curve"/>
      <point x="183" y="236" type="line" smooth="yes"/>
      <point x="183" y="325"/>
      <point x="182" y="415"/>
      <point x="182" y="454" type="curve"/>
      <point x="151" y="486" type="line"/>
      <point x="27" y="464" type="line"/>
      <point x="36" y="406" type="line"/>
      <point x="90" y="406" type="line"/>
      <point x="90" y="-274" type="line"/>
      <point x="182" y="-274" type="line"/>
      <point x="182" y="-5" type="line"/>
      <point x="179" y="10" type="line"/>
      <point x="201" y="1"/>
      <point x="227" y="-4"/>
      <point x="256" y="-4" type="curve" smooth="yes"/>
      <point x="297" y="-4"/>
      <point x="335" y="11"/>
      <point x="363" y="39" type="curve"/>
      <point x="375" y="10"/>
      <point x="397" y="-4"/>
      <point x="430" y="-4" type="curve" smooth="yes"/>
      <point x="462" y="-4"/>
      <point x="487" y="14"/>
      <point x="497" y="24" type="curve"/>
      <point x="483" y="69" type="line"/>
      <point x="479" y="69"/>
      <point x="472" y="67"/>
      <point x="466" y="67" type="curve" smooth="yes"/>
      <point x="453" y="67"/>
      <point x="447" y="72"/>
      <point x="447" y="100" type="curve" smooth="yes"/>
      <point x="447" y="453" type="line"/>
      <point x="418" y="487" type="line"/>
      <point x="296" y="464" type="line"/>
    </contour>
  </outline>
</glyph>
<glyph name="periodcentered" format="1">
  <advance width="237"/>
  <unicode hex="00B7"/>
  <outline>
    <contour>
      <point x="59" y="399" type="line" name="hr00"/>
      <point x="59" y="239" type="line"/>
      <point x="178" y="239" type="line"/>
      <point x="178" y="288"/>
      <point x="179" y="336"/>
      <point x="179" y="384" type="curve"/>
      <point x="166" y="399" type="line"/>
    </contour>
  </outline>
</glyph>
<glyph name="cedilla" format="1">
  <advance width="406"/>
  <unicode hex="00B8"/>
  <outline>
    <contour>
      <point x="158" y="-101" type="line" name="hr00"/>
      <point x="171" y="-102" type="line"/>
      <point x="228" y="-102"/>
      <point x="250" y="-129"/>
      <point x="250" y="-159" type="curve" smooth="yes"/>
      <point x="250" y="-197"/>
      <point x="206" y="-210"/>
      <point x="186" y="-210" type="curve"/>
      <point x="115" y="-163" type="line"/>
      <point x="72" y="-249" type="line"/>
      <point x="105" y="-267"/>
      <point x="142" y="-276"/>
      <point x="192" y="-276" type="curve" smooth="yes"/>
      <point x="286" y="-276"/>
      <point x="344" y="-224"/>
      <point x="344" y="-156" type="curve" smooth="yes"/>
      <point x="344" y="-90"/>
      <point x="301" y="-56"/>
      <point x="252" y="-43" type="curve"/>
      <point x="275" y="15" type="line"/>
      <point x="176" y="15" type="line"/>
      <point x="141" y="-82" type="line"/>
    </contour>
  </outline>
</glyph>
<glyph name="onesuperior" format="1">
  <advance width="237"/>
  <unicode hex="00B9"/>
  <outline>
    <contour>
      <point x="49" y="458" type="line" name="hr00"/>
      <point x="52" y="418" type="line"/>
      <point x="199" y="418" type="line"/>
      <point x="199" y="460" type="line"/>
      <point x="163" y="468" type="line"/>
      <point x="163" y="701" type="line"/>
      <point x="152" y="717" type="line"/>
      <point x="34" y="683" type="line"/>
      <point x="43" y="636" type="line"/>
      <point x="87" y="644" type="line"/>
      <point x="87" y="465" type="line"/>
    </contour>
  </outline>
</glyph>
<glyph name="ordmasculine" format="1">
  <advance width="334"/>
  <unicode hex="00BA"/>
  <outline>
    <contour>
      <point x="114" y="561" type="curve" smooth="yes" name="hr00"/>
      <point x="114" y="602"/>
      <point x="132" y="636"/>
      <point x="167" y="636" type="curve" smooth="yes"/>
      <point x="203" y="636"/>
      <point x="221" y="603"/>
      <point x="221" y="561" type="curve" smooth="yes"/>
      <point x="221" y="516"/>
      <point x="202" y="488"/>
      <point x="167" y="488" type="curve" smooth="yes"/>
      <point x="132" y="488"/>
      <point x="114" y="517"/>
    </contour>
    <contour>
      <point x="34" y="563" type="curve" smooth="yes"/>
      <point x="34" y="462"/>
      <point x="93" y="414"/>
      <point x="167" y="414" type="curve" smooth="yes"/>
      <point x="242" y="414"/>
      <point x="300" y="464"/>
      <point x="300" y="563" type="curve" smooth="yes"/>
      <point x="300" y="661"/>
      <point x="242" y="711"/>
      <point x="167" y="711" type="curve" smooth="yes"/>
      <point x="93" y="711"/>
      <point x="34" y="663"/>
    </contour>
  </outline>
</glyph>
<glyph name="guillemotright" format="1">
  <advance width="462"/>
  <unicode hex="00BB"/>
  <outline>
    <contour>
      <point x="190" y="176" type="line" name="hr00"/>
      <point x="244" y="123" type="line"/>
      <point x="457" y="337" type="line"/>
      <point x="244" y="553" type="line"/>
      <point x="189" y="499" type="line"/>
      <point x="350" y="337" type="line"/>
    </contour>
    <contour>
      <point x="40" y="197" type="line"/>
      <point x="94" y="144" type="line"/>
      <point x="286" y="337" type="line"/>
      <point x="94" y="532" type="line"/>
      <point x="40" y="478" type="line"/>
      <point x="179" y="338" type="line"/>
    </contour>
  </outline>
</glyph>
<glyph name="onequarter" format="1">
  <advance width="656"/>
  <unicode hex="00BC"/>
  <outline>
    <contour>
      <point x="625" y="108" type="line" name="hr00"/>
      <point x="625" y="174" type="line"/>
      <point x="578" y="174" type="line"/>
      <point x="578" y="386" type="line"/>
      <point x="490" y="386" type="line"/>
      <point x="335" y="181" type="line"/>
      <point x="335" y="108" type="line" name="hr01"/>
      <point x="494" y="108" type="line" name="hr02"/>
      <point x="494" y="56" type="line"/>
      <point x="410" y="44" type="line"/>
      <point x="414" y="0" type="line" name="hr03"/>
      <point x="620" y="0" type="line"/>
      <point x="620" y="49" type="line"/>
      <point x="578" y="55" type="line"/>
      <point x="578" y="108" type="line" name="hr04"/>
    </contour>
    <contour>
      <point x="183" y="-11" type="line"/>
      <point x="516" y="677" type="line"/>
      <point x="516" y="681"/>
      <point x="517" y="687"/>
      <point x="517" y="691" type="curve"/>
      <point x="428" y="691" type="line"/>
      <point x="94" y="2" type="line" name="hr06"/>
      <point x="97" y="0" type="line" name="hr05"/>
    </contour>
    <contour>
      <point x="46" y="360" type="line"/>
      <point x="46" y="315" type="line"/>
      <point x="211" y="315" type="line"/>
      <point x="211" y="362" type="line"/>
      <point x="201" y="363"/>
      <point x="175" y="363"/>
      <point x="175" y="371" type="curve" smooth="yes"/>
      <point x="175" y="627" type="line"/>
      <point x="176" y="635"/>
      <point x="176" y="643"/>
      <point x="176" y="651" type="curve" smooth="yes"/>
      <point x="176" y="695" type="line"/>
      <point x="164" y="703" type="line"/>
      <point x="31" y="665" type="line"/>
      <point x="39" y="614" type="line"/>
      <point x="91" y="622" type="line"/>
      <point x="91" y="367" type="line"/>
    </contour>
    <contour>
      <point x="404" y="174" type="line" name="hr07"/>
      <point x="494" y="290" type="line"/>
      <point x="494" y="174" type="line"/>
    </contour>
  </outline>
</glyph>
<glyph name="onehalf" format="1">
  <advance width="701"/>
  <unicode hex="00BD"/>
  <outline>
    <contour>
      <point x="185" y="-11" type="line" name="hr00"/>
      <point x="518" y="677" type="line"/>
      <point x="518" y="681"/>
      <point x="519" y="687"/>
      <point x="519" y="691" type="curve"/>
      <point x="430" y="691" type="line"/>
      <point x="96" y="2" type="line" name="hr02"/>
      <point x="99" y="0" type="line" name="hr01"/>
    </contour>
    <contour>
      <point x="408" y="0" type="line" name="hr03"/>
      <point x="659" y="0" type="line"/>
      <point x="672" y="121" type="line"/>
      <point x="627" y="121" type="line"/>
      <point x="606" y="65" type="line"/>
      <point x="517" y="65" type="line"/>
      <point x="527" y="76" type="line" smooth="yes"/>
      <point x="581" y="134"/>
      <point x="643" y="202"/>
      <point x="643" y="274" type="curve" smooth="yes"/>
      <point x="643" y="335"/>
      <point x="603" y="388"/>
      <point x="517" y="388" type="curve" smooth="yes"/>
      <point x="448" y="388"/>
      <point x="408" y="356"/>
      <point x="379" y="297" type="curve"/>
      <point x="464" y="257" type="line"/>
      <point x="488" y="314" type="line"/>
      <point x="494" y="317"/>
      <point x="502" y="320"/>
      <point x="515" y="320" type="curve" smooth="yes"/>
      <point x="532" y="320"/>
      <point x="556" y="311"/>
      <point x="556" y="281" type="curve" smooth="yes"/>
      <point x="556" y="197"/>
      <point x="444" y="99"/>
      <point x="395" y="49" type="curve"/>
    </contour>
    <contour>
      <point x="48" y="360" type="line"/>
      <point x="48" y="315" type="line"/>
      <point x="213" y="315" type="line"/>
      <point x="213" y="362" type="line"/>
      <point x="203" y="363"/>
      <point x="177" y="363"/>
      <point x="177" y="371" type="curve" smooth="yes"/>
      <point x="177" y="627" type="line"/>
      <point x="178" y="635"/>
      <point x="178" y="643"/>
      <point x="178" y="651" type="curve" smooth="yes"/>
      <point x="178" y="695" type="line"/>
      <point x="166" y="703" type="line"/>
      <point x="33" y="665" type="line"/>
      <point x="41" y="614" type="line"/>
      <point x="93" y="622" type="line"/>
      <point x="93" y="367" type="line"/>
    </contour>
  </outline>
</glyph>
<glyph name="threequarters" format="1">
  <advance width="706"/>
  <unicode hex="00BE"/>
  <outline>
    <contour>
      <point x="673" y="108" type="line" name="hr00"/>
      <point x="673" y="174" type="line"/>
      <point x="626" y="174" type="line"/>
      <point x="626" y="386" type="line"/>
      <point x="538" y="386" type="line"/>
      <point x="383" y="181" type="line"/>
      <point x="383" y="108" type="line" name="hr01"/>
      <point x="542" y="108" type="line" name="hr02"/>
      <point x="542" y="56" type="line"/>
      <point x="458" y="44" type="line"/>
      <point x="462" y="0" type="line" name="hr03"/>
      <point x="668" y="0" type="line"/>
      <point x="668" y="49" type="line"/>
      <point x="626" y="55" type="line"/>
      <point x="626" y="108" type="line" name="hr04"/>
    </contour>
    <contour>
      <point x="238" y="-11" type="line"/>
      <point x="571" y="677" type="line"/>
      <point x="571" y="681"/>
      <point x="572" y="687"/>
      <point x="572" y="691" type="curve"/>
      <point x="482" y="691" type="line"/>
      <point x="149" y="2" type="line" name="hr06"/>
      <point x="152" y="0" type="line" name="hr05"/>
    </contour>
    <contour>
      <point x="40" y="344" type="line"/>
      <point x="66" y="324"/>
      <point x="107" y="309"/>
      <point x="157" y="309" type="curve" smooth="yes"/>
      <point x="230" y="309"/>
      <point x="306" y="345"/>
      <point x="306" y="428" type="curve" smooth="yes"/>
      <point x="306" y="469"/>
      <point x="282" y="500"/>
      <point x="239" y="512" type="curve"/>
      <point x="278" y="524"/>
      <point x="300" y="558"/>
      <point x="300" y="598" type="curve" smooth="yes"/>
      <point x="300" y="667"/>
      <point x="242" y="701"/>
      <point x="174" y="701" type="curve" smooth="yes"/>
      <point x="95" y="701"/>
      <point x="46" y="655"/>
      <point x="29" y="611" type="curve"/>
      <point x="105" y="576" type="line"/>
      <point x="128" y="625" type="line"/>
      <point x="135" y="628"/>
      <point x="144" y="633"/>
      <point x="164" y="633" type="curve" smooth="yes"/>
      <point x="187" y="633"/>
      <point x="217" y="617"/>
      <point x="217" y="590" type="curve" smooth="yes"/>
      <point x="217" y="546"/>
      <point x="177" y="540"/>
      <point x="136" y="540" type="curve" smooth="yes"/>
      <point x="123" y="540" type="line"/>
      <point x="123" y="482" type="line"/>
      <point x="136" y="482" type="line" smooth="yes"/>
      <point x="189" y="482"/>
      <point x="220" y="465"/>
      <point x="220" y="427" type="curve" smooth="yes"/>
      <point x="220" y="389"/>
      <point x="182" y="377"/>
      <point x="159" y="377" type="curve" smooth="yes"/>
      <point x="138" y="377"/>
      <point x="113" y="385"/>
      <point x="94" y="400" type="curve"/>
    </contour>
    <contour>
      <point x="452" y="174" type="line" name="hr07"/>
      <point x="542" y="290" type="line"/>
      <point x="542" y="174" type="line"/>
    </contour>
  </outline>
</glyph>
<glyph name="questiondown" format="1">
  <advance width="391"/>
  <unicode hex="00BF"/>
  <outline>
    <contour>
      <point x="307" y="427" type="curve" smooth="yes" name="hr00"/>
      <point x="307" y="460"/>
      <point x="280" y="487"/>
      <point x="247" y="487" type="curve" smooth="yes"/>
      <point x="214" y="487"/>
      <point x="188" y="461"/>
      <point x="188" y="427" type="curve" smooth="yes"/>
      <point x="188" y="395"/>
      <point x="213" y="369"/>
      <point x="247" y="369" type="curve" smooth="yes"/>
      <point x="279" y="369"/>
      <point x="307" y="395"/>
    </contour>
    <contour>
      <point x="290" y="248" type="line"/>
      <point x="264" y="248"/>
      <point x="237" y="247"/>
      <point x="211" y="247" type="curve" name="hr01"/>
      <point x="211" y="235" type="line" smooth="yes"/>
      <point x="211" y="184"/>
      <point x="180" y="158"/>
      <point x="118" y="112" type="curve" smooth="yes"/>
      <point x="66" y="73"/>
      <point x="23" y="21"/>
      <point x="23" y="-59" type="curve" smooth="yes"/>
      <point x="23" y="-145"/>
      <point x="85" y="-206"/>
      <point x="195" y="-206" type="curve" smooth="yes"/>
      <point x="253" y="-206"/>
      <point x="297" y="-192"/>
      <point x="340" y="-177" type="curve"/>
      <point x="357" y="-19" type="line"/>
      <point x="296" y="-19" type="line"/>
      <point x="270" y="-114" type="line"/>
      <point x="256" y="-119"/>
      <point x="229" y="-123"/>
      <point x="207" y="-123" type="curve" smooth="yes" name="hr02"/>
      <point x="149" y="-123"/>
      <point x="128" y="-83"/>
      <point x="128" y="-48" type="curve" smooth="yes"/>
      <point x="128" y="65"/>
      <point x="295" y="64"/>
      <point x="295" y="201" type="curve" smooth="yes"/>
      <point x="295" y="214"/>
      <point x="294" y="228"/>
      <point x="292" y="238" type="curve" smooth="yes"/>
    </contour>
  </outline>
</glyph>
<glyph name="Agrave" format="1">
  <advance width="608"/>
  <unicode hex="00C0"/>
  <outline>
    <contour>
      <point x="362" y="0" type="line" name="hr00"/>
      <point x="597" y="0" type="line"/>
      <point x="608" y="62" type="line"/>
      <point x="562" y="80" type="line"/>
      <point x="349" y="691" type="line"/>
      <point x="253" y="691" type="line"/>
      <point x="51" y="80" type="line"/>
      <point x="-1" y="62" type="line"/>
      <point x="12" y="0" type="line"/>
      <point x="228" y="0" type="line"/>
      <point x="228" y="60" type="line"/>
      <point x="142" y="80" type="line"/>
      <point x="188" y="230" type="line"/>
      <point x="402" y="230" type="line"/>
      <point x="450" y="80" type="line"/>
      <point x="362" y="59" type="line"/>
    </contour>
    <contour>
      <point x="382" y="720" type="line"/>
      <point x="419" y="764" type="line"/>
      <point x="279" y="919" type="line"/>
      <point x="245" y="925" type="line"/>
      <point x="189" y="843" type="line"/>
    </contour>
    <contour>
      <point x="292" y="565" type="line"/>
      <point x="374" y="314" type="line"/>
      <point x="214" y="314" type="line"/>
    </contour>
  </outline>
</glyph>
<glyph name="Atilde" format="1">
  <advance width="608"/>
  <unicode hex="00C3"/>
  <outline>
    <contour>
      <point x="12" y="0" type="line" name="hr00"/>
      <point x="228" y="0" type="line"/>
      <point x="228" y="60" type="line"/>
      <point x="142" y="80" type="line"/>
      <point x="188" y="228" type="line"/>
      <point x="402" y="228" type="line"/>
      <point x="450" y="80" type="line"/>
      <point x="362" y="59" type="line"/>
      <point x="362" y="0" type="line"/>
      <point x="597" y="0" type="line"/>
      <point x="608" y="62" type="line"/>
      <point x="562" y="80" type="line"/>
      <point x="349" y="691" type="line"/>
      <point x="253" y="691" type="line"/>
      <point x="51" y="80" type="line"/>
      <point x="-1" y="62" type="line"/>
    </contour>
    <contour>
      <point x="384" y="802" type="line"/>
      <point x="375" y="808" type="line" smooth="yes"/>
      <point x="344" y="830"/>
      <point x="307" y="857"/>
      <point x="257" y="857" type="curve" smooth="yes"/>
      <point x="179" y="857"/>
      <point x="145" y="801"/>
      <point x="134" y="778" type="curve"/>
      <point x="134" y="761" type="line"/>
      <point x="190" y="727" type="line"/>
      <point x="201" y="750"/>
      <point x="220" y="778"/>
      <point x="261" y="778" type="curve" smooth="yes"/>
      <point x="320" y="778"/>
      <point x="340" y="730"/>
      <point x="404" y="730" type="curve" smooth="yes" name="hr01"/>
      <point x="440" y="730"/>
      <point x="481" y="764"/>
      <point x="504" y="791" type="curve"/>
      <point x="445" y="858" type="line" name="hr02"/>
    </contour>
    <contour>
      <point x="292" y="565" type="line"/>
      <point x="374" y="314" type="line"/>
      <point x="214" y="314" type="line"/>
    </contour>
  </outline>
</glyph>
<glyph name="Adieresis" format="1">
  <advance width="608"/>
  <unicode hex="00C4"/>
  <outline>
    <contour>
      <point x="12" y="0" type="line" name="hr00"/>
      <point x="228" y="0" type="line"/>
      <point x="228" y="60" type="line"/>
      <point x="142" y="80" type="line"/>
      <point x="188" y="228" type="line"/>
      <point x="402" y="228" type="line"/>
      <point x="450" y="80" type="line"/>
      <point x="362" y="59" type="line"/>
      <point x="362" y="0" type="line"/>
      <point x="597" y="0" type="line"/>
      <point x="608" y="62" type="line"/>
      <point x="562" y="80" type="line"/>
      <point x="349" y="691" type="line"/>
      <point x="253" y="691" type="line"/>
      <point x="51" y="80" type="line"/>
      <point x="-1" y="62" type="line"/>
    </contour>
    <contour>
      <point x="292" y="565" type="line"/>
      <point x="374" y="314" type="line"/>
      <point x="214" y="314" type="line"/>
    </contour>
    <contour>
      <point x="329" y="873" type="curve" smooth="yes"/>
      <point x="329" y="840"/>
      <point x="359" y="809"/>
      <point x="394" y="809" type="curve" smooth="yes"/>
      <point x="427" y="809"/>
      <point x="457" y="839"/>
      <point x="457" y="873" type="curve" smooth="yes"/>
      <point x="457" y="907"/>
      <point x="428" y="937"/>
      <point x="394" y="937" type="curve" smooth="yes"/>
      <point x="358" y="937"/>
      <point x="329" y="907"/>
    </contour>
    <contour>
      <point x="152" y="873" type="curve" smooth="yes"/>
      <point x="152" y="839"/>
      <point x="180" y="809"/>
      <point x="215" y="809" type="curve" smooth="yes"/>
      <point x="247" y="809"/>
      <point x="278" y="837"/>
      <point x="278" y="873" type="curve" smooth="yes"/>
      <point x="278" y="907"/>
      <point x="249" y="937"/>
      <point x="215" y="937" type="curve" smooth="yes"/>
      <point x="179" y="937"/>
      <point x="152" y="907"/>
    </contour>
  </outline>
</glyph>
<glyph name="Aring" format="1">
  <advance width="604"/>
  <unicode hex="00C5"/>
  <outline>
    <contour>
      <point x="10" y="0" type="line" name="hr00"/>
      <point x="226" y="0" type="line"/>
      <point x="226" y="60" type="line"/>
      <point x="140" y="80" type="line"/>
      <point x="186" y="228" type="line"/>
      <point x="400" y="228" type="line"/>
      <point x="448" y="80" type="line"/>
      <point x="360" y="59" type="line"/>
      <point x="360" y="0" type="line"/>
      <point x="595" y="0" type="line"/>
      <point x="606" y="62" type="line"/>
      <point x="560" y="80" type="line"/>
      <point x="357" y="662" type="line"/>
      <point x="383" y="680"/>
      <point x="400" y="710"/>
      <point x="400" y="745" type="curve" smooth="yes"/>
      <point x="400" y="801"/>
      <point x="356" y="845"/>
      <point x="299" y="845" type="curve" smooth="yes"/>
      <point x="243" y="845"/>
      <point x="199" y="801"/>
      <point x="199" y="745" type="curve" smooth="yes"/>
      <point x="199" y="710"/>
      <point x="215" y="680"/>
      <point x="241" y="662" type="curve"/>
      <point x="49" y="80" type="line"/>
      <point x="-3" y="62" type="line"/>
    </contour>
    <contour>
      <point x="290" y="565" type="line"/>
      <point x="372" y="314" type="line"/>
      <point x="212" y="314" type="line"/>
    </contour>
    <contour>
      <point x="261" y="745" type="curve" smooth="yes"/>
      <point x="261" y="769"/>
      <point x="276" y="783"/>
      <point x="299" y="783" type="curve" smooth="yes"/>
      <point x="323" y="783"/>
      <point x="338" y="769"/>
      <point x="338" y="745" type="curve" smooth="yes"/>
      <point x="338" y="721"/>
      <point x="323" y="707"/>
      <point x="299" y="707" type="curve" smooth="yes"/>
      <point x="276" y="707"/>
      <point x="261" y="721"/>
    </contour>
  </outline>
</glyph>
<glyph name="AE" format="1">
  <advance width="786"/>
  <unicode hex="00C6"/>
  <outline>
    <contour>
      <point x="1" y="0" type="line" name="hr00"/>
      <point x="217" y="0" type="line"/>
      <point x="217" y="60" type="line"/>
      <point x="129" y="80" type="line"/>
      <point x="200" y="258" type="line"/>
      <point x="356" y="258" type="line"/>
      <point x="356" y="84" type="line"/>
      <point x="295" y="71" type="line"/>
      <point x="305" y="0" type="line"/>
      <point x="729" y="0" type="line"/>
      <point x="749" y="187" type="line" name="hr01"/>
      <point x="686" y="187" type="line"/>
      <point x="651" y="86" type="line" name="hr02"/>
      <point x="455" y="86" type="line"/>
      <point x="455" y="309" type="line"/>
      <point x="613" y="309" type="line"/>
      <point x="613" y="395" type="line"/>
      <point x="455" y="395" type="line"/>
      <point x="455" y="605" type="line"/>
      <point x="641" y="605" type="line"/>
      <point x="679" y="503" type="line" name="hr03"/>
      <point x="742" y="503" type="line"/>
      <point x="722" y="691" type="line"/>
      <point x="296" y="691" type="line"/>
      <point x="40" y="80" type="line"/>
      <point x="-12" y="62" type="line"/>
    </contour>
    <contour>
      <point x="356" y="611" type="line"/>
      <point x="356" y="344" type="line"/>
      <point x="235" y="344" type="line"/>
      <point x="342" y="612" type="line"/>
    </contour>
  </outline>
</glyph>
<glyph name="Ccedilla" format="1">
  <advance width="583"/>
  <unicode hex="00C7"/>
  <outline>
    <contour>
      <point x="297" y="-93" type="line" name="hr00"/>
      <point x="309" y="-94" type="line"/>
      <point x="363" y="-94"/>
      <point x="383" y="-120"/>
      <point x="383" y="-148" type="curve" smooth="yes"/>
      <point x="383" y="-183"/>
      <point x="342" y="-195"/>
      <point x="323" y="-195" type="curve"/>
      <point x="257" y="-152" type="line"/>
      <point x="216" y="-232" type="line"/>
      <point x="222" y="-234" type="line"/>
      <point x="254" y="-247"/>
      <point x="282" y="-258"/>
      <point x="329" y="-258" type="curve" smooth="yes"/>
      <point x="417" y="-258"/>
      <point x="471" y="-209"/>
      <point x="471" y="-145" type="curve" smooth="yes"/>
      <point x="471" y="-83"/>
      <point x="431" y="-51"/>
      <point x="385" y="-39" type="curve"/>
      <point x="399" y="-3" type="line" name="hr01"/>
      <point x="455" y="-1"/>
      <point x="514" y="12"/>
      <point x="555" y="41" type="curve"/>
      <point x="526" y="120" type="line"/>
      <point x="505" y="104"/>
      <point x="452" y="82"/>
      <point x="395" y="82" type="curve" smooth="yes"/>
      <point x="239" y="82"/>
      <point x="140" y="196"/>
      <point x="140" y="348" type="curve" smooth="yes"/>
      <point x="140" y="485"/>
      <point x="229" y="605"/>
      <point x="376" y="605" type="curve" smooth="yes"/>
      <point x="403" y="605"/>
      <point x="422" y="602"/>
      <point x="433" y="598" type="curve"/>
      <point x="472" y="490" type="line" name="hr02"/>
      <point x="540" y="490" type="line"/>
      <point x="521" y="672" type="line"/>
      <point x="492" y="679"/>
      <point x="443" y="691"/>
      <point x="373" y="691" type="curve" smooth="yes"/>
      <point x="194" y="691"/>
      <point x="35" y="569"/>
      <point x="35" y="338" type="curve" smooth="yes"/>
      <point x="35" y="147"/>
      <point x="163" y="30"/>
      <point x="309" y="2" type="curve"/>
      <point x="281" y="-76" type="line"/>
    </contour>
  </outline>
</glyph>
<glyph name="Ecircumflex" format="1">
  <advance width="539"/>
  <unicode hex="00CA"/>
  <outline>
    <contour>
      <point x="258" y="894" type="line" name="hr00"/>
      <point x="101" y="732" type="line"/>
      <point x="104" y="726" type="line"/>
      <point x="184" y="726" type="line"/>
      <point x="270" y="785" type="line"/>
      <point x="357" y="726" type="line"/>
      <point x="438" y="726" type="line"/>
      <point x="440" y="731" type="line"/>
      <point x="284" y="894" type="line"/>
    </contour>
    <contour>
      <point x="49" y="616" type="line"/>
      <point x="109" y="611" type="line"/>
      <point x="109" y="84" type="line"/>
      <point x="48" y="71" type="line"/>
      <point x="58" y="0" type="line"/>
      <point x="482" y="0" type="line"/>
      <point x="502" y="187" type="line"/>
      <point x="439" y="187" type="line"/>
      <point x="404" y="86" type="line"/>
      <point x="208" y="86" type="line"/>
      <point x="208" y="309" type="line"/>
      <point x="366" y="309" type="line"/>
      <point x="366" y="395" type="line"/>
      <point x="208" y="395" type="line"/>
      <point x="208" y="605" type="line" name="hr01"/>
      <point x="394" y="605" type="line"/>
      <point x="432" y="503" type="line" name="hr02"/>
      <point x="495" y="503" type="line"/>
      <point x="475" y="691" type="line"/>
      <point x="49" y="691" type="line"/>
    </contour>
  </outline>
</glyph>
<glyph name="Edieresis" format="1">
  <advance width="539"/>
  <unicode hex="00CB"/>
  <outline>
    <contour>
      <point x="49" y="616" type="line" name="hr00"/>
      <point x="109" y="611" type="line"/>
      <point x="109" y="84" type="line"/>
      <point x="48" y="71" type="line"/>
      <point x="58" y="0" type="line"/>
      <point x="482" y="0" type="line"/>
      <point x="502" y="187" type="line" name="hr01"/>
      <point x="439" y="187" type="line"/>
      <point x="404" y="86" type="line" name="hr02"/>
      <point x="208" y="86" type="line"/>
      <point x="208" y="309" type="line"/>
      <point x="366" y="309" type="line"/>
      <point x="366" y="395" type="line"/>
      <point x="208" y="395" type="line"/>
      <point x="208" y="605" type="line"/>
      <point x="394" y="605" type="line"/>
      <point x="432" y="503" type="line" name="hr03"/>
      <point x="495" y="503" type="line"/>
      <point x="475" y="691" type="line"/>
      <point x="49" y="691" type="line"/>
    </contour>
    <contour>
      <point x="303" y="884" type="curve" smooth="yes"/>
      <point x="303" y="851"/>
      <point x="333" y="820"/>
      <point x="368" y="820" type="curve" smooth="yes"/>
      <point x="401" y="820"/>
      <point x="431" y="850"/>
      <point x="431" y="884" type="curve" smooth="yes"/>
      <point x="431" y="918"/>
      <point x="402" y="948"/>
      <point x="368" y="948" type="curve" smooth="yes"/>
      <point x="332" y="948"/>
      <point x="303" y="918"/>
    </contour>
    <contour>
      <point x="126" y="884" type="curve" smooth="yes"/>
      <point x="126" y="850"/>
      <point x="154" y="820"/>
      <point x="189" y="820" type="curve" smooth="yes"/>
      <point x="221" y="820"/>
      <point x="252" y="848"/>
      <point x="252" y="884" type="curve" smooth="yes"/>
      <point x="252" y="918"/>
      <point x="223" y="948"/>
      <point x="189" y="948" type="curve" smooth="yes"/>
      <point x="153" y="948"/>
      <point x="126" y="918"/>
    </contour>
  </outline>
</glyph>
<glyph name="Igrave" format="1">
  <advance width="320"/>
  <unicode hex="00CC"/>
  <outline>
    <contour>
      <point x="231" y="720" type="line" name="hr00"/>
      <point x="267" y="764" type="line"/>
      <point x="127" y="919" type="line"/>
      <point x="95" y="925" type="line"/>
      <point x="38" y="843" type="line"/>
    </contour>
    <contour>
      <point x="110" y="83" type="line"/>
      <point x="38" y="72" type="line"/>
      <point x="56" y="0" type="line"/>
      <point x="275" y="0" type="line"/>
      <point x="275" y="73" type="line"/>
      <point x="210" y="81" type="line"/>
      <point x="210" y="606" type="line"/>
      <point x="275" y="616" type="line"/>
      <point x="265" y="691" type="line"/>
      <point x="47" y="691" type="line"/>
      <point x="47" y="615" type="line"/>
      <point x="110" y="610" type="line"/>
    </contour>
  </outline>
</glyph>
<glyph name="Iacute" format="1">
  <advance width="319"/>
  <unicode hex="00CD"/>
  <outline>
    <contour>
      <point x="47" y="780" type="line" name="hr00"/>
      <point x="86" y="729" type="line"/>
      <point x="281" y="841" type="line"/>
      <point x="224" y="932" type="line"/>
      <point x="190" y="928" type="line"/>
    </contour>
    <contour>
      <point x="109" y="83" type="line"/>
      <point x="46" y="72" type="line"/>
      <point x="55" y="0" type="line"/>
      <point x="274" y="0" type="line"/>
      <point x="274" y="73" type="line"/>
      <point x="209" y="81" type="line"/>
      <point x="209" y="606" type="line"/>
      <point x="274" y="616" type="line"/>
      <point x="264" y="691" type="line"/>
      <point x="46" y="691" type="line"/>
      <point x="46" y="615" type="line"/>
      <point x="109" y="610" type="line"/>
    </contour>
  </outline>
</glyph>
<glyph name="Icircumflex" format="1">
  <advance width="319"/>
  <unicode hex="00CE"/>
  <outline>
    <contour>
      <point x="109" y="83" type="line" name="hr00"/>
      <point x="46" y="72" type="line"/>
      <point x="55" y="0" type="line"/>
      <point x="274" y="0" type="line"/>
      <point x="274" y="73" type="line"/>
      <point x="209" y="81" type="line"/>
      <point x="209" y="606" type="line"/>
      <point x="274" y="616" type="line"/>
      <point x="264" y="691" type="line"/>
      <point x="46" y="691" type="line"/>
      <point x="46" y="615" type="line"/>
      <point x="109" y="610" type="line"/>
    </contour>
    <contour>
      <point x="147" y="894" type="line"/>
      <point x="-10" y="732" type="line"/>
      <point x="-7" y="726" type="line" name="hr01"/>
      <point x="73" y="726" type="line"/>
      <point x="159" y="785" type="line"/>
      <point x="246" y="726" type="line"/>
      <point x="327" y="726" type="line"/>
      <point x="329" y="731" type="line"/>
      <point x="173" y="894" type="line"/>
    </contour>
  </outline>
</glyph>
<glyph name="Idieresis" format="1">
  <advance width="319"/>
  <unicode hex="00CF"/>
  <outline>
    <contour>
      <point x="109" y="83" type="line" name="hr00"/>
      <point x="46" y="72" type="line"/>
      <point x="55" y="0" type="line"/>
      <point x="274" y="0" type="line"/>
      <point x="274" y="73" type="line"/>
      <point x="209" y="81" type="line"/>
      <point x="209" y="606" type="line"/>
      <point x="274" y="616" type="line"/>
      <point x="264" y="691" type="line"/>
      <point x="46" y="691" type="line"/>
      <point x="46" y="615" type="line"/>
      <point x="109" y="610" type="line"/>
    </contour>
    <contour>
      <point x="181" y="798" type="curve" smooth="yes"/>
      <point x="181" y="762"/>
      <point x="211" y="735"/>
      <point x="245" y="735" type="curve" smooth="yes"/>
      <point x="278" y="735"/>
      <point x="306" y="763"/>
      <point x="306" y="798" type="curve" smooth="yes"/>
      <point x="306" y="831"/>
      <point x="279" y="861"/>
      <point x="245" y="861" type="curve" smooth="yes"/>
      <point x="211" y="861"/>
      <point x="181" y="832"/>
    </contour>
    <contour>
      <point x="21" y="798" type="curve" smooth="yes"/>
      <point x="21" y="763"/>
      <point x="49" y="735"/>
      <point x="83" y="735" type="curve" smooth="yes"/>
      <point x="115" y="735"/>
      <point x="146" y="763"/>
      <point x="146" y="798" type="curve" smooth="yes"/>
      <point x="146" y="832"/>
      <point x="115" y="861"/>
      <point x="83" y="861" type="curve" smooth="yes"/>
      <point x="48" y="861"/>
      <point x="21" y="832"/>
    </contour>
  </outline>
</glyph>
<glyph name="Eth" format="1">
  <advance width="632"/>
  <unicode hex="00D0"/>
  <outline>
    <contour>
      <point x="37" y="311" type="line" name="hr00"/>
      <point x="109" y="311" type="line"/>
      <point x="109" y="85" type="line"/>
      <point x="48" y="71" type="line"/>
      <point x="58" y="0" type="line"/>
      <point x="242" y="0" type="line" smooth="yes"/>
      <point x="461" y="0"/>
      <point x="596" y="130"/>
      <point x="596" y="350" type="curve" smooth="yes"/>
      <point x="596" y="574"/>
      <point x="452" y="691"/>
      <point x="238" y="691" type="curve" smooth="yes"/>
      <point x="49" y="691" type="line"/>
      <point x="49" y="617" type="line"/>
      <point x="109" y="611" type="line"/>
      <point x="109" y="390" type="line"/>
      <point x="47" y="390" type="line"/>
      <point x="37" y="379" type="line"/>
    </contour>
    <contour>
      <point x="491" y="351" type="curve" smooth="yes"/>
      <point x="491" y="188"/>
      <point x="407" y="86"/>
      <point x="232" y="86" type="curve" smooth="yes"/>
      <point x="208" y="86" type="line"/>
      <point x="208" y="311" type="line"/>
      <point x="381" y="311" type="line"/>
      <point x="381" y="382" type="line" smooth="yes"/>
      <point x="381" y="387"/>
      <point x="379" y="390"/>
      <point x="374" y="390" type="curve" smooth="yes"/>
      <point x="208" y="390" type="line"/>
      <point x="208" y="607" type="line"/>
      <point x="375" y="607"/>
      <point x="491" y="527"/>
    </contour>
  </outline>
</glyph>
<glyph name="Ntilde" format="1">
  <advance width="696"/>
  <unicode hex="00D1"/>
  <outline>
    <contour>
      <point x="478" y="0" type="line" name="hr00"/>
      <point x="595" y="0" type="line"/>
      <point x="595" y="604" type="line"/>
      <point x="659" y="616" type="line"/>
      <point x="646" y="691" type="line"/>
      <point x="449" y="691" type="line"/>
      <point x="449" y="617" type="line"/>
      <point x="511" y="609" type="line"/>
      <point x="511" y="96" type="line"/>
      <point x="259" y="691" type="line"/>
      <point x="50" y="691" type="line"/>
      <point x="50" y="615" type="line"/>
      <point x="110" y="609" type="line"/>
      <point x="110" y="84" type="line"/>
      <point x="47" y="71" type="line"/>
      <point x="59" y="0" type="line"/>
      <point x="253" y="0" type="line"/>
      <point x="253" y="71" type="line"/>
      <point x="196" y="81" type="line"/>
      <point x="194" y="92"/>
      <point x="194" y="111"/>
      <point x="194" y="597" type="curve"/>
    </contour>
    <contour>
      <point x="417" y="802" type="line"/>
      <point x="408" y="808" type="line" smooth="yes"/>
      <point x="377" y="830"/>
      <point x="340" y="857"/>
      <point x="290" y="857" type="curve" smooth="yes"/>
      <point x="212" y="857"/>
      <point x="178" y="801"/>
      <point x="167" y="778" type="curve"/>
      <point x="167" y="761" type="line"/>
      <point x="223" y="727" type="line"/>
      <point x="234" y="750"/>
      <point x="253" y="778"/>
      <point x="294" y="778" type="curve" smooth="yes"/>
      <point x="353" y="778"/>
      <point x="373" y="730"/>
      <point x="437" y="730" type="curve" smooth="yes" name="hr01"/>
      <point x="473" y="730"/>
      <point x="514" y="764"/>
      <point x="537" y="791" type="curve"/>
      <point x="478" y="858" type="line" name="hr02"/>
    </contour>
  </outline>
</glyph>
<glyph name="Ograve" format="1">
  <advance width="651"/>
  <unicode hex="00D2"/>
  <outline>
    <contour>
      <point x="148" y="342" type="curve" smooth="yes" name="hr00"/>
      <point x="148" y="479"/>
      <point x="205" y="606"/>
      <point x="325" y="606" type="curve" smooth="yes"/>
      <point x="446" y="606"/>
      <point x="504" y="479"/>
      <point x="504" y="342" type="curve" smooth="yes"/>
      <point x="504" y="206"/>
      <point x="446" y="82"/>
      <point x="325" y="82" type="curve" smooth="yes"/>
      <point x="205" y="82"/>
      <point x="148" y="206"/>
    </contour>
    <contour>
      <point x="325" y="-4" type="curve" smooth="yes"/>
      <point x="514" y="-4"/>
      <point x="609" y="157"/>
      <point x="609" y="344" type="curve" smooth="yes"/>
      <point x="609" y="530"/>
      <point x="514" y="692"/>
      <point x="325" y="692" type="curve" smooth="yes"/>
      <point x="136" y="692"/>
      <point x="43" y="530"/>
      <point x="43" y="344" type="curve" smooth="yes"/>
      <point x="43" y="157"/>
      <point x="136" y="-4"/>
    </contour>
    <contour>
      <point x="402" y="720" type="line"/>
      <point x="438" y="764" type="line"/>
      <point x="298" y="919" type="line"/>
      <point x="265" y="925" type="line"/>
      <point x="209" y="843" type="line"/>
    </contour>
  </outline>
</glyph>
<glyph name="Ocircumflex" format="1">
  <advance width="651"/>
  <unicode hex="00D4"/>
  <outline>
    <contour>
      <point x="148" y="342" type="curve" smooth="yes" name="hr00"/>
      <point x="148" y="479"/>
      <point x="205" y="606"/>
      <point x="325" y="606" type="curve" smooth="yes"/>
      <point x="446" y="606"/>
      <point x="504" y="479"/>
      <point x="504" y="342" type="curve" smooth="yes"/>
      <point x="504" y="206"/>
      <point x="446" y="82"/>
      <point x="325" y="82" type="curve" smooth="yes"/>
      <point x="205" y="82"/>
      <point x="148" y="206"/>
    </contour>
    <contour>
      <point x="325" y="-4" type="curve" smooth="yes"/>
      <point x="514" y="-4"/>
      <point x="609" y="157"/>
      <point x="609" y="344" type="curve" smooth="yes"/>
      <point x="609" y="530"/>
      <point x="514" y="692"/>
      <point x="325" y="692" type="curve" smooth="yes"/>
      <point x="136" y="692"/>
      <point x="43" y="530"/>
      <point x="43" y="344" type="curve" smooth="yes"/>
      <point x="43" y="157"/>
      <point x="136" y="-4"/>
    </contour>
    <contour>
      <point x="313" y="894" type="line"/>
      <point x="156" y="732" type="line"/>
      <point x="157" y="726" type="line" name="hr01"/>
      <point x="239" y="726" type="line"/>
      <point x="325" y="785" type="line"/>
      <point x="412" y="726" type="line"/>
      <point x="494" y="726" type="line"/>
      <point x="495" y="731" type="line"/>
      <point x="339" y="894" type="line"/>
    </contour>
  </outline>
</glyph>
<glyph name="Otilde" format="1">
  <advance width="651"/>
  <unicode hex="00D5"/>
  <outline>
    <contour>
      <point x="148" y="342" type="curve" smooth="yes" name="hr00"/>
      <point x="148" y="479"/>
      <point x="205" y="606"/>
      <point x="325" y="606" type="curve" smooth="yes"/>
      <point x="446" y="606"/>
      <point x="504" y="479"/>
      <point x="504" y="342" type="curve" smooth="yes"/>
      <point x="504" y="206"/>
      <point x="446" y="82"/>
      <point x="325" y="82" type="curve" smooth="yes"/>
      <point x="205" y="82"/>
      <point x="148" y="206"/>
    </contour>
    <contour>
      <point x="325" y="-4" type="curve" smooth="yes"/>
      <point x="514" y="-4"/>
      <point x="609" y="157"/>
      <point x="609" y="344" type="curve" smooth="yes"/>
      <point x="609" y="530"/>
      <point x="514" y="692"/>
      <point x="325" y="692" type="curve" smooth="yes"/>
      <point x="136" y="692"/>
      <point x="43" y="530"/>
      <point x="43" y="344" type="curve" smooth="yes"/>
      <point x="43" y="157"/>
      <point x="136" y="-4"/>
    </contour>
    <contour>
      <point x="393" y="802" type="line"/>
      <point x="362" y="826"/>
      <point x="321" y="857"/>
      <point x="267" y="857" type="curve" smooth="yes"/>
      <point x="189" y="857"/>
      <point x="155" y="801"/>
      <point x="145" y="778" type="curve"/>
      <point x="145" y="761" type="line"/>
      <point x="199" y="727" type="line"/>
      <point x="211" y="750"/>
      <point x="231" y="778"/>
      <point x="271" y="778" type="curve" smooth="yes"/>
      <point x="330" y="778"/>
      <point x="349" y="730"/>
      <point x="414" y="730" type="curve" smooth="yes" name="hr01"/>
      <point x="449" y="730"/>
      <point x="491" y="764"/>
      <point x="513" y="791" type="curve"/>
      <point x="454" y="858" type="line" name="hr02"/>
    </contour>
  </outline>
</glyph>
<glyph name="Odieresis" format="1">
  <advance width="651"/>
  <unicode hex="00D6"/>
  <outline>
    <contour>
      <point x="148" y="342" type="curve" smooth="yes" name="hr00"/>
      <point x="148" y="479"/>
      <point x="205" y="606"/>
      <point x="325" y="606" type="curve" smooth="yes"/>
      <point x="446" y="606"/>
      <point x="504" y="479"/>
      <point x="504" y="342" type="curve" smooth="yes"/>
      <point x="504" y="206"/>
      <point x="446" y="82"/>
      <point x="325" y="82" type="curve" smooth="yes"/>
      <point x="205" y="82"/>
      <point x="148" y="206"/>
    </contour>
    <contour>
      <point x="325" y="-4" type="curve" smooth="yes"/>
      <point x="514" y="-4"/>
      <point x="609" y="157"/>
      <point x="609" y="344" type="curve" smooth="yes"/>
      <point x="609" y="530"/>
      <point x="514" y="692"/>
      <point x="325" y="692" type="curve" smooth="yes"/>
      <point x="136" y="692"/>
      <point x="43" y="530"/>
      <point x="43" y="344" type="curve" smooth="yes"/>
      <point x="43" y="157"/>
      <point x="136" y="-4"/>
    </contour>
    <contour>
      <point x="358" y="884" type="curve" smooth="yes"/>
      <point x="358" y="851"/>
      <point x="388" y="820"/>
      <point x="423" y="820" type="curve" smooth="yes"/>
      <point x="456" y="820"/>
      <point x="486" y="850"/>
      <point x="486" y="884" type="curve" smooth="yes"/>
      <point x="486" y="918"/>
      <point x="457" y="948"/>
      <point x="423" y="948" type="curve" smooth="yes"/>
      <point x="387" y="948"/>
      <point x="358" y="918"/>
    </contour>
    <contour>
      <point x="181" y="884" type="curve" smooth="yes"/>
      <point x="181" y="850"/>
      <point x="209" y="820"/>
      <point x="244" y="820" type="curve" smooth="yes"/>
      <point x="276" y="820"/>
      <point x="307" y="848"/>
      <point x="307" y="884" type="curve" smooth="yes"/>
      <point x="307" y="918"/>
      <point x="278" y="948"/>
      <point x="244" y="948" type="curve" smooth="yes"/>
      <point x="208" y="948"/>
      <point x="181" y="918"/>
    </contour>
  </outline>
</glyph>
<glyph name="multiply" format="1">
  <advance width="478"/>
  <unicode hex="00D7"/>
  <outline>
    <contour>
      <point x="428" y="488" type="line" name="hr00"/>
      <point x="374" y="541" type="line"/>
      <point x="240" y="407" type="line"/>
      <point x="102" y="545" type="line"/>
      <point x="49" y="492" type="line"/>
      <point x="187" y="354" type="line"/>
      <point x="52" y="219" type="line"/>
      <point x="105" y="165" type="line"/>
      <point x="240" y="300" type="line"/>
      <point x="373" y="168" type="line"/>
      <point x="426" y="221" type="line"/>
      <point x="293" y="353" type="line"/>
    </contour>
  </outline>
</glyph>
<glyph name="Oslash" format="1">
  <advance width="651"/>
  <unicode hex="00D8"/>
  <outline>
    <contour>
      <point x="189" y="-53" type="line" name="hr00"/>
      <point x="220" y="15" type="line"/>
      <point x="251" y="2"/>
      <point x="286" y="-4"/>
      <point x="325" y="-4" type="curve" smooth="yes"/>
      <point x="514" y="-4"/>
      <point x="609" y="157"/>
      <point x="609" y="344" type="curve" smooth="yes"/>
      <point x="609" y="457"/>
      <point x="573" y="562"/>
      <point x="502" y="626" type="curve"/>
      <point x="551" y="732" type="line"/>
      <point x="551" y="738"/>
      <point x="552" y="744"/>
      <point x="552" y="751" type="curve"/>
      <point x="454" y="751" type="line"/>
      <point x="420" y="676" type="line"/>
      <point x="391" y="686"/>
      <point x="360" y="692"/>
      <point x="325" y="692" type="curve" smooth="yes"/>
      <point x="136" y="692"/>
      <point x="43" y="530"/>
      <point x="43" y="344" type="curve" smooth="yes"/>
      <point x="43" y="234"/>
      <point x="75" y="133"/>
      <point x="140" y="69" type="curve"/>
      <point x="92" y="-35" type="line"/>
      <point x="95" y="-53" type="line"/>
    </contour>
    <contour>
      <point x="504" y="342" type="curve" smooth="yes"/>
      <point x="504" y="206"/>
      <point x="446" y="82"/>
      <point x="325" y="82" type="curve" smooth="yes"/>
      <point x="300" y="82"/>
      <point x="278" y="87"/>
      <point x="258" y="97" type="curve"/>
      <point x="457" y="529" type="line"/>
      <point x="488" y="480"/>
      <point x="504" y="412"/>
    </contour>
    <contour>
      <point x="148" y="342" type="curve" smooth="yes"/>
      <point x="148" y="479"/>
      <point x="205" y="606"/>
      <point x="325" y="606" type="curve" smooth="yes"/>
      <point x="346" y="606"/>
      <point x="365" y="602"/>
      <point x="382" y="595" type="curve"/>
      <point x="186" y="169" type="line"/>
      <point x="160" y="216"/>
      <point x="148" y="278"/>
    </contour>
  </outline>
</glyph>
<glyph name="Uacute" format="1">
  <advance width="638"/>
  <unicode hex="00DA"/>
  <outline>
    <contour>
      <point x="237" y="780" type="line" name="hr00"/>
      <point x="277" y="729" type="line"/>
      <point x="471" y="841" type="line"/>
      <point x="415" y="932" type="line"/>
      <point x="381" y="928" type="line"/>
    </contour>
    <contour>
      <point x="402" y="618" type="line"/>
      <point x="463" y="609" type="line" name="hr01"/>
      <point x="463" y="234" type="line" smooth="yes"/>
      <point x="463" y="119"/>
      <point x="398" y="82"/>
      <point x="330" y="82" type="curve" smooth="yes"/>
      <point x="235" y="82"/>
      <point x="192" y="139"/>
      <point x="192" y="233" type="curve" smooth="yes"/>
      <point x="192" y="608" type="line"/>
      <point x="261" y="617" type="line"/>
      <point x="261" y="691" type="line"/>
      <point x="30" y="691" type="line"/>
      <point x="30" y="616" type="line"/>
      <point x="92" y="610" type="line"/>
      <point x="92" y="230" type="line" smooth="yes"/>
      <point x="92" y="83"/>
      <point x="174" y="-4"/>
      <point x="327" y="-4" type="curve" smooth="yes"/>
      <point x="442" y="-4"/>
      <point x="547" y="67"/>
      <point x="547" y="230" type="curve" smooth="yes"/>
      <point x="547" y="607" type="line"/>
      <point x="604" y="617" type="line" name="hr02"/>
      <point x="604" y="691" type="line"/>
      <point x="402" y="691" type="line"/>
    </contour>
  </outline>
</glyph>
<glyph name="Udieresis" format="1">
  <advance width="647"/>
  <unicode hex="00DC"/>
  <outline>
    <contour>
      <point x="411" y="618" type="line" name="hr00"/>
      <point x="472" y="609" type="line" name="hr01"/>
      <point x="472" y="234" type="line" smooth="yes"/>
      <point x="472" y="119"/>
      <point x="402" y="82"/>
      <point x="334" y="82" type="curve" smooth="yes"/>
      <point x="239" y="82"/>
      <point x="192" y="139"/>
      <point x="192" y="233" type="curve" smooth="yes"/>
      <point x="192" y="608" type="line"/>
      <point x="261" y="617" type="line"/>
      <point x="261" y="691" type="line"/>
      <point x="30" y="691" type="line"/>
      <point x="30" y="616" type="line"/>
      <point x="92" y="610" type="line"/>
      <point x="92" y="230" type="line" smooth="yes"/>
      <point x="92" y="83"/>
      <point x="178" y="-4"/>
      <point x="331" y="-4" type="curve" smooth="yes"/>
      <point x="446" y="-4"/>
      <point x="556" y="67"/>
      <point x="556" y="230" type="curve" smooth="yes"/>
      <point x="556" y="607" type="line"/>
      <point x="613" y="617" type="line" name="hr02"/>
      <point x="613" y="691" type="line"/>
      <point x="411" y="691" type="line"/>
    </contour>
    <contour>
      <point x="370" y="884" type="curve" smooth="yes" name="hr03"/>
      <point x="370" y="851"/>
      <point x="400" y="820"/>
      <point x="435" y="820" type="curve" smooth="yes"/>
      <point x="468" y="820"/>
      <point x="498" y="850"/>
      <point x="498" y="884" type="curve" smooth="yes"/>
      <point x="498" y="918"/>
      <point x="469" y="948"/>
      <point x="435" y="948" type="curve" smooth="yes"/>
      <point x="399" y="948"/>
      <point x="370" y="918"/>
    </contour>
    <contour>
      <point x="193" y="884" type="curve" smooth="yes"/>
      <point x="193" y="850"/>
      <point x="221" y="820"/>
      <point x="256" y="820" type="curve" smooth="yes"/>
      <point x="288" y="820"/>
      <point x="319" y="848"/>
      <point x="319" y="884" type="curve" smooth="yes"/>
      <point x="319" y="918"/>
      <point x="290" y="948"/>
      <point x="256" y="948" type="curve" smooth="yes"/>
      <point x="220" y="948"/>
      <point x="193" y="918"/>
    </contour>
  </outline>
</glyph>
<glyph name="Yacute" format="1">
  <advance width="563"/>
  <unicode hex="00DD"/>
  <outline>
    <contour>
      <point x="556" y="691" type="line" name="hr00"/>
      <point x="361" y="691" type="line"/>
      <point x="361" y="625" type="line"/>
      <point x="422" y="614" type="line"/>
      <point x="296" y="357" type="line"/>
      <point x="157" y="613" type="line"/>
      <point x="224" y="625" type="line"/>
      <point x="217" y="691" type="line"/>
      <point x="4" y="691" type="line"/>
      <point x="4" y="616" type="line"/>
      <point x="44" y="607" type="line"/>
      <point x="234" y="252" type="line"/>
      <point x="234" y="83" type="line"/>
      <point x="119" y="63" type="line"/>
      <point x="129" y="0" type="line"/>
      <point x="439" y="0" type="line"/>
      <point x="449" y="63" type="line"/>
      <point x="333" y="83" type="line"/>
      <point x="333" y="246" type="line"/>
      <point x="513" y="606" type="line"/>
      <point x="556" y="616" type="line"/>
    </contour>
    <contour>
      <point x="201" y="780" type="line"/>
      <point x="241" y="729" type="line"/>
      <point x="435" y="841" type="line"/>
      <point x="379" y="932" type="line"/>
      <point x="345" y="928" type="line"/>
    </contour>
  </outline>
</glyph>
<glyph name="Thorn" format="1">
  <advance width="525"/>
  <unicode hex="00DE"/>
  <outline>
    <contour>
      <point x="109" y="83" type="line" name="hr00"/>
      <point x="46" y="72" type="line"/>
      <point x="55" y="0" type="line"/>
      <point x="324" y="0" type="line"/>
      <point x="324" y="63" type="line"/>
      <point x="209" y="81" type="line"/>
      <point x="209" y="152" type="line" name="hr01"/>
      <point x="229" y="152" type="line" smooth="yes"/>
      <point x="387" y="152"/>
      <point x="505" y="212"/>
      <point x="505" y="362" type="curve" smooth="yes"/>
      <point x="505" y="502"/>
      <point x="406" y="569"/>
      <point x="211" y="569" type="curve"/>
      <point x="209" y="606" type="line"/>
      <point x="274" y="616" type="line"/>
      <point x="264" y="691" type="line"/>
      <point x="46" y="691" type="line"/>
      <point x="46" y="615" type="line"/>
      <point x="109" y="610" type="line"/>
    </contour>
    <contour>
      <point x="217" y="478" type="line" smooth="yes"/>
      <point x="338" y="478"/>
      <point x="400" y="446"/>
      <point x="400" y="354" type="curve" smooth="yes"/>
      <point x="400" y="284"/>
      <point x="355" y="238"/>
      <point x="225" y="238" type="curve" smooth="yes"/>
      <point x="209" y="238" type="line"/>
      <point x="209" y="478" type="line"/>
    </contour>
  </outline>
</glyph>
<glyph name="germandbls" format="1">
  <advance width="527"/>
  <unicode hex="00DF"/>
  <outline>
    <contour>
      <point x="219" y="16" type="line" name="hr00"/>
      <point x="257" y="-1"/>
      <point x="296" y="-8"/>
      <point x="331" y="-8" type="curve" smooth="yes"/>
      <point x="414" y="-8"/>
      <point x="506" y="52"/>
      <point x="506" y="163" type="curve" smooth="yes"/>
      <point x="506" y="235"/>
      <point x="464" y="291"/>
      <point x="375" y="338" type="curve" smooth="yes"/>
      <point x="346" y="353"/>
      <point x="332" y="365"/>
      <point x="330" y="381" type="curve"/>
      <point x="330" y="430"/>
      <point x="436" y="455"/>
      <point x="436" y="578" type="curve" smooth="yes" name="hr01"/>
      <point x="436" y="676"/>
      <point x="351" y="731"/>
      <point x="263" y="731" type="curve" smooth="yes"/>
      <point x="162" y="731"/>
      <point x="83" y="670"/>
      <point x="83" y="531" type="curve" smooth="yes"/>
      <point x="83" y="68" type="line"/>
      <point x="32" y="58" type="line"/>
      <point x="32" y="0" type="line"/>
      <point x="175" y="0" type="line"/>
      <point x="175" y="550" type="line" smooth="yes"/>
      <point x="175" y="597"/>
      <point x="188" y="656"/>
      <point x="261" y="656" type="curve" smooth="yes"/>
      <point x="306" y="656"/>
      <point x="341" y="621"/>
      <point x="344" y="578" type="curve"/>
      <point x="344" y="472"/>
      <point x="241" y="457"/>
      <point x="241" y="379" type="curve" smooth="yes"/>
      <point x="241" y="279"/>
      <point x="411" y="267"/>
      <point x="411" y="165" type="curve" smooth="yes" name="hr02"/>
      <point x="411" y="104"/>
      <point x="370" y="67"/>
      <point x="323" y="67" type="curve"/>
      <point x="309" y="76"/>
      <point x="290" y="95"/>
      <point x="273" y="110" type="curve"/>
    </contour>
  </outline>
</glyph>
<glyph name="atilde" format="1">
  <advance width="460"/>
  <unicode hex="00E3"/>
  <outline>
    <contour>
      <point x="286" y="633" type="line" name="hr00"/>
      <point x="285" y="636" type="line"/>
      <point x="257" y="647"/>
      <point x="218" y="676"/>
      <point x="176" y="676" type="curve" smooth="yes"/>
      <point x="104" y="676"/>
      <point x="70" y="613"/>
      <point x="70" y="585" type="curve"/>
      <point x="123" y="551" type="line"/>
      <point x="132" y="574"/>
      <point x="148" y="596"/>
      <point x="178" y="596" type="curve" smooth="yes"/>
      <point x="218" y="596"/>
      <point x="246" y="559"/>
      <point x="292" y="559" type="curve" smooth="yes" name="hr01"/>
      <point x="332" y="559"/>
      <point x="360" y="584"/>
      <point x="388" y="614" type="curve"/>
      <point x="332" y="680" type="line" name="hr02"/>
    </contour>
    <contour>
      <point x="383" y="345" type="line" smooth="yes"/>
      <point x="383" y="429"/>
      <point x="325" y="486"/>
      <point x="222" y="486" type="curve" smooth="yes"/>
      <point x="115" y="486"/>
      <point x="56" y="430"/>
      <point x="37" y="364" type="curve"/>
      <point x="142" y="333" type="line"/>
      <point x="162" y="398" type="line"/>
      <point x="175" y="410"/>
      <point x="198" y="414"/>
      <point x="217" y="414" type="curve" smooth="yes"/>
      <point x="269" y="414"/>
      <point x="293" y="387"/>
      <point x="293" y="361" type="curve" smooth="yes"/>
      <point x="293" y="290" type="line"/>
      <point x="160" y="287"/>
      <point x="36" y="258"/>
      <point x="36" y="129" type="curve" smooth="yes"/>
      <point x="36" y="52"/>
      <point x="96" y="-5"/>
      <point x="189" y="-5" type="curve" smooth="yes"/>
      <point x="239" y="-5"/>
      <point x="274" y="15"/>
      <point x="299" y="41" type="curve"/>
      <point x="308" y="13"/>
      <point x="330" y="-4"/>
      <point x="371" y="-4" type="curve" smooth="yes" name="hr03"/>
      <point x="405" y="-4"/>
      <point x="432" y="15"/>
      <point x="440" y="22" type="curve"/>
      <point x="418" y="75" type="line"/>
      <point x="413" y="72"/>
      <point x="405" y="68"/>
      <point x="397" y="68" type="curve" smooth="yes"/>
      <point x="390" y="68"/>
      <point x="383" y="73"/>
      <point x="383" y="89" type="curve" smooth="yes"/>
    </contour>
    <contour>
      <point x="202" y="69" type="curve" smooth="yes" name="hr04"/>
      <point x="176" y="69"/>
      <point x="131" y="81"/>
      <point x="131" y="134" type="curve" smooth="yes"/>
      <point x="131" y="212"/>
      <point x="234" y="216"/>
      <point x="293" y="217" type="curve"/>
      <point x="293" y="131" type="line"/>
      <point x="286" y="107"/>
      <point x="255" y="69"/>
    </contour>
  </outline>
</glyph>
<glyph name="aring" format="1">
  <advance width="460"/>
  <unicode hex="00E5"/>
  <outline>
    <contour>
      <point x="190" y="630" type="curve" smooth="yes" name="hr00"/>
      <point x="190" y="650"/>
      <point x="206" y="666"/>
      <point x="226" y="666" type="curve" smooth="yes"/>
      <point x="246" y="666"/>
      <point x="263" y="650"/>
      <point x="263" y="630" type="curve" smooth="yes"/>
      <point x="263" y="610"/>
      <point x="246" y="594"/>
      <point x="226" y="594" type="curve" smooth="yes"/>
      <point x="206" y="594"/>
      <point x="190" y="610"/>
    </contour>
    <contour>
      <point x="131" y="630" type="curve" smooth="yes"/>
      <point x="131" y="577"/>
      <point x="173" y="535"/>
      <point x="226" y="535" type="curve" smooth="yes"/>
      <point x="280" y="535"/>
      <point x="322" y="577"/>
      <point x="322" y="630" type="curve" smooth="yes"/>
      <point x="322" y="683"/>
      <point x="280" y="725"/>
      <point x="226" y="725" type="curve" smooth="yes"/>
      <point x="173" y="725"/>
      <point x="131" y="683"/>
    </contour>
    <contour>
      <point x="383" y="345" type="line" smooth="yes" name="hr01"/>
      <point x="383" y="429"/>
      <point x="325" y="486"/>
      <point x="222" y="486" type="curve" smooth="yes"/>
      <point x="115" y="486"/>
      <point x="56" y="430"/>
      <point x="37" y="364" type="curve"/>
      <point x="142" y="333" type="line"/>
      <point x="162" y="398" type="line"/>
      <point x="175" y="410"/>
      <point x="198" y="414"/>
      <point x="217" y="414" type="curve" smooth="yes"/>
      <point x="269" y="414"/>
      <point x="293" y="387"/>
      <point x="293" y="361" type="curve" smooth="yes"/>
      <point x="293" y="290" type="line"/>
      <point x="160" y="287"/>
      <point x="36" y="258"/>
      <point x="36" y="129" type="curve" smooth="yes"/>
      <point x="36" y="52"/>
      <point x="96" y="-5"/>
      <point x="189" y="-5" type="curve" smooth="yes"/>
      <point x="239" y="-5"/>
      <point x="274" y="15"/>
      <point x="299" y="41" type="curve"/>
      <point x="308" y="13"/>
      <point x="330" y="-4"/>
      <point x="371" y="-4" type="curve" smooth="yes" name="hr02"/>
      <point x="405" y="-4"/>
      <point x="432" y="15"/>
      <point x="440" y="22" type="curve"/>
      <point x="418" y="75" type="line"/>
      <point x="413" y="72"/>
      <point x="405" y="68"/>
      <point x="397" y="68" type="curve" smooth="yes"/>
      <point x="390" y="68"/>
      <point x="383" y="73"/>
      <point x="383" y="89" type="curve" smooth="yes"/>
    </contour>
    <contour>
      <point x="202" y="69" type="curve" smooth="yes" name="hr03"/>
      <point x="176" y="69"/>
      <point x="131" y="81"/>
      <point x="131" y="134" type="curve" smooth="yes"/>
      <point x="131" y="212"/>
      <point x="234" y="216"/>
      <point x="293" y="217" type="curve"/>
      <point x="293" y="131" type="line"/>
      <point x="286" y="107"/>
      <point x="255" y="69"/>
    </contour>
  </outline>
</glyph>
